<svg viewBox="0 0 504 887" fill="none" xmlns="http://www.w3.org/2000/svg">
    <g id="MAR">
        <g id="Rectangle 1">
            <rect id="Rectangle 1_2" x="180" y="2" width="106" height="36" fill="#D9D9D9"
                stroke="black" stroke-width="2" />
            <line id="Line 10" x1="231.667" y1="0.990723" x2="231.667" y2="39.0001" stroke="black" />
        </g>
        <path id="MAR_2"
            d="M191.596 15.2727H192.857L195.823 22.517H195.925L198.891 15.2727H200.153V24H199.164V17.3693H199.079L196.352 24H195.397L192.67 17.3693H192.585V24H191.596V15.2727ZM202.63 24H201.522L204.726 15.2727H205.817L209.022 24H207.914L205.306 16.6534H205.238L202.63 24ZM203.039 20.5909H207.505V21.5284H203.039V20.5909ZM210.381 24V15.2727H213.33C214.012 15.2727 214.571 15.3892 215.009 15.6222C215.446 15.8523 215.77 16.169 215.98 16.5724C216.191 16.9759 216.296 17.4347 216.296 17.9489C216.296 18.4631 216.191 18.919 215.98 19.3168C215.77 19.7145 215.448 20.027 215.013 20.2543C214.578 20.4787 214.023 20.5909 213.347 20.5909H210.961V19.6364H213.313C213.779 19.6364 214.154 19.5682 214.438 19.4318C214.725 19.2955 214.932 19.1023 215.06 18.8523C215.191 18.5994 215.256 18.2983 215.256 17.9489C215.256 17.5994 215.191 17.294 215.06 17.0327C214.929 16.7713 214.721 16.5696 214.434 16.4276C214.147 16.2827 213.767 16.2102 213.296 16.2102H211.438V24H210.381ZM214.489 20.0795L216.637 24H215.409L213.296 20.0795H214.489Z"
            fill="black" />
    </g>
    <g id="MDR">
        <g id="Rectangle 1_3">
            <rect id="Rectangle 1_4" x="179.756" y="73" width="106" height="36" fill="#D9D9D9"
                stroke="black" stroke-width="2" />
            <line id="Line 10_2" x1="231.423" y1="71.9907" x2="231.423" y2="110" stroke="black" />
        </g>
        <path id="MDR_2"
            d="M191.352 86.2727H192.613L195.579 93.517H195.682L198.648 86.2727H199.909V95H198.92V88.3693H198.835L196.108 95H195.153L192.426 88.3693H192.341V95H191.352V86.2727ZM204.721 95H202.028V86.2727H204.84C205.687 86.2727 206.411 86.4474 207.014 86.7969C207.616 87.1435 208.078 87.642 208.399 88.2926C208.72 88.9403 208.88 89.7159 208.88 90.6193C208.88 91.5284 208.718 92.3111 208.394 92.9673C208.07 93.6207 207.599 94.1236 206.98 94.4759C206.36 94.8253 205.607 95 204.721 95ZM203.085 94.0625H204.653C205.374 94.0625 205.972 93.9233 206.447 93.6449C206.921 93.3665 207.275 92.9702 207.508 92.456C207.741 91.9418 207.857 91.3295 207.857 90.6193C207.857 89.9148 207.742 89.3082 207.512 88.7997C207.282 88.2884 206.938 87.8963 206.481 87.6236C206.024 87.348 205.454 87.2102 204.772 87.2102H203.085V94.0625ZM210.653 95V86.2727H213.602C214.284 86.2727 214.843 86.3892 215.281 86.6222C215.718 86.8523 216.042 87.169 216.252 87.5724C216.462 87.9759 216.568 88.4347 216.568 88.9489C216.568 89.4631 216.462 89.919 216.252 90.3168C216.042 90.7145 215.72 91.027 215.285 91.2543C214.85 91.4787 214.295 91.5909 213.619 91.5909H211.232V90.6364H213.585C214.051 90.6364 214.426 90.5682 214.71 90.4318C214.997 90.2955 215.204 90.1023 215.332 89.8523C215.462 89.5994 215.528 89.2983 215.528 88.9489C215.528 88.5994 215.462 88.294 215.332 88.0327C215.201 87.7713 214.992 87.5696 214.705 87.4276C214.418 87.2827 214.039 87.2102 213.568 87.2102H211.71V95H210.653ZM214.761 91.0795L216.909 95H215.681L213.568 91.0795H214.761Z"
            fill="black" />
    </g>
    <g id="PC">
        <g id="Rectangle 1_5">
            <rect id="Rectangle 1_6" x="180" y="144" width="106" height="36" fill="#D9D9D9"
                stroke="black" stroke-width="2" />
            <line id="Line 10_3" x1="231.667" y1="142.991" x2="231.667" y2="181" stroke="black" />
        </g>
        <path id="PC_2"
            d="M191.596 166V157.273H194.545C195.229 157.273 195.789 157.396 196.224 157.643C196.661 157.888 196.985 158.219 197.195 158.636C197.406 159.054 197.511 159.52 197.511 160.034C197.511 160.548 197.406 161.016 197.195 161.436C196.988 161.857 196.667 162.192 196.232 162.442C195.798 162.689 195.241 162.812 194.562 162.812H192.448V161.875H194.528C194.997 161.875 195.373 161.794 195.657 161.632C195.941 161.47 196.147 161.251 196.275 160.976C196.406 160.697 196.471 160.384 196.471 160.034C196.471 159.685 196.406 159.372 196.275 159.097C196.147 158.821 195.94 158.605 195.653 158.449C195.366 158.29 194.985 158.21 194.511 158.21H192.653V166H191.596ZM206.236 160H205.179C205.117 159.696 205.007 159.429 204.851 159.199C204.698 158.969 204.51 158.776 204.288 158.619C204.07 158.46 203.827 158.341 203.56 158.261C203.293 158.182 203.014 158.142 202.724 158.142C202.196 158.142 201.717 158.276 201.288 158.543C200.862 158.81 200.523 159.203 200.27 159.723C200.02 160.243 199.895 160.881 199.895 161.636C199.895 162.392 200.02 163.03 200.27 163.55C200.523 164.07 200.862 164.463 201.288 164.73C201.717 164.997 202.196 165.131 202.724 165.131C203.014 165.131 203.293 165.091 203.56 165.011C203.827 164.932 204.07 164.814 204.288 164.658C204.51 164.499 204.698 164.304 204.851 164.074C205.007 163.841 205.117 163.574 205.179 163.273H206.236C206.156 163.719 206.011 164.118 205.801 164.47C205.591 164.822 205.33 165.122 205.017 165.369C204.705 165.614 204.354 165.8 203.965 165.928C203.578 166.055 203.165 166.119 202.724 166.119C201.98 166.119 201.318 165.938 200.739 165.574C200.159 165.21 199.703 164.693 199.371 164.023C199.038 163.352 198.872 162.557 198.872 161.636C198.872 160.716 199.038 159.92 199.371 159.25C199.703 158.58 200.159 158.062 200.739 157.699C201.318 157.335 201.98 157.153 202.724 157.153C203.165 157.153 203.578 157.217 203.965 157.345C204.354 157.473 204.705 157.661 205.017 157.908C205.33 158.152 205.591 158.45 205.801 158.803C206.011 159.152 206.156 159.551 206.236 160Z"
            fill="black" />
    </g>
    <g id="MBR">
        <g id="Rectangle 1_7">
            <rect id="Rectangle 1_8" x="177" y="210.5" width="106" height="36" fill="#D9D9D9"
                stroke="black" stroke-width="2" />
            <line id="Line 10_4" x1="228.667" y1="209.491" x2="228.667" y2="247.5" stroke="black" />
        </g>
        <path id="MBR_2"
            d="M188.596 223.773H189.857L192.823 231.017H192.926L195.891 223.773H197.153V232.5H196.164V225.869H196.079L193.352 232.5H192.397L189.67 225.869H189.585V232.5H188.596V223.773ZM199.272 232.5V223.773H202.323C202.931 223.773 203.432 223.878 203.827 224.088C204.222 224.295 204.516 224.575 204.709 224.928C204.902 225.277 204.999 225.665 204.999 226.091C204.999 226.466 204.932 226.776 204.799 227.02C204.668 227.264 204.495 227.457 204.279 227.599C204.066 227.741 203.834 227.847 203.584 227.915V228C203.851 228.017 204.12 228.111 204.39 228.281C204.66 228.452 204.885 228.696 205.067 229.014C205.249 229.332 205.34 229.722 205.34 230.182C205.34 230.619 205.241 231.013 205.042 231.362C204.843 231.712 204.529 231.989 204.1 232.193C203.671 232.398 203.113 232.5 202.425 232.5H199.272ZM200.329 231.562H202.425C203.116 231.562 203.606 231.429 203.895 231.162C204.188 230.892 204.334 230.565 204.334 230.182C204.334 229.886 204.259 229.614 204.108 229.364C203.958 229.111 203.743 228.909 203.465 228.759C203.187 228.605 202.857 228.528 202.476 228.528H200.329V231.562ZM200.329 227.608H202.289C202.607 227.608 202.894 227.545 203.15 227.42C203.408 227.295 203.613 227.119 203.763 226.892C203.917 226.665 203.993 226.398 203.993 226.091C203.993 225.707 203.86 225.382 203.593 225.115C203.326 224.845 202.902 224.71 202.323 224.71H200.329V227.608ZM207.076 232.5V223.773H210.025C210.707 223.773 211.267 223.889 211.704 224.122C212.142 224.352 212.466 224.669 212.676 225.072C212.886 225.476 212.991 225.935 212.991 226.449C212.991 226.963 212.886 227.419 212.676 227.817C212.466 228.214 212.143 228.527 211.709 228.754C211.274 228.979 210.719 229.091 210.042 229.091H207.656V228.136H210.008C210.474 228.136 210.849 228.068 211.133 227.932C211.42 227.795 211.628 227.602 211.755 227.352C211.886 227.099 211.951 226.798 211.951 226.449C211.951 226.099 211.886 225.794 211.755 225.533C211.625 225.271 211.416 225.07 211.129 224.928C210.842 224.783 210.463 224.71 209.991 224.71H208.133V232.5H207.076ZM211.184 228.58L213.332 232.5H212.105L209.991 228.58H211.184Z"
            fill="black" />
    </g>
    <g id="SP">
        <g id="Rectangle 1_9">
            <rect id="Rectangle 1_10" x="180.546" y="284.798" width="106" height="36" fill="#D9D9D9"
                stroke="black" stroke-width="2" />
            <line id="Line 10_5" x1="232.213" y1="283.788" x2="232.213" y2="321.798" stroke="black" />
        </g>
        <path id="SP_2"
            d="M205.375 300.38C205.324 299.948 205.116 299.612 204.753 299.374C204.389 299.135 203.943 299.016 203.415 299.016C203.028 299.016 202.69 299.078 202.401 299.203C202.114 299.328 201.889 299.5 201.727 299.719C201.568 299.938 201.489 300.186 201.489 300.465C201.489 300.698 201.544 300.898 201.655 301.066C201.768 301.23 201.913 301.368 202.089 301.479C202.266 301.587 202.45 301.676 202.643 301.747C202.837 301.816 203.014 301.871 203.176 301.914L204.062 302.152C204.29 302.212 204.543 302.294 204.821 302.399C205.102 302.505 205.371 302.648 205.626 302.83C205.885 303.009 206.098 303.239 206.266 303.52C206.433 303.801 206.517 304.147 206.517 304.556C206.517 305.027 206.393 305.453 206.146 305.834C205.902 306.215 205.544 306.517 205.072 306.742C204.604 306.966 204.034 307.078 203.364 307.078C202.739 307.078 202.197 306.978 201.74 306.776C201.285 306.574 200.928 306.293 200.666 305.932C200.408 305.571 200.261 305.152 200.227 304.675H201.318C201.347 305.005 201.457 305.277 201.651 305.493C201.847 305.706 202.094 305.865 202.392 305.97C202.693 306.073 203.017 306.124 203.364 306.124C203.767 306.124 204.129 306.059 204.45 305.928C204.771 305.794 205.026 305.61 205.213 305.374C205.401 305.135 205.494 304.857 205.494 304.539C205.494 304.249 205.413 304.013 205.251 303.831C205.089 303.649 204.876 303.502 204.612 303.388C204.348 303.274 204.062 303.175 203.756 303.09L202.682 302.783C202 302.587 201.46 302.307 201.062 301.943C200.665 301.58 200.466 301.104 200.466 300.516C200.466 300.027 200.598 299.601 200.862 299.237C201.129 298.871 201.487 298.587 201.936 298.385C202.388 298.181 202.892 298.078 203.449 298.078C204.011 298.078 204.511 298.179 204.949 298.381C205.386 298.58 205.733 298.853 205.989 299.199C206.247 299.546 206.384 299.939 206.398 300.38H205.375ZM208.255 306.925V298.198H211.203C211.888 298.198 212.448 298.321 212.882 298.568C213.32 298.813 213.644 299.144 213.854 299.561C214.064 299.979 214.169 300.445 214.169 300.959C214.169 301.473 214.064 301.941 213.854 302.361C213.647 302.782 213.326 303.117 212.891 303.367C212.456 303.614 211.899 303.737 211.221 303.737H209.107V302.8H211.186C211.655 302.8 212.032 302.719 212.316 302.557C212.6 302.395 212.806 302.176 212.934 301.901C213.064 301.622 213.13 301.309 213.13 300.959C213.13 300.61 213.064 300.297 212.934 300.022C212.806 299.746 212.598 299.53 212.311 299.374C212.024 299.215 211.644 299.135 211.169 299.135H209.311V306.925H208.255Z"
            fill="black" />
    </g>
    <g id="LV">
        <g id="Rectangle 1_11">
            <rect id="Rectangle 1_12" x="180.545" y="357" width="106" height="36" fill="#D9D9D9"
                stroke="black" stroke-width="2" />
            <line id="Line 10_6" x1="232.213" y1="355.991" x2="232.213" y2="394" stroke="black" />
        </g>
        <path id="LV_2"
            d="M200.602 379.127V370.4H201.659V378.19H205.716V379.127H200.602ZM206.89 370.4L209.481 377.747H209.583L212.174 370.4H213.282L210.077 379.127H208.986L205.782 370.4H206.89Z"
            fill="black" />
    </g>
    <g id="CPP">
        <g id="Rectangle 1_13">
            <rect id="Rectangle 1_14" x="179.756" y="424.222" width="106" height="36" fill="#D9D9D9"
                stroke="black" stroke-width="2" />
            <line id="Line 10_7" x1="231.423" y1="423.213" x2="231.423" y2="461.222" stroke="black" />
        </g>
        <path id="CPP_2"
            d="M201.41 440.722H200.353C200.291 440.418 200.181 440.151 200.025 439.921C199.872 439.691 199.684 439.498 199.462 439.342C199.244 439.182 199.001 439.063 198.734 438.984C198.467 438.904 198.188 438.864 197.899 438.864C197.37 438.864 196.891 438.998 196.462 439.265C196.036 439.532 195.697 439.925 195.444 440.445C195.194 440.965 195.069 441.603 195.069 442.359C195.069 443.114 195.194 443.752 195.444 444.272C195.697 444.792 196.036 445.185 196.462 445.452C196.891 445.719 197.37 445.853 197.899 445.853C198.188 445.853 198.467 445.813 198.734 445.734C199.001 445.654 199.244 445.536 199.462 445.38C199.684 445.221 199.872 445.026 200.025 444.796C200.181 444.563 200.291 444.296 200.353 443.995H201.41C201.33 444.441 201.185 444.84 200.975 445.192C200.765 445.545 200.504 445.844 200.191 446.092C199.879 446.336 199.528 446.522 199.139 446.65C198.752 446.778 198.339 446.842 197.899 446.842C197.154 446.842 196.492 446.66 195.913 446.296C195.333 445.932 194.877 445.415 194.545 444.745C194.212 444.075 194.046 443.279 194.046 442.359C194.046 441.438 194.212 440.643 194.545 439.972C194.877 439.302 195.333 438.785 195.913 438.421C196.492 438.057 197.154 437.876 197.899 437.876C198.339 437.876 198.752 437.94 199.139 438.067C199.528 438.195 199.879 438.383 200.191 438.63C200.504 438.874 200.765 439.173 200.975 439.525C201.185 439.874 201.33 440.273 201.41 440.722ZM203.118 446.722V437.995H206.067C206.751 437.995 207.311 438.119 207.746 438.366C208.183 438.61 208.507 438.941 208.717 439.359C208.927 439.776 209.032 440.242 209.032 440.756C209.032 441.271 208.927 441.738 208.717 442.158C208.51 442.579 208.189 442.914 207.754 443.164C207.319 443.411 206.763 443.535 206.084 443.535H203.97V442.597H206.049C206.518 442.597 206.895 442.516 207.179 442.354C207.463 442.192 207.669 441.974 207.797 441.698C207.927 441.42 207.993 441.106 207.993 440.756C207.993 440.407 207.927 440.094 207.797 439.819C207.669 439.543 207.461 439.327 207.174 439.171C206.888 439.012 206.507 438.932 206.032 438.932H204.174V446.722H203.118ZM210.735 446.722V437.995H213.684C214.368 437.995 214.928 438.119 215.363 438.366C215.8 438.61 216.124 438.941 216.334 439.359C216.545 439.776 216.65 440.242 216.65 440.756C216.65 441.271 216.545 441.738 216.334 442.158C216.127 442.579 215.806 442.914 215.371 443.164C214.937 443.411 214.38 443.535 213.701 443.535H211.587V442.597H213.667C214.135 442.597 214.512 442.516 214.796 442.354C215.08 442.192 215.286 441.974 215.414 441.698C215.545 441.42 215.61 441.106 215.61 440.756C215.61 440.407 215.545 440.094 215.414 439.819C215.286 439.543 215.079 439.327 214.792 439.171C214.505 439.012 214.124 438.932 213.65 438.932H211.792V446.722H210.735Z"
            fill="black" />
    </g>
    <g id="TOS">
        <g id="Rectangle 1_15">
            <rect id="Rectangle 1_16" x="179.545" y="496.595" width="106" height="36" fill="#D9D9D9"
                stroke="black" stroke-width="2" />
            <line id="Line 10_8" x1="231.213" y1="495.586" x2="231.213" y2="533.595" stroke="black" />
        </g>
        <path id="TOS_2"
            d="M193.699 511.305V510.368H200.245V511.305H197.5V519.095H196.444V511.305H193.699ZM208.876 514.732C208.876 515.652 208.71 516.448 208.378 517.118C208.045 517.788 207.589 518.305 207.01 518.669C206.43 519.033 205.768 519.215 205.024 519.215C204.279 519.215 203.618 519.033 203.038 518.669C202.458 518.305 202.003 517.788 201.67 517.118C201.338 516.448 201.172 515.652 201.172 514.732C201.172 513.811 201.338 513.016 201.67 512.345C202.003 511.675 202.458 511.158 203.038 510.794C203.618 510.43 204.279 510.249 205.024 510.249C205.768 510.249 206.43 510.43 207.01 510.794C207.589 511.158 208.045 511.675 208.378 512.345C208.71 513.016 208.876 513.811 208.876 514.732ZM207.853 514.732C207.853 513.976 207.727 513.338 207.474 512.818C207.224 512.298 206.885 511.905 206.456 511.638C206.029 511.371 205.552 511.237 205.024 511.237C204.495 511.237 204.017 511.371 203.588 511.638C203.162 511.905 202.822 512.298 202.569 512.818C202.319 513.338 202.194 513.976 202.194 514.732C202.194 515.487 202.319 516.125 202.569 516.645C202.822 517.165 203.162 517.558 203.588 517.825C204.017 518.092 204.495 518.226 205.024 518.226C205.552 518.226 206.029 518.092 206.456 517.825C206.885 517.558 207.224 517.165 207.474 516.645C207.727 516.125 207.853 515.487 207.853 514.732ZM215.426 512.55C215.375 512.118 215.167 511.783 214.804 511.544C214.44 511.305 213.994 511.186 213.466 511.186C213.079 511.186 212.741 511.249 212.451 511.374C212.164 511.499 211.94 511.671 211.778 511.889C211.619 512.108 211.539 512.357 211.539 512.635C211.539 512.868 211.595 513.068 211.706 513.236C211.819 513.401 211.964 513.538 212.14 513.649C212.316 513.757 212.501 513.847 212.694 513.918C212.887 513.986 213.065 514.041 213.227 514.084L214.113 514.323C214.341 514.382 214.593 514.465 214.872 514.57C215.153 514.675 215.422 514.818 215.677 515C215.936 515.179 216.149 515.409 216.316 515.69C216.484 515.972 216.568 516.317 216.568 516.726C216.568 517.198 216.444 517.624 216.197 518.004C215.953 518.385 215.595 518.688 215.123 518.912C214.654 519.136 214.085 519.249 213.414 519.249C212.789 519.249 212.248 519.148 211.791 518.946C211.336 518.744 210.978 518.463 210.717 518.102C210.458 517.742 210.312 517.323 210.278 516.845H211.369C211.397 517.175 211.508 517.448 211.701 517.663C211.897 517.876 212.145 518.036 212.443 518.141C212.744 518.243 213.068 518.294 213.414 518.294C213.818 518.294 214.18 518.229 214.501 518.098C214.822 517.965 215.076 517.78 215.264 517.544C215.451 517.305 215.545 517.027 215.545 516.709C215.545 516.419 215.464 516.183 215.302 516.001C215.14 515.82 214.927 515.672 214.663 515.558C214.399 515.445 214.113 515.345 213.806 515.26L212.733 514.953C212.051 514.757 211.511 514.477 211.113 514.114C210.716 513.75 210.517 513.274 210.517 512.686C210.517 512.198 210.649 511.771 210.913 511.408C211.18 511.041 211.538 510.757 211.987 510.555C212.439 510.351 212.943 510.249 213.5 510.249C214.062 510.249 214.562 510.349 215 510.551C215.437 510.75 215.784 511.023 216.039 511.369C216.298 511.716 216.434 512.109 216.449 512.55H215.426Z"
            fill="black" />
    </g>
    <g id="OPC">
        <g id="Rectangle 1_17">
            <rect id="Rectangle 1_18" x="179.545" y="564.5" width="106" height="36" fill="#D9D9D9"
                stroke="black" stroke-width="2" />
            <line id="Line 10_9" x1="231.213" y1="563.491" x2="231.213" y2="601.5" stroke="black" />
        </g>
        <path id="OPC_2"
            d="M201.54 582.636C201.54 583.557 201.374 584.352 201.042 585.023C200.709 585.693 200.253 586.21 199.674 586.574C199.094 586.938 198.432 587.119 197.688 587.119C196.944 587.119 196.282 586.938 195.702 586.574C195.123 586.21 194.667 585.693 194.334 585.023C194.002 584.352 193.836 583.557 193.836 582.636C193.836 581.716 194.002 580.92 194.334 580.25C194.667 579.58 195.123 579.062 195.702 578.699C196.282 578.335 196.944 578.153 197.688 578.153C198.432 578.153 199.094 578.335 199.674 578.699C200.253 579.062 200.709 579.58 201.042 580.25C201.374 580.92 201.54 581.716 201.54 582.636ZM200.517 582.636C200.517 581.881 200.391 581.243 200.138 580.723C199.888 580.203 199.549 579.81 199.12 579.543C198.694 579.276 198.216 579.142 197.688 579.142C197.159 579.142 196.681 579.276 196.252 579.543C195.826 579.81 195.486 580.203 195.233 580.723C194.983 581.243 194.858 581.881 194.858 582.636C194.858 583.392 194.983 584.03 195.233 584.55C195.486 585.07 195.826 585.463 196.252 585.73C196.681 585.997 197.159 586.131 197.688 586.131C198.216 586.131 198.694 585.997 199.12 585.73C199.549 585.463 199.888 585.07 200.138 584.55C200.391 584.03 200.517 583.392 200.517 582.636ZM203.317 587V578.273H206.266C206.951 578.273 207.51 578.396 207.945 578.643C208.382 578.888 208.706 579.219 208.917 579.636C209.127 580.054 209.232 580.52 209.232 581.034C209.232 581.548 209.127 582.016 208.917 582.436C208.709 582.857 208.388 583.192 207.953 583.442C207.519 583.689 206.962 583.812 206.283 583.812H204.169V582.875H206.249C206.718 582.875 207.094 582.794 207.378 582.632C207.662 582.47 207.868 582.251 207.996 581.976C208.127 581.697 208.192 581.384 208.192 581.034C208.192 580.685 208.127 580.372 207.996 580.097C207.868 579.821 207.661 579.605 207.374 579.449C207.087 579.29 206.706 579.21 206.232 579.21H204.374V587H203.317ZM217.957 581H216.9C216.838 580.696 216.728 580.429 216.572 580.199C216.419 579.969 216.231 579.776 216.01 579.619C215.791 579.46 215.548 579.341 215.281 579.261C215.014 579.182 214.735 579.142 214.446 579.142C213.917 579.142 213.439 579.276 213.01 579.543C212.583 579.81 212.244 580.203 211.991 580.723C211.741 581.243 211.616 581.881 211.616 582.636C211.616 583.392 211.741 584.03 211.991 584.55C212.244 585.07 212.583 585.463 213.01 585.73C213.439 585.997 213.917 586.131 214.446 586.131C214.735 586.131 215.014 586.091 215.281 586.011C215.548 585.932 215.791 585.814 216.01 585.658C216.231 585.499 216.419 585.304 216.572 585.074C216.728 584.841 216.838 584.574 216.9 584.273H217.957C217.878 584.719 217.733 585.118 217.522 585.47C217.312 585.822 217.051 586.122 216.738 586.369C216.426 586.614 216.075 586.8 215.686 586.928C215.299 587.055 214.886 587.119 214.446 587.119C213.701 587.119 213.039 586.938 212.46 586.574C211.88 586.21 211.424 585.693 211.092 585.023C210.76 584.352 210.593 583.557 210.593 582.636C210.593 581.716 210.76 580.92 211.092 580.25C211.424 579.58 211.88 579.062 212.46 578.699C213.039 578.335 213.701 578.153 214.446 578.153C214.886 578.153 215.299 578.217 215.686 578.345C216.075 578.473 216.426 578.661 216.738 578.908C217.051 579.152 217.312 579.45 217.522 579.803C217.733 580.152 217.878 580.551 217.957 581Z"
            fill="black" />
    </g>
    <g id="H">
        <g id="Rectangle 1_19">
            <rect id="Rectangle 1_20" x="180.545" y="640.222" width="106" height="36" fill="#D9D9D9"
                stroke="black" stroke-width="2" />
            <line id="Line 10_10" x1="232.213" y1="639.213" x2="232.213" y2="677.222" stroke="black" />
        </g>
        <path id="H_2"
            d="M201.057 662.722V653.995H202.114V657.881H206.767V653.995H207.824V662.722H206.767V658.819H202.114V662.722H201.057Z"
            fill="black" />
    </g>

    <g id="write C Arrow">
        <path id="wrCtoMAR" d="M203 38L197.226 48H208.774L203 38ZM204 58V47H202V58H204Z"
            fill="black" />
        <path id="wrCtoMDR" d="M203 109L197.226 119H208.774L203 109ZM204 129V118H202V129H204Z"
            fill="black" />
        <path id="wrCtoPC" d="M203 180L197.226 190H208.774L203 180ZM204 200V189H202V200H204Z"
            fill="black" />
        <path id="wrCtoSP" d="M203 322L197.226 332H208.774L203 322ZM204 342V331H202V342H204Z"
            fill="black" />
        <path id="wrCtoLV" d="M203 393L197.226 403H208.774L203 393ZM204 413V402H202V413H204Z"
            fill="black" />
        <path id="wrCtoCPP" d="M203 464L197.226 474H208.774L203 464ZM204 484V473H202V484H204Z"
            fill="black" />
        <path id="wrCtoTOS" d="M203 535L197.226 545H208.774L203 535ZM204 555V544H202V555H204Z"
            fill="black" />
        <path id="wrCtoOPC" d="M203 606L197.226 616H208.774L203 606ZM204 626V615H202V626H204Z"
            fill="black" />
        <path id="wrCtoH" d="M202 687L196.226 697H207.774L202 687ZM203 707V696H201V707H203Z"
            fill="black" />
    </g>
    <g id="enable on B Arrow">
        <path id="enMDRonB" d="M256 107L250.226 117H261.774L256 107ZM257 127V116H255V127H257Z"
            fill="#E9E11A" />
        <path id="enPConB" d="M256 180L250.226 190H261.774L256 180ZM257 200V189H255V200H257Z"
            fill="#E9E11A" />
        <path id="enSPonB" d="M256 322L250.226 332H261.774L256 322ZM257 342V331H255V342H257Z"
            fill="#E9E11A" />
        <path id="enLVonB" d="M256 393L250.226 403H261.774L256 393ZM257 413V402H255V413H257Z"
            fill="#E9E11A" />
        <path id="enCPPonB" d="M256 464L250.226 474H261.774L256 464ZM257 484V473H255V484H257Z"
            fill="#E9E11A" />
        <path id="enTOSonB" d="M256 535L250.226 545H261.774L256 535ZM257 555V544H255V555H257Z"
            fill="#E9E11A" />
        <path id="enOPConB" d="M256 606L250.226 616H261.774L256 606ZM257 626V615H255V626H257Z"
            fill="#E9E11A" />
        <path id="enMBRonB" d="M257 251L251.226 261H262.774L257 251ZM258 271V260H256V271H258Z"
            fill="#E9E11A" />
        <path id="enMBRonB_2" d="M272 251L266.226 261H277.774L272 251ZM273 271V260H271V271H273Z"
            fill="#E9E11A" />
    </g>
    <g id="ALU">
        <path id="Line 1" d="M224 735L275.5 734" stroke="black" stroke-width="2" />
        <line id="Line 4" x1="275" y1="795" x2="349" y2="795" stroke="black" stroke-width="2" />
        <path id="Line 3" d="M347.951 735.989L399 735.967" stroke="black" stroke-width="2" />
        <line id="Line 2" x1="296" y1="758" x2="327" y2="758" stroke="black" stroke-width="2" />
        <line id="Line 5" y1="-1" x2="80.054" y2="-1"
            transform="matrix(0.637551 0.770408 -0.734037 0.679109 224 734.888)" stroke="black"
            stroke-width="2" />
        <line id="Line 6" x1="274.731" y1="734.318" x2="296.605" y2="757.743" stroke="black"
            stroke-width="2" />
        <line id="Line 7" y1="-1" x2="31.0503" y2="-1"
            transform="matrix(0.700179 -0.713968 0.673889 0.738833 327.333 758.765)" stroke="black"
            stroke-width="2" />
        <path id="Line 8" d="M398.469 735.989L347.43 796.011" stroke="black" stroke-width="2" />
        <path id="ALU_2"
            d="M304.415 780H303.307L306.511 771.273H307.602L310.807 780H309.699L307.091 772.653H307.023L304.415 780ZM304.824 776.591H309.29V777.528H304.824V776.591ZM312.166 780V771.273H313.223V779.062H317.28V780H312.166ZM324.643 771.273H325.7V777.051C325.7 777.648 325.56 778.18 325.278 778.649C325 779.115 324.607 779.483 324.098 779.753C323.589 780.02 322.993 780.153 322.308 780.153C321.624 780.153 321.027 780.02 320.518 779.753C320.01 779.483 319.615 779.115 319.334 778.649C319.055 778.18 318.916 777.648 318.916 777.051V771.273H319.973V776.966C319.973 777.392 320.067 777.771 320.254 778.104C320.442 778.433 320.709 778.693 321.055 778.884C321.405 779.071 321.822 779.165 322.308 779.165C322.794 779.165 323.212 779.071 323.561 778.884C323.911 778.693 324.178 778.433 324.362 778.104C324.55 777.771 324.643 777.392 324.643 776.966V771.273Z"
            fill="black" />
    </g>

    <g id="Orange arrow">
        <g id="Orange arrow MAR">
            <g id="Arrow 20_11" filter="url(#filter10_b_0_1)">
                <path
                    d="M92.441 23.4444C93.5455 23.4444 94.441 24.3398 94.441 25.4444C94.441 26.549 93.5455 27.4444 92.441 27.4444V23.4444ZM76 25.4444L96 13.8974V36.9914L76 25.4444Z"
                    fill="#E97F1C" />
            </g>
            <rect id="Rectangle 18_11" x="-0.5" y="-0.5" width="9" height="81.2049"
                transform="matrix(0 -1 -1 0 177.756 30)" fill="#E97F1C" stroke="#E97F1C" />
        </g>
        <g id="Orange arrow PC">
            <g id="Arrow 20_12" filter="url(#filter11_b_0_1)">
                <path
                    d="M92.6849 164.444C93.7894 164.444 94.6849 165.34 94.6849 166.444C94.6849 167.549 93.7894 168.444 92.6849 168.444V164.444ZM76.2439 166.444L96.2439 154.897V177.991L76.2439 166.444Z"
                    fill="#E97F1C" />
            </g>
            <rect id="Rectangle 18_12" x="-0.5" y="-0.5" width="9" height="81.2049"
                transform="matrix(0 -1 -1 0 178 171)" fill="#E97F1C" stroke="#E97F1C" />
        </g>
        <g id="Orange arrow MBR">
            <g id="Arrow 20_13" filter="url(#filter12_b_0_1)">
                <path
                    d="M162.315 237.556C161.211 237.556 160.315 236.66 160.315 235.556C160.315 234.451 161.211 233.556 162.315 233.556V237.556ZM178.756 235.556L158.756 247.103V224.009L178.756 235.556Z"
                    fill="#E97F1C" />
            </g>
            <rect id="Rectangle 18_13" x="0.5" y="0.5" width="9" height="81.2049"
                transform="matrix(0 1 1 0 76 230)"
                fill="#E97F1C" stroke="#E97F1C" />
        </g>
        <g id="Orange arrow MDR">
            <g id="Arrow 20_14" filter="url(#filter13_b_0_1)">
                <path
                    d="M166.425 102C165.321 102 164.425 101.105 164.425 100C164.425 98.8954 165.321 98 166.425 98V102ZM182.866 100L162.866 111.547V88.453L182.866 100Z"
                    fill="#E97F1C" />
            </g>
            <g id="Mask group">
                <g id="Arrow 21" filter="url(#filter14_b_0_1)">
                    <path
                        d="M92.441 98C93.5455 98 94.441 98.8954 94.441 100C94.441 101.105 93.5455 102 92.441 102V98ZM76 100L96 88.453V111.547L76 100Z"
                        fill="#E97F1C" />
                </g>
            </g>
            <rect id="Rectangle 18_14" x="0.5" y="0.5" width="9" height="81.2049"
                transform="matrix(0 1 1 0 84.2205 95)"
                fill="#E97F1C" stroke="#E97F1C" />
        </g>
    </g>


    <!-- shifter-Bus Component -->
    <g app-shifter #shifter [speed]="0.5" (endEvent)="endAnimation($event)" />

    <!-- C-Bus Component -->
    <g app-c-bus #cBus [speed]="2" />

    <!-- B-Bus Component -->
    <g app-b-bus #bBus [speed]="2" (endEvent)="endAnimation($event)" />

    <!-- A-Bus Component -->
    <g app-a-bus #aBus [speed]="0.5" (endEvent)="endAnimation($event)" />

    <g id="Shifter">
        <g id="H_3">
            <rect id="Rectangle 17_2" x="265" y="850" width="106" height="36" fill="#D9D9D9"
                stroke="black"
                stroke-width="2" />
        </g>
        <path id="Shifter_2"
            d="M305.83 865.455C305.778 865.023 305.571 864.688 305.207 864.449C304.844 864.21 304.398 864.091 303.869 864.091C303.483 864.091 303.145 864.153 302.855 864.278C302.568 864.403 302.344 864.575 302.182 864.794C302.023 865.013 301.943 865.261 301.943 865.54C301.943 865.773 301.999 865.973 302.109 866.141C302.223 866.305 302.368 866.443 302.544 866.554C302.72 866.662 302.905 866.751 303.098 866.822C303.291 866.891 303.469 866.946 303.631 866.989L304.517 867.227C304.744 867.287 304.997 867.369 305.276 867.474C305.557 867.58 305.825 867.723 306.081 867.905C306.339 868.084 306.553 868.314 306.72 868.595C306.888 868.876 306.972 869.222 306.972 869.631C306.972 870.102 306.848 870.528 306.601 870.909C306.357 871.29 305.999 871.592 305.527 871.817C305.058 872.041 304.489 872.153 303.818 872.153C303.193 872.153 302.652 872.053 302.195 871.851C301.74 871.649 301.382 871.368 301.121 871.007C300.862 870.646 300.716 870.227 300.682 869.75H301.773C301.801 870.08 301.912 870.352 302.105 870.568C302.301 870.781 302.548 870.94 302.847 871.045C303.148 871.148 303.472 871.199 303.818 871.199C304.222 871.199 304.584 871.134 304.905 871.003C305.226 870.869 305.48 870.685 305.668 870.449C305.855 870.21 305.949 869.932 305.949 869.614C305.949 869.324 305.868 869.088 305.706 868.906C305.544 868.724 305.331 868.577 305.067 868.463C304.803 868.349 304.517 868.25 304.21 868.165L303.136 867.858C302.455 867.662 301.915 867.382 301.517 867.018C301.119 866.655 300.92 866.179 300.92 865.591C300.92 865.102 301.053 864.676 301.317 864.312C301.584 863.946 301.942 863.662 302.391 863.46C302.842 863.256 303.347 863.153 303.903 863.153C304.466 863.153 304.966 863.254 305.403 863.456C305.841 863.655 306.188 863.928 306.443 864.274C306.702 864.621 306.838 865.014 306.852 865.455H305.83ZM309.578 868.062V872H308.573V863.273H309.578V866.477H309.664C309.817 866.139 310.047 865.871 310.354 865.672C310.664 865.47 311.076 865.369 311.59 865.369C312.036 865.369 312.426 865.459 312.762 865.638C313.097 865.814 313.357 866.085 313.542 866.452C313.729 866.815 313.823 867.278 313.823 867.841V872H312.817V867.909C312.817 867.389 312.682 866.987 312.412 866.703C312.145 866.416 311.775 866.273 311.3 866.273C310.971 866.273 310.675 866.342 310.414 866.482C310.155 866.621 309.951 866.824 309.8 867.091C309.652 867.358 309.578 867.682 309.578 868.062ZM315.663 872V865.455H316.668V872H315.663ZM316.174 864.364C315.978 864.364 315.809 864.297 315.667 864.163C315.528 864.03 315.458 863.869 315.458 863.682C315.458 863.494 315.528 863.334 315.667 863.2C315.809 863.067 315.978 863 316.174 863C316.37 863 316.538 863.067 316.677 863.2C316.819 863.334 316.89 863.494 316.89 863.682C316.89 863.869 316.819 864.03 316.677 864.163C316.538 864.297 316.37 864.364 316.174 864.364ZM321.425 865.455V866.307H317.897V865.455H321.425ZM318.953 872V864.551C318.953 864.176 319.042 863.864 319.218 863.614C319.394 863.364 319.623 863.176 319.904 863.051C320.185 862.926 320.482 862.864 320.794 862.864C321.042 862.864 321.243 862.884 321.4 862.923C321.556 862.963 321.672 863 321.749 863.034L321.459 863.903C321.408 863.886 321.337 863.865 321.246 863.839C321.158 863.814 321.042 863.801 320.897 863.801C320.564 863.801 320.324 863.885 320.176 864.053C320.032 864.22 319.959 864.466 319.959 864.79V872H318.953ZM325.681 865.455V866.307H322.289V865.455H325.681ZM323.278 863.886H324.283V870.125C324.283 870.409 324.325 870.622 324.407 870.764C324.492 870.903 324.6 870.997 324.731 871.045C324.864 871.091 325.005 871.114 325.153 871.114C325.263 871.114 325.354 871.108 325.425 871.097C325.496 871.082 325.553 871.071 325.596 871.062L325.8 871.966C325.732 871.991 325.637 872.017 325.515 872.043C325.393 872.071 325.238 872.085 325.05 872.085C324.766 872.085 324.488 872.024 324.215 871.902C323.945 871.78 323.721 871.594 323.542 871.344C323.366 871.094 323.278 870.778 323.278 870.398V863.886ZM329.868 872.136C329.237 872.136 328.693 871.997 328.236 871.719C327.781 871.438 327.43 871.045 327.183 870.543C326.939 870.037 326.817 869.449 326.817 868.778C326.817 868.108 326.939 867.517 327.183 867.006C327.43 866.491 327.774 866.091 328.214 865.804C328.658 865.514 329.175 865.369 329.766 865.369C330.107 865.369 330.443 865.426 330.776 865.54C331.108 865.653 331.411 865.838 331.683 866.094C331.956 866.347 332.173 866.682 332.335 867.099C332.497 867.517 332.578 868.031 332.578 868.642V869.068H327.533V868.199H331.555C331.555 867.83 331.482 867.5 331.334 867.21C331.189 866.92 330.982 866.692 330.712 866.524C330.445 866.357 330.129 866.273 329.766 866.273C329.365 866.273 329.018 866.372 328.726 866.571C328.436 866.767 328.213 867.023 328.057 867.338C327.901 867.653 327.822 867.991 327.822 868.352V868.932C327.822 869.426 327.908 869.845 328.078 870.189C328.251 870.53 328.491 870.79 328.798 870.969C329.105 871.145 329.462 871.233 329.868 871.233C330.132 871.233 330.371 871.196 330.584 871.122C330.8 871.045 330.986 870.932 331.142 870.781C331.298 870.628 331.419 870.437 331.504 870.21L332.476 870.483C332.374 870.812 332.202 871.102 331.96 871.352C331.719 871.599 331.42 871.793 331.065 871.932C330.71 872.068 330.311 872.136 329.868 872.136ZM334.108 872V865.455H335.08V866.443H335.148C335.267 866.119 335.483 865.857 335.795 865.655C336.108 865.453 336.46 865.352 336.852 865.352C336.926 865.352 337.018 865.354 337.129 865.357C337.24 865.359 337.324 865.364 337.381 865.369V866.392C337.347 866.384 337.268 866.371 337.146 866.354C337.027 866.334 336.901 866.324 336.767 866.324C336.449 866.324 336.165 866.391 335.915 866.524C335.668 866.655 335.472 866.837 335.327 867.07C335.185 867.3 335.114 867.562 335.114 867.858V872H334.108Z"
            fill="black" />
    </g>
    <g id="C Bus Arrow">
        <path id="Arrow 23"
            d="M116.354 687.354C116.549 687.158 116.549 686.842 116.354 686.646L113.172 683.464C112.976 683.269 112.66 683.269 112.464 683.464C112.269 683.66 112.269 683.976 112.464 684.172L115.293 687L112.464 689.828C112.269 690.024 112.269 690.34 112.464 690.536C112.66 690.731 112.976 690.731 113.172 690.536L116.354 687.354ZM36 687.5H116V686.5H36V687.5Z"
            fill="black" />
        <path id="C Bus"
            d="M7.58495 683H6.52813C6.46563 682.696 6.35625 682.429 6.2 682.199C6.04659 681.969 5.85909 681.776 5.6375 681.619C5.41875 681.46 5.17586 681.341 4.90881 681.261C4.64177 681.182 4.36336 681.142 4.07358 681.142C3.54517 681.142 3.06648 681.276 2.6375 681.543C2.21137 681.81 1.87188 682.203 1.61904 682.723C1.36904 683.243 1.24404 683.881 1.24404 684.636C1.24404 685.392 1.36904 686.03 1.61904 686.55C1.87188 687.07 2.21137 687.463 2.6375 687.73C3.06648 687.997 3.54517 688.131 4.07358 688.131C4.36336 688.131 4.64177 688.091 4.90881 688.011C5.17586 687.932 5.41875 687.814 5.6375 687.658C5.85909 687.499 6.04659 687.304 6.2 687.074C6.35625 686.841 6.46563 686.574 6.52813 686.273H7.58495C7.5054 686.719 7.36052 687.118 7.15029 687.47C6.94006 687.822 6.6787 688.122 6.3662 688.369C6.0537 688.614 5.70285 688.8 5.31364 688.928C4.92728 689.055 4.51392 689.119 4.07358 689.119C3.32927 689.119 2.66733 688.938 2.08779 688.574C1.50824 688.21 1.05228 687.693 0.71989 687.023C0.387504 686.352 0.221311 685.557 0.221311 684.636C0.221311 683.716 0.387504 682.92 0.71989 682.25C1.05228 681.58 1.50824 681.062 2.08779 680.699C2.66733 680.335 3.32927 680.153 4.07358 680.153C4.51392 680.153 4.92728 680.217 5.31364 680.345C5.70285 680.473 6.0537 680.661 6.3662 680.908C6.6787 681.152 6.94006 681.45 7.15029 681.803C7.36052 682.152 7.5054 682.551 7.58495 683ZM12.6677 689V680.273H15.7188C16.3268 680.273 16.8282 680.378 17.2231 680.588C17.618 680.795 17.912 681.075 18.1052 681.428C18.2984 681.777 18.395 682.165 18.395 682.591C18.395 682.966 18.3282 683.276 18.1947 683.52C18.064 683.764 17.8907 683.957 17.6748 684.099C17.4617 684.241 17.2302 684.347 16.9802 684.415V684.5C17.2472 684.517 17.5157 684.611 17.7856 684.781C18.0555 684.952 18.2813 685.196 18.4631 685.514C18.645 685.832 18.7359 686.222 18.7359 686.682C18.7359 687.119 18.6364 687.513 18.4376 687.862C18.2387 688.212 17.9248 688.489 17.4958 688.693C17.0668 688.898 16.5086 689 15.8211 689H12.6677ZM13.7245 688.062H15.8211C16.5114 688.062 17.0015 687.929 17.2913 687.662C17.5839 687.392 17.7302 687.065 17.7302 686.682C17.7302 686.386 17.6549 686.114 17.5043 685.864C17.3538 685.611 17.1393 685.409 16.8609 685.259C16.5825 685.105 16.2529 685.028 15.8722 685.028H13.7245V688.062ZM13.7245 684.108H15.6847C16.0029 684.108 16.2898 684.045 16.5455 683.92C16.8041 683.795 17.0086 683.619 17.1592 683.392C17.3126 683.165 17.3893 682.898 17.3893 682.591C17.3893 682.207 17.2558 681.882 16.9887 681.615C16.7217 681.345 16.2984 681.21 15.7188 681.21H13.7245V684.108ZM24.461 686.324V682.455H25.4667V689H24.461V687.892H24.3928C24.2394 688.224 24.0008 688.507 23.6769 688.74C23.3531 688.97 22.944 689.085 22.4496 689.085C22.0406 689.085 21.6769 688.996 21.3587 688.817C21.0406 688.635 20.7906 688.362 20.6087 687.999C20.4269 687.632 20.336 687.17 20.336 686.614V682.455H21.3417V686.545C21.3417 687.023 21.4752 687.403 21.7423 687.688C22.0121 687.972 22.3559 688.114 22.7735 688.114C23.0235 688.114 23.2778 688.05 23.5363 687.922C23.7977 687.794 24.0164 687.598 24.1925 687.334C24.3715 687.07 24.461 686.733 24.461 686.324ZM31.945 683.92L31.0416 684.176C30.9848 684.026 30.901 683.879 30.7902 683.737C30.6822 683.592 30.5345 683.473 30.347 683.379C30.1595 683.286 29.9195 683.239 29.6269 683.239C29.2263 683.239 28.8925 683.331 28.6254 683.516C28.3612 683.697 28.2291 683.929 28.2291 684.21C28.2291 684.46 28.32 684.658 28.5019 684.803C28.6837 684.947 28.9678 685.068 29.3541 685.165L30.3257 685.403C30.9109 685.545 31.347 685.763 31.634 686.055C31.9209 686.345 32.0644 686.719 32.0644 687.176C32.0644 687.551 31.9564 687.886 31.7405 688.182C31.5274 688.477 31.2291 688.71 30.8456 688.881C30.4621 689.051 30.0161 689.136 29.5075 689.136C28.8399 689.136 28.2874 688.991 27.8499 688.702C27.4124 688.412 27.1354 687.989 27.0189 687.432L27.9734 687.193C28.0644 687.545 28.2362 687.81 28.4891 687.986C28.7447 688.162 29.0786 688.25 29.4905 688.25C29.9592 688.25 30.3314 688.151 30.607 687.952C30.8854 687.75 31.0246 687.509 31.0246 687.227C31.0246 687 30.945 686.81 30.7859 686.656C30.6269 686.5 30.3825 686.384 30.053 686.307L28.9621 686.051C28.3626 685.909 27.9223 685.689 27.6411 685.391C27.3626 685.089 27.2234 684.713 27.2234 684.261C27.2234 683.892 27.3271 683.565 27.5345 683.281C27.7447 682.997 28.0303 682.774 28.3911 682.612C28.7547 682.45 29.1666 682.369 29.6269 682.369C30.2746 682.369 30.7831 682.511 31.1524 682.795C31.5246 683.08 31.7888 683.455 31.945 683.92Z"
            fill="black" />
    </g>


    <g id="B Bus Arrow">
        <path id="Arrow 22"
            d="M371.646 676.646C371.451 676.842 371.451 677.158 371.646 677.354L374.828 680.536C375.024 680.731 375.34 680.731 375.536 680.536C375.731 680.34 375.731 680.024 375.536 679.828L372.707 677L375.536 674.172C375.731 673.976 375.731 673.66 375.536 673.464C375.34 673.269 375.024 673.269 374.828 673.464L371.646 676.646ZM452 676.5H372V677.5H452V676.5Z"
            fill="black" />
        <path id="B Bus"
            d="M455.057 680V671.273H458.108C458.716 671.273 459.217 671.378 459.612 671.588C460.007 671.795 460.301 672.075 460.494 672.428C460.688 672.777 460.784 673.165 460.784 673.591C460.784 673.966 460.717 674.276 460.584 674.52C460.453 674.764 460.28 674.957 460.064 675.099C459.851 675.241 459.619 675.347 459.369 675.415V675.5C459.636 675.517 459.905 675.611 460.175 675.781C460.445 675.952 460.67 676.196 460.852 676.514C461.034 676.832 461.125 677.222 461.125 677.682C461.125 678.119 461.026 678.513 460.827 678.862C460.628 679.212 460.314 679.489 459.885 679.693C459.456 679.898 458.898 680 458.21 680H455.057ZM456.114 679.062H458.21C458.901 679.062 459.391 678.929 459.68 678.662C459.973 678.392 460.119 678.065 460.119 677.682C460.119 677.386 460.044 677.114 459.893 676.864C459.743 676.611 459.528 676.409 459.25 676.259C458.972 676.105 458.642 676.028 458.261 676.028H456.114V679.062ZM456.114 675.108H458.074C458.392 675.108 458.679 675.045 458.935 674.92C459.193 674.795 459.398 674.619 459.548 674.392C459.702 674.165 459.778 673.898 459.778 673.591C459.778 673.207 459.645 672.882 459.378 672.615C459.111 672.345 458.688 672.21 458.108 672.21H456.114V675.108ZM466.237 680V671.273H469.288C469.896 671.273 470.397 671.378 470.792 671.588C471.187 671.795 471.481 672.075 471.674 672.428C471.867 672.777 471.964 673.165 471.964 673.591C471.964 673.966 471.897 674.276 471.763 674.52C471.633 674.764 471.46 674.957 471.244 675.099C471.031 675.241 470.799 675.347 470.549 675.415V675.5C470.816 675.517 471.085 675.611 471.354 675.781C471.624 675.952 471.85 676.196 472.032 676.514C472.214 676.832 472.305 677.222 472.305 677.682C472.305 678.119 472.205 678.513 472.006 678.862C471.808 679.212 471.494 679.489 471.065 679.693C470.636 679.898 470.077 680 469.39 680H466.237ZM467.293 679.062H469.39C470.08 679.062 470.57 678.929 470.86 678.662C471.153 678.392 471.299 678.065 471.299 677.682C471.299 677.386 471.224 677.114 471.073 676.864C470.923 676.611 470.708 676.409 470.43 676.259C470.151 676.105 469.822 676.028 469.441 676.028H467.293V679.062ZM467.293 675.108H469.254C469.572 675.108 469.859 675.045 470.114 674.92C470.373 674.795 470.577 674.619 470.728 674.392C470.881 674.165 470.958 673.898 470.958 673.591C470.958 673.207 470.825 672.882 470.558 672.615C470.29 672.345 469.867 672.21 469.288 672.21H467.293V675.108ZM478.03 677.324V673.455H479.036V680H478.03V678.892H477.962C477.808 679.224 477.57 679.507 477.246 679.74C476.922 679.97 476.513 680.085 476.018 680.085C475.609 680.085 475.246 679.996 474.928 679.817C474.609 679.635 474.359 679.362 474.178 678.999C473.996 678.632 473.905 678.17 473.905 677.614V673.455H474.911V677.545C474.911 678.023 475.044 678.403 475.311 678.688C475.581 678.972 475.925 679.114 476.342 679.114C476.592 679.114 476.847 679.05 477.105 678.922C477.366 678.794 477.585 678.598 477.761 678.334C477.94 678.07 478.03 677.733 478.03 677.324ZM485.514 674.92L484.61 675.176C484.554 675.026 484.47 674.879 484.359 674.737C484.251 674.592 484.103 674.473 483.916 674.379C483.728 674.286 483.488 674.239 483.196 674.239C482.795 674.239 482.461 674.331 482.194 674.516C481.93 674.697 481.798 674.929 481.798 675.21C481.798 675.46 481.889 675.658 482.071 675.803C482.252 675.947 482.537 676.068 482.923 676.165L483.895 676.403C484.48 676.545 484.916 676.763 485.203 677.055C485.49 677.345 485.633 677.719 485.633 678.176C485.633 678.551 485.525 678.886 485.309 679.182C485.096 679.477 484.798 679.71 484.414 679.881C484.031 680.051 483.585 680.136 483.076 680.136C482.409 680.136 481.856 679.991 481.419 679.702C480.981 679.412 480.704 678.989 480.588 678.432L481.542 678.193C481.633 678.545 481.805 678.81 482.058 678.986C482.314 679.162 482.647 679.25 483.059 679.25C483.528 679.25 483.9 679.151 484.176 678.952C484.454 678.75 484.593 678.509 484.593 678.227C484.593 678 484.514 677.81 484.355 677.656C484.196 677.5 483.951 677.384 483.622 677.307L482.531 677.051C481.931 676.909 481.491 676.689 481.21 676.391C480.931 676.089 480.792 675.713 480.792 675.261C480.792 674.892 480.896 674.565 481.103 674.281C481.314 673.997 481.599 673.774 481.96 673.612C482.324 673.45 482.735 673.369 483.196 673.369C483.843 673.369 484.352 673.511 484.721 673.795C485.093 674.08 485.358 674.455 485.514 674.92Z"
            fill="black" />
    </g>
    <g id="ALU 6 Arrow">
        <path id="Arrow 24" d="M252 768L242 762.226V773.774L252 768ZM202 769H243V767H202V769Z"
            fill="black" />
        <line id="Line 9" x1="230.318" y1="761.323" x2="218.445" y2="775.323" stroke="black" />
        <path id="6"
            d="M221.865 761.119C221.507 761.114 221.149 761.045 220.791 760.915C220.433 760.784 220.106 760.564 219.811 760.254C219.515 759.942 219.278 759.52 219.099 758.989C218.92 758.455 218.83 757.784 218.83 756.977C218.83 756.205 218.903 755.52 219.048 754.923C219.193 754.324 219.403 753.82 219.679 753.411C219.954 752.999 220.286 752.686 220.676 752.473C221.068 752.26 221.509 752.153 222.001 752.153C222.49 752.153 222.924 752.251 223.305 752.447C223.688 752.641 224.001 752.911 224.242 753.257C224.484 753.604 224.64 754.003 224.711 754.455H223.671C223.575 754.063 223.387 753.737 223.109 753.479C222.83 753.22 222.461 753.091 222.001 753.091C221.325 753.091 220.792 753.385 220.403 753.973C220.017 754.561 219.822 755.386 219.819 756.449H219.887C220.046 756.207 220.235 756.001 220.454 755.831C220.676 755.658 220.92 755.524 221.187 755.43C221.454 755.337 221.737 755.29 222.035 755.29C222.535 755.29 222.992 755.415 223.407 755.665C223.822 755.912 224.154 756.254 224.404 756.692C224.654 757.126 224.779 757.625 224.779 758.188C224.779 758.727 224.659 759.222 224.417 759.67C224.176 760.116 223.836 760.472 223.399 760.736C222.964 760.997 222.453 761.125 221.865 761.119ZM221.865 760.182C222.223 760.182 222.544 760.092 222.828 759.913C223.115 759.734 223.34 759.494 223.505 759.193C223.673 758.892 223.757 758.557 223.757 758.188C223.757 757.827 223.676 757.499 223.514 757.203C223.355 756.905 223.134 756.668 222.853 756.491C222.575 756.315 222.257 756.227 221.899 756.227C221.629 756.227 221.377 756.281 221.144 756.389C220.911 756.494 220.707 756.639 220.531 756.824C220.357 757.009 220.221 757.22 220.122 757.459C220.022 757.695 219.973 757.943 219.973 758.205C219.973 758.551 220.054 758.875 220.215 759.176C220.38 759.477 220.605 759.72 220.889 759.905C221.176 760.089 221.501 760.182 221.865 760.182Z"
            fill="black" />
    </g>
    <g id="ALU N Arrow">
        <path id="Arrow 19"
            d="M424 763.287L414 757.514V769.061L424 763.287ZM374 764.287H415V762.287H374V764.287Z"
            fill="black" />
        <path id="N"
            d="M431.977 757.273V766H430.955L426.199 759.148H426.114V766H425.057V757.273H426.08L430.852 764.142H430.938V757.273H431.977Z"
            fill="black" />
    </g>
    <g id="ALU Z Arrow">
        <path id="Arrow 20_26" d="M424 780L414 774.226V785.774L424 780ZM362 781H415V779H362V781Z"
            fill="black" />
        <path id="Z"
            d="M424.767 784.787V784.02L429.472 776.997H424.716V776.06H430.733V776.827L426.028 783.85H430.784V784.787H424.767Z"
            fill="black" />
    </g>
    <g id="Shifter Control Arrow">
        <g id="ALU 6 Arrow_2">
            <path id="Arrow 24_2" d="M371 868L381 873.774V862.226L371 868ZM421 867H380V869H421V867Z"
                fill="black" />
            <line id="Line 9_2" x1="392.682" y1="874.677" x2="404.555" y2="860.677" stroke="black" />
        </g>
        <path id="2"
            d="M398.574 884V883.233L401.455 880.08C401.793 879.71 402.072 879.389 402.29 879.116C402.509 878.841 402.671 878.582 402.776 878.341C402.884 878.097 402.938 877.841 402.938 877.574C402.938 877.267 402.864 877.001 402.716 876.777C402.572 876.553 402.373 876.379 402.12 876.257C401.867 876.135 401.583 876.074 401.268 876.074C400.932 876.074 400.64 876.143 400.39 876.283C400.143 876.419 399.951 876.611 399.814 876.858C399.681 877.105 399.614 877.395 399.614 877.727H398.608C398.608 877.216 398.726 876.767 398.962 876.381C399.198 875.994 399.519 875.693 399.925 875.477C400.334 875.261 400.793 875.153 401.302 875.153C401.813 875.153 402.266 875.261 402.661 875.477C403.056 875.693 403.366 875.984 403.59 876.351C403.814 876.717 403.927 877.125 403.927 877.574C403.927 877.895 403.868 878.209 403.752 878.516C403.638 878.82 403.439 879.159 403.155 879.534C402.874 879.906 402.483 880.361 401.983 880.898L400.023 882.994V883.062H404.08V884H398.574Z"
            fill="black" />
        <path id="Shifter control"
            d="M429.887 865.393C429.831 864.962 429.62 864.629 429.254 864.394C428.888 864.159 428.441 864.044 427.912 864.05C427.526 864.054 427.188 864.12 426.9 864.248C426.614 864.376 426.392 864.55 426.232 864.771C426.075 864.991 425.998 865.241 426.001 865.519C426.004 865.752 426.061 865.952 426.174 866.118C426.289 866.282 426.436 866.418 426.613 866.527C426.79 866.633 426.976 866.72 427.17 866.789C427.364 866.856 427.542 866.909 427.704 866.95L428.593 867.179C428.821 867.237 429.074 867.316 429.354 867.418C429.636 867.521 429.906 867.661 430.164 867.84C430.424 868.017 430.64 868.244 430.81 868.524C430.981 868.803 431.068 869.148 431.073 869.557C431.078 870.028 430.958 870.456 430.715 870.839C430.475 871.222 430.12 871.529 429.651 871.758C429.185 871.987 428.616 872.105 427.946 872.113C427.321 872.119 426.779 872.024 426.319 871.827C425.863 871.63 425.502 871.353 425.237 870.995C424.974 870.637 424.824 870.219 424.784 869.742L425.875 869.731C425.907 870.06 426.021 870.332 426.216 870.545C426.415 870.756 426.663 870.913 426.963 871.015C427.265 871.114 427.589 871.162 427.936 871.158C428.339 871.154 428.701 871.085 429.02 870.951C429.34 870.814 429.592 870.626 429.777 870.389C429.962 870.148 430.053 869.869 430.05 869.55C430.047 869.261 429.963 869.026 429.799 868.846C429.636 868.666 429.421 868.52 429.156 868.409C428.89 868.298 428.604 868.202 428.296 868.12L427.219 867.824C426.535 867.636 425.992 867.362 425.591 867.002C425.189 866.643 424.985 866.169 424.979 865.581C424.974 865.092 425.102 864.665 425.362 864.298C425.625 863.929 425.98 863.641 426.427 863.435C426.876 863.226 427.38 863.118 427.936 863.112C428.499 863.106 429 863.202 429.439 863.399C429.879 863.593 430.229 863.862 430.488 864.206C430.75 864.55 430.89 864.942 430.909 865.382L429.887 865.393ZM433.663 867.961L433.704 871.898L432.699 871.909L432.607 863.182L433.612 863.172L433.646 866.376L433.731 866.375C433.881 866.036 434.108 865.765 434.413 865.563C434.721 865.358 435.132 865.252 435.646 865.247C436.092 865.242 436.483 865.328 436.82 865.503C437.157 865.676 437.42 865.944 437.609 866.309C437.8 866.67 437.899 867.132 437.905 867.695L437.948 871.854L436.943 871.864L436.9 867.774C436.894 867.254 436.755 866.853 436.482 866.572C436.212 866.288 435.84 866.148 435.365 866.153C435.036 866.157 434.741 866.23 434.481 866.372C434.224 866.513 434.022 866.719 433.874 866.987C433.729 867.256 433.659 867.581 433.663 867.961ZM439.788 871.834L439.719 865.289L440.725 865.279L440.794 871.824L439.788 871.834ZM440.219 864.193C440.023 864.195 439.853 864.13 439.71 863.998C439.569 863.866 439.498 863.706 439.496 863.519C439.494 863.331 439.562 863.17 439.7 863.035C439.84 862.9 440.009 862.832 440.205 862.83C440.401 862.827 440.569 862.892 440.71 863.025C440.853 863.157 440.926 863.316 440.928 863.504C440.93 863.691 440.86 863.853 440.72 863.988C440.582 864.123 440.415 864.191 440.219 864.193ZM445.481 865.229L445.49 866.081L441.962 866.118L441.953 865.266L445.481 865.229ZM443.079 871.8L443 864.351C442.996 863.976 443.081 863.663 443.255 863.411C443.428 863.159 443.655 862.969 443.935 862.841C444.215 862.713 444.511 862.648 444.823 862.645C445.071 862.642 445.272 862.66 445.429 862.698C445.586 862.736 445.703 862.772 445.78 862.805L445.499 863.677C445.448 863.661 445.377 863.64 445.285 863.616C445.197 863.591 445.08 863.579 444.936 863.581C444.603 863.584 444.364 863.671 444.218 863.84C444.075 864.009 444.005 864.256 444.008 864.579L444.084 871.789L443.079 871.8ZM449.737 865.184L449.746 866.036L446.354 866.072L446.345 865.22L449.737 865.184ZM447.317 863.641L448.323 863.63L448.389 869.869C448.392 870.153 448.435 870.365 448.519 870.507C448.606 870.645 448.715 870.738 448.846 870.784C448.98 870.829 449.121 870.85 449.268 870.848C449.379 870.847 449.47 870.84 449.541 870.828C449.612 870.813 449.668 870.801 449.711 870.792L449.925 871.694C449.857 871.72 449.762 871.746 449.64 871.773C449.518 871.803 449.364 871.819 449.176 871.821C448.892 871.824 448.613 871.766 448.339 871.646C448.068 871.527 447.842 871.343 447.66 871.095C447.481 870.847 447.39 870.533 447.386 870.152L447.317 863.641ZM453.994 871.821C453.363 871.828 452.818 871.694 452.358 871.421C451.9 871.144 451.545 870.756 451.293 870.256C451.043 869.753 450.915 869.166 450.908 868.496C450.901 867.825 451.017 867.233 451.255 866.719C451.497 866.202 451.837 865.798 452.274 865.507C452.714 865.212 453.23 865.062 453.821 865.056C454.161 865.052 454.499 865.105 454.832 865.215C455.166 865.326 455.47 865.507 455.746 865.76C456.021 866.01 456.242 866.343 456.408 866.759C456.575 867.174 456.661 867.688 456.667 868.299L456.672 868.725L451.627 868.778L451.617 867.909L455.64 867.866C455.636 867.497 455.559 867.168 455.408 866.88C455.26 866.592 455.05 866.365 454.779 866.2C454.51 866.036 454.194 865.955 453.83 865.959C453.429 865.963 453.084 866.066 452.793 866.268C452.506 866.467 452.285 866.725 452.133 867.042C451.98 867.359 451.905 867.698 451.909 868.059L451.915 868.638C451.92 869.133 452.01 869.551 452.184 869.893C452.361 870.232 452.603 870.489 452.912 870.665C453.221 870.838 453.578 870.922 453.985 870.918C454.249 870.915 454.487 870.876 454.699 870.8C454.914 870.721 455.099 870.605 455.254 870.453C455.408 870.298 455.527 870.106 455.61 869.878L456.584 870.14C456.486 870.471 456.317 870.763 456.078 871.015C455.839 871.265 455.543 871.461 455.189 871.604C454.836 871.744 454.437 871.817 453.994 871.821ZM458.232 871.64L458.163 865.095L459.135 865.085L459.145 866.073L459.214 866.073C459.33 865.748 459.543 865.483 459.853 865.278C460.163 865.073 460.515 864.968 460.907 864.964C460.98 864.963 461.073 864.964 461.184 864.965C461.294 864.967 461.378 864.97 461.435 864.975L461.446 865.998C461.412 865.99 461.333 865.978 461.211 865.962C461.092 865.944 460.965 865.935 460.832 865.936C460.513 865.94 460.23 866.01 459.981 866.146C459.736 866.279 459.542 866.463 459.399 866.697C459.26 866.929 459.191 867.192 459.194 867.488L459.238 871.63L458.232 871.64ZM468.732 871.666C468.119 871.673 467.589 871.533 467.142 871.248C466.696 870.963 466.351 870.567 466.107 870.061C465.863 869.556 465.738 868.976 465.731 868.322C465.724 867.658 465.84 867.07 466.079 866.559C466.321 866.045 466.66 865.642 467.097 865.351C467.538 865.056 468.053 864.906 468.644 864.9C469.104 864.895 469.52 864.976 469.891 865.142C470.262 865.309 470.567 865.544 470.806 865.848C471.045 866.153 471.195 866.509 471.256 866.918L470.251 866.928C470.171 866.631 469.998 866.368 469.731 866.141C469.467 865.911 469.114 865.798 468.67 865.803C468.278 865.807 467.936 865.913 467.642 866.12C467.352 866.325 467.126 866.613 466.965 866.984C466.807 867.352 466.731 867.783 466.736 868.278C466.742 868.783 466.826 869.223 466.989 869.596C467.155 869.969 467.385 870.258 467.68 870.463C467.977 870.667 468.325 870.767 468.723 870.763C468.984 870.76 469.221 870.712 469.433 870.619C469.645 870.526 469.824 870.393 469.97 870.221C470.116 870.049 470.219 869.843 470.279 869.604L471.284 869.594C471.232 869.981 471.095 870.33 470.874 870.642C470.655 870.951 470.364 871.199 469.999 871.384C469.637 871.567 469.215 871.661 468.732 871.666ZM475.435 871.595C474.844 871.602 474.324 871.467 473.875 871.19C473.429 870.913 473.078 870.524 472.823 870.021C472.571 869.518 472.441 868.928 472.434 868.252C472.426 867.57 472.544 866.974 472.786 866.463C473.03 865.951 473.373 865.553 473.813 865.267C474.256 864.981 474.773 864.835 475.364 864.829C475.955 864.823 476.473 864.958 476.919 865.234C477.368 865.511 477.719 865.902 477.971 866.408C478.227 866.914 478.358 867.508 478.365 868.189C478.372 868.866 478.254 869.458 478.009 869.966C477.767 870.474 477.425 870.871 476.982 871.157C476.541 871.443 476.026 871.589 475.435 871.595ZM475.425 870.692C475.874 870.687 476.242 870.568 476.53 870.335C476.817 870.102 477.028 869.797 477.164 869.421C477.299 869.044 477.364 868.637 477.36 868.2C477.355 867.763 477.281 867.356 477.138 866.979C476.995 866.603 476.777 866.3 476.485 866.07C476.193 865.84 475.822 865.727 475.373 865.732C474.924 865.737 474.556 865.857 474.269 866.093C473.982 866.329 473.77 866.637 473.635 867.016C473.5 867.395 473.435 867.804 473.439 868.241C473.444 868.679 473.518 869.084 473.661 869.458C473.804 869.831 474.022 870.132 474.314 870.359C474.606 870.586 474.977 870.697 475.425 870.692ZM480.898 867.464L480.94 871.401L479.934 871.412L479.865 864.867L480.837 864.856L480.848 865.879L480.933 865.878C481.083 865.544 481.313 865.275 481.623 865.07C481.934 864.862 482.336 864.755 482.83 864.75C483.273 864.746 483.662 864.832 483.996 865.011C484.331 865.186 484.592 865.456 484.781 865.821C484.969 866.182 485.066 866.642 485.072 867.198L485.116 871.357L484.11 871.368L484.067 867.277C484.062 866.763 483.924 866.364 483.654 866.08C483.384 865.793 483.016 865.652 482.55 865.657C482.229 865.66 481.943 865.733 481.691 865.874C481.443 866.016 481.248 866.221 481.106 866.49C480.964 866.759 480.894 867.083 480.898 867.464ZM489.731 864.763L489.74 865.615L486.348 865.651L486.339 864.798L489.731 864.763ZM487.311 863.22L488.317 863.209L488.383 869.448C488.386 869.732 488.429 869.944 488.513 870.086C488.6 870.224 488.708 870.316 488.84 870.363C488.974 870.407 489.114 870.429 489.262 870.427C489.373 870.426 489.464 870.419 489.535 870.407C489.606 870.392 489.662 870.38 489.705 870.371L489.919 871.273C489.851 871.299 489.756 871.325 489.634 871.352C489.512 871.382 489.358 871.398 489.17 871.4C488.886 871.403 488.607 871.345 488.333 871.225C488.062 871.106 487.836 870.922 487.654 870.674C487.475 870.426 487.384 870.112 487.38 869.731L487.311 863.22ZM491.313 871.292L491.244 864.747L492.215 864.737L492.226 865.725L492.294 865.724C492.41 865.399 492.623 865.134 492.933 864.929C493.244 864.724 493.595 864.62 493.987 864.616C494.061 864.615 494.153 864.615 494.264 864.617C494.375 864.619 494.458 864.622 494.515 864.627L494.526 865.65C494.492 865.642 494.414 865.63 494.291 865.614C494.172 865.595 494.045 865.587 493.912 865.588C493.594 865.591 493.31 865.661 493.062 865.797C492.816 865.931 492.622 866.114 492.479 866.349C492.34 866.581 492.272 866.844 492.275 867.14L492.318 871.281L491.313 871.292ZM498.238 871.355C497.647 871.362 497.128 871.226 496.679 870.95C496.232 870.673 495.882 870.284 495.626 869.781C495.374 869.277 495.244 868.688 495.237 868.012C495.23 867.33 495.347 866.734 495.589 866.222C495.834 865.711 496.176 865.313 496.616 865.027C497.059 864.741 497.576 864.595 498.167 864.589C498.758 864.582 499.276 864.718 499.723 864.994C500.172 865.271 500.522 865.662 500.775 866.168C501.03 866.674 501.161 867.268 501.169 867.949C501.176 868.625 501.057 869.218 500.812 869.726C500.57 870.234 500.228 870.631 499.785 870.917C499.345 871.203 498.829 871.349 498.238 871.355ZM498.229 870.452C498.678 870.447 499.046 870.328 499.333 870.095C499.62 869.862 499.832 869.557 499.967 869.181C500.102 868.804 500.168 868.397 500.163 867.96C500.158 867.522 500.084 867.116 499.941 866.739C499.798 866.363 499.58 866.06 499.288 865.83C498.996 865.6 498.625 865.487 498.177 865.492C497.728 865.497 497.36 865.617 497.072 865.853C496.785 866.089 496.574 866.397 496.439 866.776C496.303 867.155 496.238 867.564 496.243 868.001C496.247 868.439 496.321 868.844 496.464 869.218C496.607 869.591 496.825 869.891 497.117 870.119C497.41 870.346 497.78 870.457 498.229 870.452ZM503.651 862.434L503.743 871.161L502.738 871.172L502.646 862.445L503.651 862.434Z"
            fill="black" />
    </g>
    <defs>
        <filter id="filter0_b_0_1" x="234.009" y="711" width="31.094" height="28"
            filterUnits="userSpaceOnUse"
            color-interpolation-filters="sRGB">
            <feFlood flood-opacity="0" result="BackgroundImageFix" />
            <feGaussianBlur in="BackgroundImageFix" stdDeviation="2" />
            <feComposite in2="SourceAlpha" operator="in" result="effect1_backgroundBlur_0_1" />
            <feBlend mode="normal" in="SourceGraphic" in2="effect1_backgroundBlur_0_1"
                result="shape" />
        </filter>
        <filter id="filter1_b_0_1" x="338.309" y="69.6752" width="28" height="31.094"
            filterUnits="userSpaceOnUse"
            color-interpolation-filters="sRGB">
            <feFlood flood-opacity="0" result="BackgroundImageFix" />
            <feGaussianBlur in="BackgroundImageFix" stdDeviation="2" />
            <feComposite in2="SourceAlpha" operator="in" result="effect1_backgroundBlur_0_1" />
            <feBlend mode="normal" in="SourceGraphic" in2="effect1_backgroundBlur_0_1"
                result="shape" />
        </filter>
        <filter id="filter2_b_0_1" x="338.309" y="139.675" width="28" height="31.094"
            filterUnits="userSpaceOnUse"
            color-interpolation-filters="sRGB">
            <feFlood flood-opacity="0" result="BackgroundImageFix" />
            <feGaussianBlur in="BackgroundImageFix" stdDeviation="2" />
            <feComposite in2="SourceAlpha" operator="in" result="effect1_backgroundBlur_0_1" />
            <feBlend mode="normal" in="SourceGraphic" in2="effect1_backgroundBlur_0_1"
                result="shape" />
        </filter>
        <filter id="filter3_b_0_1" x="338.309" y="211.675" width="28" height="31.094"
            filterUnits="userSpaceOnUse"
            color-interpolation-filters="sRGB">
            <feFlood flood-opacity="0" result="BackgroundImageFix" />
            <feGaussianBlur in="BackgroundImageFix" stdDeviation="2" />
            <feComposite in2="SourceAlpha" operator="in" result="effect1_backgroundBlur_0_1" />
            <feBlend mode="normal" in="SourceGraphic" in2="effect1_backgroundBlur_0_1"
                result="shape" />
        </filter>
        <filter id="filter4_b_0_1" x="338.309" y="222.675" width="28" height="31.094"
            filterUnits="userSpaceOnUse"
            color-interpolation-filters="sRGB">
            <feFlood flood-opacity="0" result="BackgroundImageFix" />
            <feGaussianBlur in="BackgroundImageFix" stdDeviation="2" />
            <feComposite in2="SourceAlpha" operator="in" result="effect1_backgroundBlur_0_1" />
            <feBlend mode="normal" in="SourceGraphic" in2="effect1_backgroundBlur_0_1"
                result="shape" />
        </filter>
        <filter id="filter5_b_0_1" x="338.309" y="284.048" width="28" height="31.094"
            filterUnits="userSpaceOnUse"
            color-interpolation-filters="sRGB">
            <feFlood flood-opacity="0" result="BackgroundImageFix" />
            <feGaussianBlur in="BackgroundImageFix" stdDeviation="2" />
            <feComposite in2="SourceAlpha" operator="in" result="effect1_backgroundBlur_0_1" />
            <feBlend mode="normal" in="SourceGraphic" in2="effect1_backgroundBlur_0_1"
                result="shape" />
        </filter>
        <filter id="filter6_b_0_1" x="339.22" y="353.675" width="28" height="31.094"
            filterUnits="userSpaceOnUse"
            color-interpolation-filters="sRGB">
            <feFlood flood-opacity="0" result="BackgroundImageFix" />
            <feGaussianBlur in="BackgroundImageFix" stdDeviation="2" />
            <feComposite in2="SourceAlpha" operator="in" result="effect1_backgroundBlur_0_1" />
            <feBlend mode="normal" in="SourceGraphic" in2="effect1_backgroundBlur_0_1"
                result="shape" />
        </filter>
        <filter id="filter7_b_0_1" x="338.309" y="425.675" width="28" height="31.094"
            filterUnits="userSpaceOnUse"
            color-interpolation-filters="sRGB">
            <feFlood flood-opacity="0" result="BackgroundImageFix" />
            <feGaussianBlur in="BackgroundImageFix" stdDeviation="2" />
            <feComposite in2="SourceAlpha" operator="in" result="effect1_backgroundBlur_0_1" />
            <feBlend mode="normal" in="SourceGraphic" in2="effect1_backgroundBlur_0_1"
                result="shape" />
        </filter>
        <filter id="filter8_b_0_1" x="339.22" y="495.675" width="28" height="31.094"
            filterUnits="userSpaceOnUse"
            color-interpolation-filters="sRGB">
            <feFlood flood-opacity="0" result="BackgroundImageFix" />
            <feGaussianBlur in="BackgroundImageFix" stdDeviation="2" />
            <feComposite in2="SourceAlpha" operator="in" result="effect1_backgroundBlur_0_1" />
            <feBlend mode="normal" in="SourceGraphic" in2="effect1_backgroundBlur_0_1"
                result="shape" />
        </filter>
        <filter id="filter9_b_0_1" x="340.13" y="566.675" width="28" height="31.094"
            filterUnits="userSpaceOnUse"
            color-interpolation-filters="sRGB">
            <feFlood flood-opacity="0" result="BackgroundImageFix" />
            <feGaussianBlur in="BackgroundImageFix" stdDeviation="2" />
            <feComposite in2="SourceAlpha" operator="in" result="effect1_backgroundBlur_0_1" />
            <feBlend mode="normal" in="SourceGraphic" in2="effect1_backgroundBlur_0_1"
                result="shape" />
        </filter>
        <filter id="filter10_b_0_1" x="72" y="9.8974" width="28" height="31.094"
            filterUnits="userSpaceOnUse"
            color-interpolation-filters="sRGB">
            <feFlood flood-opacity="0" result="BackgroundImageFix" />
            <feGaussianBlur in="BackgroundImageFix" stdDeviation="2" />
            <feComposite in2="SourceAlpha" operator="in" result="effect1_backgroundBlur_0_1" />
            <feBlend mode="normal" in="SourceGraphic" in2="effect1_backgroundBlur_0_1"
                result="shape" />
        </filter>
        <filter id="filter11_b_0_1" x="72.2439" y="150.897" width="28" height="31.094"
            filterUnits="userSpaceOnUse"
            color-interpolation-filters="sRGB">
            <feFlood flood-opacity="0" result="BackgroundImageFix" />
            <feGaussianBlur in="BackgroundImageFix" stdDeviation="2" />
            <feComposite in2="SourceAlpha" operator="in" result="effect1_backgroundBlur_0_1" />
            <feBlend mode="normal" in="SourceGraphic" in2="effect1_backgroundBlur_0_1"
                result="shape" />
        </filter>
        <filter id="filter12_b_0_1" x="154.756" y="220.009" width="28" height="31.094"
            filterUnits="userSpaceOnUse"
            color-interpolation-filters="sRGB">
            <feFlood flood-opacity="0" result="BackgroundImageFix" />
            <feGaussianBlur in="BackgroundImageFix" stdDeviation="2" />
            <feComposite in2="SourceAlpha" operator="in" result="effect1_backgroundBlur_0_1" />
            <feBlend mode="normal" in="SourceGraphic" in2="effect1_backgroundBlur_0_1"
                result="shape" />
        </filter>
        <filter id="filter13_b_0_1" x="158.866" y="84.453" width="28" height="31.094"
            filterUnits="userSpaceOnUse"
            color-interpolation-filters="sRGB">
            <feFlood flood-opacity="0" result="BackgroundImageFix" />
            <feGaussianBlur in="BackgroundImageFix" stdDeviation="2" />
            <feComposite in2="SourceAlpha" operator="in" result="effect1_backgroundBlur_0_1" />
            <feBlend mode="normal" in="SourceGraphic" in2="effect1_backgroundBlur_0_1"
                result="shape" />
        </filter>
        <filter id="filter14_b_0_1" x="72" y="84.453" width="28" height="31.094"
            filterUnits="userSpaceOnUse"
            color-interpolation-filters="sRGB">
            <feFlood flood-opacity="0" result="BackgroundImageFix" />
            <feGaussianBlur in="BackgroundImageFix" stdDeviation="2" />
            <feComposite in2="SourceAlpha" operator="in" result="effect1_backgroundBlur_0_1" />
            <feBlend mode="normal" in="SourceGraphic" in2="effect1_backgroundBlur_0_1"
                result="shape" />
        </filter>
        <filter id="filter15_b_0_1" x="155.546" y="64.6752" width="28" height="31.094"
            filterUnits="userSpaceOnUse"
            color-interpolation-filters="sRGB">
            <feFlood flood-opacity="0" result="BackgroundImageFix" />
            <feGaussianBlur in="BackgroundImageFix" stdDeviation="2" />
            <feComposite in2="SourceAlpha" operator="in" result="effect1_backgroundBlur_0_1" />
            <feBlend mode="normal" in="SourceGraphic" in2="effect1_backgroundBlur_0_1"
                result="shape" />
        </filter>
        <filter id="filter16_b_0_1" x="155.364" y="-0.324768" width="28" height="31.094"
            filterUnits="userSpaceOnUse"
            color-interpolation-filters="sRGB">
            <feFlood flood-opacity="0" result="BackgroundImageFix" />
            <feGaussianBlur in="BackgroundImageFix" stdDeviation="2" />
            <feComposite in2="SourceAlpha" operator="in" result="effect1_backgroundBlur_0_1" />
            <feBlend mode="normal" in="SourceGraphic" in2="effect1_backgroundBlur_0_1"
                result="shape" />
        </filter>
        <filter id="filter17_b_0_1" x="155.546" y="139.675" width="28" height="31.094"
            filterUnits="userSpaceOnUse"
            color-interpolation-filters="sRGB">
            <feFlood flood-opacity="0" result="BackgroundImageFix" />
            <feGaussianBlur in="BackgroundImageFix" stdDeviation="2" />
            <feComposite in2="SourceAlpha" operator="in" result="effect1_backgroundBlur_0_1" />
            <feBlend mode="normal" in="SourceGraphic" in2="effect1_backgroundBlur_0_1"
                result="shape" />
        </filter>
        <filter id="filter18_b_0_1" x="155.546" y="285.675" width="28" height="31.094"
            filterUnits="userSpaceOnUse"
            color-interpolation-filters="sRGB">
            <feFlood flood-opacity="0" result="BackgroundImageFix" />
            <feGaussianBlur in="BackgroundImageFix" stdDeviation="2" />
            <feComposite in2="SourceAlpha" operator="in" result="effect1_backgroundBlur_0_1" />
            <feBlend mode="normal" in="SourceGraphic" in2="effect1_backgroundBlur_0_1"
                result="shape" />
        </filter>
        <filter id="filter19_b_0_1" x="154.545" y="360.675" width="28" height="31.094"
            filterUnits="userSpaceOnUse"
            color-interpolation-filters="sRGB">
            <feFlood flood-opacity="0" result="BackgroundImageFix" />
            <feGaussianBlur in="BackgroundImageFix" stdDeviation="2" />
            <feComposite in2="SourceAlpha" operator="in" result="effect1_backgroundBlur_0_1" />
            <feBlend mode="normal" in="SourceGraphic" in2="effect1_backgroundBlur_0_1"
                result="shape" />
        </filter>
        <filter id="filter20_b_0_1" x="155.545" y="497.675" width="28" height="31.094"
            filterUnits="userSpaceOnUse"
            color-interpolation-filters="sRGB">
            <feFlood flood-opacity="0" result="BackgroundImageFix" />
            <feGaussianBlur in="BackgroundImageFix" stdDeviation="2" />
            <feComposite in2="SourceAlpha" operator="in" result="effect1_backgroundBlur_0_1" />
            <feBlend mode="normal" in="SourceGraphic" in2="effect1_backgroundBlur_0_1"
                result="shape" />
        </filter>
        <filter id="filter21_b_0_1" x="154.546" y="425.675" width="28" height="31.094"
            filterUnits="userSpaceOnUse"
            color-interpolation-filters="sRGB">
            <feFlood flood-opacity="0" result="BackgroundImageFix" />
            <feGaussianBlur in="BackgroundImageFix" stdDeviation="2" />
            <feComposite in2="SourceAlpha" operator="in" result="effect1_backgroundBlur_0_1" />
            <feBlend mode="normal" in="SourceGraphic" in2="effect1_backgroundBlur_0_1"
                result="shape" />
        </filter>
        <filter id="filter22_b_0_1" x="155.545" y="565.675" width="28" height="31.094"
            filterUnits="userSpaceOnUse"
            color-interpolation-filters="sRGB">
            <feFlood flood-opacity="0" result="BackgroundImageFix" />
            <feGaussianBlur in="BackgroundImageFix" stdDeviation="2" />
            <feComposite in2="SourceAlpha" operator="in" result="effect1_backgroundBlur_0_1" />
            <feBlend mode="normal" in="SourceGraphic" in2="effect1_backgroundBlur_0_1"
                result="shape" />
        </filter>
        <filter id="filter23_b_0_1" x="155.545" y="641.675" width="28" height="31.094"
            filterUnits="userSpaceOnUse"
            color-interpolation-filters="sRGB">
            <feFlood flood-opacity="0" result="BackgroundImageFix" />
            <feGaussianBlur in="BackgroundImageFix" stdDeviation="2" />
            <feComposite in2="SourceAlpha" operator="in" result="effect1_backgroundBlur_0_1" />
            <feBlend mode="normal" in="SourceGraphic" in2="effect1_backgroundBlur_0_1"
                result="shape" />
        </filter>
        <filter id="filter24_b_0_1" x="298.231" y="824" width="31.094" height="28"
            filterUnits="userSpaceOnUse"
            color-interpolation-filters="sRGB">
            <feFlood flood-opacity="0" result="BackgroundImageFix" />
            <feGaussianBlur in="BackgroundImageFix" stdDeviation="2" />
            <feComposite in2="SourceAlpha" operator="in" result="effect1_backgroundBlur_0_1" />
            <feBlend mode="normal" in="SourceGraphic" in2="effect1_backgroundBlur_0_1"
                result="shape" />
        </filter>
        <filter id="filter25_b_0_1" x="347.898" y="591" width="31.0934" height="152"
            filterUnits="userSpaceOnUse"
            color-interpolation-filters="sRGB">
            <feFlood flood-opacity="0" result="BackgroundImageFix" />
            <feGaussianBlur in="BackgroundImageFix" stdDeviation="2" />
            <feComposite in2="SourceAlpha" operator="in" result="effect1_backgroundBlur_0_1" />
            <feBlend mode="normal" in="SourceGraphic" in2="effect1_backgroundBlur_0_1"
                result="shape" />
        </filter>
    </defs>
</svg>