<svg width="504" height="887" viewBox="0 0 504 887" fill="none" xmlns="http://www.w3.org/2000/svg">
    <g id="MAR">
        <g id="Rectangle 1">
            <rect id="Rectangle 1_2" x="180" y="1" width="106" height="36" fill="#D9D9D9" stroke="black"
                stroke-width="2" />
        </g>
        <path id="MAR_2"
            d="M221.057 14.2727H222.318L225.284 21.517H225.386L228.352 14.2727H229.614V23H228.625V16.3693H228.54L225.812 23H224.858L222.131 16.3693H222.045V23H221.057V14.2727ZM232.091 23H230.983L234.187 14.2727H235.278L238.483 23H237.375L234.767 15.6534H234.699L232.091 23ZM232.5 19.5909H236.966V20.5284H232.5V19.5909ZM239.842 23V14.2727H242.791C243.473 14.2727 244.032 14.3892 244.47 14.6222C244.907 14.8523 245.231 15.169 245.441 15.5724C245.652 15.9759 245.757 16.4347 245.757 16.9489C245.757 17.4631 245.652 17.919 245.441 18.3168C245.231 18.7145 244.909 19.027 244.474 19.2543C244.039 19.4787 243.484 19.5909 242.808 19.5909H240.422V18.6364H242.774C243.24 18.6364 243.615 18.5682 243.899 18.4318C244.186 18.2955 244.393 18.1023 244.521 17.8523C244.652 17.5994 244.717 17.2983 244.717 16.9489C244.717 16.5994 244.652 16.294 244.521 16.0327C244.39 15.7713 244.181 15.5696 243.895 15.4276C243.608 15.2827 243.228 15.2102 242.757 15.2102H240.899V23H239.842ZM243.95 19.0795L246.098 23H244.87L242.757 19.0795H243.95Z"
            fill="black" />
    </g>
    <g id="MDR">
        <rect id="Rectangle 2" x="180" y="72" width="106" height="36" fill="#D9D9D9" stroke="black" stroke-width="2" />
        <path id="MDR_2"
            d="M218.057 86.2727H219.318L222.284 93.517H222.386L225.352 86.2727H226.614V95H225.625V88.3693H225.54L222.812 95H221.858L219.131 88.3693H219.045V95H218.057V86.2727ZM231.426 95H228.733V86.2727H231.545C232.392 86.2727 233.116 86.4474 233.718 86.7969C234.321 87.1435 234.782 87.642 235.103 88.2926C235.424 88.9403 235.585 89.7159 235.585 90.6193C235.585 91.5284 235.423 92.3111 235.099 92.9673C234.775 93.6207 234.304 94.1236 233.684 94.4759C233.065 94.8253 232.312 95 231.426 95ZM229.789 94.0625H231.358C232.079 94.0625 232.677 93.9233 233.152 93.6449C233.626 93.3665 233.98 92.9702 234.213 92.456C234.446 91.9418 234.562 91.3295 234.562 90.6193C234.562 89.9148 234.447 89.3082 234.217 88.7997C233.987 88.2884 233.643 87.8963 233.186 87.6236C232.728 87.348 232.159 87.2102 231.477 87.2102H229.789V94.0625ZM237.358 95V86.2727H240.306C240.988 86.2727 241.548 86.3892 241.985 86.6222C242.423 86.8523 242.747 87.169 242.957 87.5724C243.167 87.9759 243.272 88.4347 243.272 88.9489C243.272 89.4631 243.167 89.919 242.957 90.3168C242.747 90.7145 242.424 91.027 241.99 91.2543C241.555 91.4787 241 91.5909 240.324 91.5909H237.937V90.6364H240.289C240.755 90.6364 241.13 90.5682 241.414 90.4318C241.701 90.2955 241.909 90.1023 242.037 89.8523C242.167 89.5994 242.233 89.2983 242.233 88.9489C242.233 88.5994 242.167 88.294 242.037 88.0327C241.906 87.7713 241.697 87.5696 241.41 87.4276C241.123 87.2827 240.744 87.2102 240.272 87.2102H238.414V95H237.358ZM241.466 91.0795L243.613 95H242.386L240.272 91.0795H241.466Z"
            fill="black" />
    </g>
    <g id="PC">
        <rect id="Rectangle 11" x="180" y="143" width="106" height="36" fill="#D9D9D9" stroke="black"
            stroke-width="2" />
        <path id="PC_2"
            d="M224.057 167V158.273H227.006C227.69 158.273 228.25 158.396 228.685 158.643C229.122 158.888 229.446 159.219 229.656 159.636C229.866 160.054 229.972 160.52 229.972 161.034C229.972 161.548 229.866 162.016 229.656 162.436C229.449 162.857 229.128 163.192 228.693 163.442C228.259 163.689 227.702 163.812 227.023 163.812H224.909V162.875H226.989C227.457 162.875 227.834 162.794 228.118 162.632C228.402 162.47 228.608 162.251 228.736 161.976C228.866 161.697 228.932 161.384 228.932 161.034C228.932 160.685 228.866 160.372 228.736 160.097C228.608 159.821 228.401 159.605 228.114 159.449C227.827 159.29 227.446 159.21 226.972 159.21H225.114V167H224.057ZM238.697 161H237.64C237.577 160.696 237.468 160.429 237.312 160.199C237.158 159.969 236.971 159.776 236.749 159.619C236.531 159.46 236.288 159.341 236.021 159.261C235.754 159.182 235.475 159.142 235.185 159.142C234.657 159.142 234.178 159.276 233.749 159.543C233.323 159.81 232.984 160.203 232.731 160.723C232.481 161.243 232.356 161.881 232.356 162.636C232.356 163.392 232.481 164.03 232.731 164.55C232.984 165.07 233.323 165.463 233.749 165.73C234.178 165.997 234.657 166.131 235.185 166.131C235.475 166.131 235.754 166.091 236.021 166.011C236.288 165.932 236.531 165.814 236.749 165.658C236.971 165.499 237.158 165.304 237.312 165.074C237.468 164.841 237.577 164.574 237.64 164.273H238.697C238.617 164.719 238.472 165.118 238.262 165.47C238.052 165.822 237.79 166.122 237.478 166.369C237.165 166.614 236.815 166.8 236.425 166.928C236.039 167.055 235.626 167.119 235.185 167.119C234.441 167.119 233.779 166.938 233.2 166.574C232.62 166.21 232.164 165.693 231.832 165.023C231.499 164.352 231.333 163.557 231.333 162.636C231.333 161.716 231.499 160.92 231.832 160.25C232.164 159.58 232.62 159.062 233.2 158.699C233.779 158.335 234.441 158.153 235.185 158.153C235.626 158.153 236.039 158.217 236.425 158.345C236.815 158.473 237.165 158.661 237.478 158.908C237.79 159.152 238.052 159.45 238.262 159.803C238.472 160.152 238.617 160.551 238.697 161Z"
            fill="black" />
    </g>
    <g id="MBR">
        <rect id="Rectangle 12" x="243" y="214" width="38" height="36" fill="#D9D9D9" stroke="black" stroke-width="2" />
        <rect id="Rectangle 4" x="180" y="214" width="61" height="36" fill="#D9D9D9" stroke="black" stroke-width="2"
            stroke-dasharray="4 4" />
        <path id="MBR_2"
            d="M203.057 227.273H204.318L207.284 234.517H207.386L210.352 227.273H211.614V236H210.625V229.369H210.54L207.812 236H206.858L204.131 229.369H204.045V236H203.057V227.273ZM213.733 236V227.273H216.784C217.392 227.273 217.893 227.378 218.288 227.588C218.683 227.795 218.977 228.075 219.17 228.428C219.363 228.777 219.46 229.165 219.46 229.591C219.46 229.966 219.393 230.276 219.26 230.52C219.129 230.764 218.956 230.957 218.74 231.099C218.527 231.241 218.295 231.347 218.045 231.415V231.5C218.312 231.517 218.581 231.611 218.85 231.781C219.12 231.952 219.346 232.196 219.528 232.514C219.71 232.832 219.801 233.222 219.801 233.682C219.801 234.119 219.701 234.513 219.502 234.862C219.304 235.212 218.99 235.489 218.561 235.693C218.132 235.898 217.574 236 216.886 236H213.733ZM214.789 235.062H216.886C217.576 235.062 218.066 234.929 218.356 234.662C218.649 234.392 218.795 234.065 218.795 233.682C218.795 233.386 218.72 233.114 218.569 232.864C218.419 232.611 218.204 232.409 217.926 232.259C217.647 232.105 217.318 232.028 216.937 232.028H214.789V235.062ZM214.789 231.108H216.75C217.068 231.108 217.355 231.045 217.61 230.92C217.869 230.795 218.074 230.619 218.224 230.392C218.377 230.165 218.454 229.898 218.454 229.591C218.454 229.207 218.321 228.882 218.054 228.615C217.787 228.345 217.363 228.21 216.784 228.21H214.789V231.108ZM221.537 236V227.273H224.486C225.168 227.273 225.728 227.389 226.165 227.622C226.603 227.852 226.926 228.169 227.137 228.572C227.347 228.976 227.452 229.435 227.452 229.949C227.452 230.463 227.347 230.919 227.137 231.317C226.926 231.714 226.604 232.027 226.169 232.254C225.735 232.479 225.179 232.591 224.503 232.591H222.117V231.636H224.469C224.935 231.636 225.31 231.568 225.594 231.432C225.881 231.295 226.088 231.102 226.216 230.852C226.347 230.599 226.412 230.298 226.412 229.949C226.412 229.599 226.347 229.294 226.216 229.033C226.086 228.771 225.877 228.57 225.59 228.428C225.303 228.283 224.924 228.21 224.452 228.21H222.594V236H221.537ZM225.645 232.08L227.793 236H226.566L224.452 232.08H225.645Z"
            fill="black" />
    </g>
    <g id="SP">
        <rect id="Rectangle 5" x="180" y="285" width="106" height="36" fill="#D9D9D9" stroke="black" stroke-width="2" />
        <path id="SP_2"
            d="M228.83 300.455C228.778 300.023 228.571 299.688 228.207 299.449C227.844 299.21 227.398 299.091 226.869 299.091C226.483 299.091 226.145 299.153 225.855 299.278C225.568 299.403 225.344 299.575 225.182 299.794C225.023 300.013 224.943 300.261 224.943 300.54C224.943 300.773 224.999 300.973 225.109 301.141C225.223 301.305 225.368 301.443 225.544 301.554C225.72 301.662 225.905 301.751 226.098 301.822C226.291 301.891 226.469 301.946 226.631 301.989L227.517 302.227C227.744 302.287 227.997 302.369 228.276 302.474C228.557 302.58 228.825 302.723 229.081 302.905C229.339 303.084 229.553 303.314 229.72 303.595C229.888 303.876 229.972 304.222 229.972 304.631C229.972 305.102 229.848 305.528 229.601 305.909C229.357 306.29 228.999 306.592 228.527 306.817C228.058 307.041 227.489 307.153 226.818 307.153C226.193 307.153 225.652 307.053 225.195 306.851C224.74 306.649 224.382 306.368 224.121 306.007C223.862 305.646 223.716 305.227 223.682 304.75H224.773C224.801 305.08 224.912 305.352 225.105 305.568C225.301 305.781 225.548 305.94 225.847 306.045C226.148 306.148 226.472 306.199 226.818 306.199C227.222 306.199 227.584 306.134 227.905 306.003C228.226 305.869 228.48 305.685 228.668 305.449C228.855 305.21 228.949 304.932 228.949 304.614C228.949 304.324 228.868 304.088 228.706 303.906C228.544 303.724 228.331 303.577 228.067 303.463C227.803 303.349 227.517 303.25 227.21 303.165L226.136 302.858C225.455 302.662 224.915 302.382 224.517 302.018C224.119 301.655 223.92 301.179 223.92 300.591C223.92 300.102 224.053 299.676 224.317 299.312C224.584 298.946 224.942 298.662 225.391 298.46C225.842 298.256 226.347 298.153 226.903 298.153C227.466 298.153 227.966 298.254 228.403 298.456C228.841 298.655 229.188 298.928 229.443 299.274C229.702 299.621 229.838 300.014 229.852 300.455H228.83ZM231.709 307V298.273H234.658C235.343 298.273 235.902 298.396 236.337 298.643C236.775 298.888 237.098 299.219 237.309 299.636C237.519 300.054 237.624 300.52 237.624 301.034C237.624 301.548 237.519 302.016 237.309 302.436C237.101 302.857 236.78 303.192 236.346 303.442C235.911 303.689 235.354 303.812 234.675 303.812H232.561V302.875H234.641C235.11 302.875 235.486 302.794 235.77 302.632C236.054 302.47 236.26 302.251 236.388 301.976C236.519 301.697 236.584 301.384 236.584 301.034C236.584 300.685 236.519 300.372 236.388 300.097C236.26 299.821 236.053 299.605 235.766 299.449C235.479 299.29 235.098 299.21 234.624 299.21H232.766V307H231.709Z"
            fill="black" />
    </g>
    <g id="LV">
        <rect id="Rectangle 13" x="181" y="356" width="106" height="36" fill="#D9D9D9" stroke="black"
            stroke-width="2" />
        <path id="LV_2"
            d="M225.057 378V369.273H226.114V377.062H230.17V378H225.057ZM231.344 369.273L233.935 376.619H234.038L236.629 369.273H237.737L234.532 378H233.441L230.237 369.273H231.344Z"
            fill="black" />
    </g>
    <g id="CPP">
        <rect id="Rectangle 14" x="180" y="427" width="106" height="36" fill="#D9D9D9" stroke="black"
            stroke-width="2" />
        <path id="CPP_2"
            d="M231.08 443H230.023C229.96 442.696 229.851 442.429 229.695 442.199C229.541 441.969 229.354 441.776 229.132 441.619C228.913 441.46 228.67 441.341 228.403 441.261C228.136 441.182 227.858 441.142 227.568 441.142C227.04 441.142 226.561 441.276 226.132 441.543C225.706 441.81 225.366 442.203 225.114 442.723C224.864 443.243 224.739 443.881 224.739 444.636C224.739 445.392 224.864 446.03 225.114 446.55C225.366 447.07 225.706 447.463 226.132 447.73C226.561 447.997 227.04 448.131 227.568 448.131C227.858 448.131 228.136 448.091 228.403 448.011C228.67 447.932 228.913 447.814 229.132 447.658C229.354 447.499 229.541 447.304 229.695 447.074C229.851 446.841 229.96 446.574 230.023 446.273H231.08C231 446.719 230.855 447.118 230.645 447.47C230.435 447.822 230.173 448.122 229.861 448.369C229.548 448.614 229.197 448.8 228.808 448.928C228.422 449.055 228.009 449.119 227.568 449.119C226.824 449.119 226.162 448.938 225.582 448.574C225.003 448.21 224.547 447.693 224.214 447.023C223.882 446.352 223.716 445.557 223.716 444.636C223.716 443.716 223.882 442.92 224.214 442.25C224.547 441.58 225.003 441.062 225.582 440.699C226.162 440.335 226.824 440.153 227.568 440.153C228.009 440.153 228.422 440.217 228.808 440.345C229.197 440.473 229.548 440.661 229.861 440.908C230.173 441.152 230.435 441.45 230.645 441.803C230.855 442.152 231 442.551 231.08 443ZM232.787 449V440.273H235.736C236.421 440.273 236.98 440.396 237.415 440.643C237.853 440.888 238.176 441.219 238.387 441.636C238.597 442.054 238.702 442.52 238.702 443.034C238.702 443.548 238.597 444.016 238.387 444.436C238.179 444.857 237.858 445.192 237.424 445.442C236.989 445.689 236.432 445.812 235.753 445.812H233.64V444.875H235.719C236.188 444.875 236.564 444.794 236.848 444.632C237.132 444.47 237.338 444.251 237.466 443.976C237.597 443.697 237.662 443.384 237.662 443.034C237.662 442.685 237.597 442.372 237.466 442.097C237.338 441.821 237.131 441.605 236.844 441.449C236.557 441.29 236.176 441.21 235.702 441.21H233.844V449H232.787ZM240.404 449V440.273H243.353C244.038 440.273 244.598 440.396 245.032 440.643C245.47 440.888 245.794 441.219 246.004 441.636C246.214 442.054 246.319 442.52 246.319 443.034C246.319 443.548 246.214 444.016 246.004 444.436C245.797 444.857 245.475 445.192 245.041 445.442C244.606 445.689 244.049 445.812 243.37 445.812H241.257V444.875H243.336C243.805 444.875 244.181 444.794 244.466 444.632C244.75 444.47 244.956 444.251 245.083 443.976C245.214 443.697 245.279 443.384 245.279 443.034C245.279 442.685 245.214 442.372 245.083 442.097C244.956 441.821 244.748 441.605 244.461 441.449C244.174 441.29 243.794 441.21 243.319 441.21H241.461V449H240.404Z"
            fill="black" />
    </g>
    <g id="TOS">
        <rect id="Rectangle 15" x="181" y="498" width="106" height="36" fill="#D9D9D9" stroke="black"
            stroke-width="2" />
        <path id="TOS_2"
            d="M224.58 512.21V511.273H231.125V512.21H228.381V520H227.324V512.21H224.58ZM239.756 515.636C239.756 516.557 239.59 517.352 239.258 518.023C238.925 518.693 238.469 519.21 237.89 519.574C237.31 519.938 236.648 520.119 235.904 520.119C235.16 520.119 234.498 519.938 233.918 519.574C233.339 519.21 232.883 518.693 232.55 518.023C232.218 517.352 232.052 516.557 232.052 515.636C232.052 514.716 232.218 513.92 232.55 513.25C232.883 512.58 233.339 512.062 233.918 511.699C234.498 511.335 235.16 511.153 235.904 511.153C236.648 511.153 237.31 511.335 237.89 511.699C238.469 512.062 238.925 512.58 239.258 513.25C239.59 513.92 239.756 514.716 239.756 515.636ZM238.734 515.636C238.734 514.881 238.607 514.243 238.354 513.723C238.104 513.203 237.765 512.81 237.336 512.543C236.91 512.276 236.433 512.142 235.904 512.142C235.376 512.142 234.897 512.276 234.468 512.543C234.042 512.81 233.702 513.203 233.45 513.723C233.2 514.243 233.075 514.881 233.075 515.636C233.075 516.392 233.2 517.03 233.45 517.55C233.702 518.07 234.042 518.463 234.468 518.73C234.897 518.997 235.376 519.131 235.904 519.131C236.433 519.131 236.91 518.997 237.336 518.73C237.765 518.463 238.104 518.07 238.354 517.55C238.607 517.03 238.734 516.392 238.734 515.636ZM246.306 513.455C246.255 513.023 246.048 512.688 245.684 512.449C245.32 512.21 244.874 512.091 244.346 512.091C243.96 512.091 243.621 512.153 243.332 512.278C243.045 512.403 242.82 512.575 242.658 512.794C242.499 513.013 242.42 513.261 242.42 513.54C242.42 513.773 242.475 513.973 242.586 514.141C242.7 514.305 242.844 514.443 243.021 514.554C243.197 514.662 243.381 514.751 243.575 514.822C243.768 514.891 243.945 514.946 244.107 514.989L244.994 515.227C245.221 515.287 245.474 515.369 245.752 515.474C246.033 515.58 246.302 515.723 246.558 515.905C246.816 516.084 247.029 516.314 247.197 516.595C247.364 516.876 247.448 517.222 247.448 517.631C247.448 518.102 247.325 518.528 247.077 518.909C246.833 519.29 246.475 519.592 246.004 519.817C245.535 520.041 244.965 520.153 244.295 520.153C243.67 520.153 243.129 520.053 242.671 519.851C242.217 519.649 241.859 519.368 241.597 519.007C241.339 518.646 241.192 518.227 241.158 517.75H242.249C242.278 518.08 242.388 518.352 242.582 518.568C242.778 518.781 243.025 518.94 243.323 519.045C243.624 519.148 243.948 519.199 244.295 519.199C244.698 519.199 245.06 519.134 245.381 519.003C245.702 518.869 245.957 518.685 246.144 518.449C246.332 518.21 246.425 517.932 246.425 517.614C246.425 517.324 246.344 517.088 246.183 516.906C246.021 516.724 245.808 516.577 245.543 516.463C245.279 516.349 244.994 516.25 244.687 516.165L243.613 515.858C242.931 515.662 242.391 515.382 241.994 515.018C241.596 514.655 241.397 514.179 241.397 513.591C241.397 513.102 241.529 512.676 241.793 512.312C242.06 511.946 242.418 511.662 242.867 511.46C243.319 511.256 243.823 511.153 244.38 511.153C244.942 511.153 245.442 511.254 245.88 511.456C246.317 511.655 246.664 511.928 246.92 512.274C247.178 512.621 247.315 513.014 247.329 513.455H246.306Z"
            fill="black" />
    </g>
    <g id="OPC">
        <rect id="Rectangle 16" x="181" y="569" width="106" height="36" fill="#D9D9D9" stroke="black"
            stroke-width="2" />
        <path id="OPC_2"
            d="M232.42 586.636C232.42 587.557 232.254 588.352 231.922 589.023C231.589 589.693 231.134 590.21 230.554 590.574C229.974 590.938 229.313 591.119 228.568 591.119C227.824 591.119 227.162 590.938 226.582 590.574C226.003 590.21 225.547 589.693 225.214 589.023C224.882 588.352 224.716 587.557 224.716 586.636C224.716 585.716 224.882 584.92 225.214 584.25C225.547 583.58 226.003 583.062 226.582 582.699C227.162 582.335 227.824 582.153 228.568 582.153C229.313 582.153 229.974 582.335 230.554 582.699C231.134 583.062 231.589 583.58 231.922 584.25C232.254 584.92 232.42 585.716 232.42 586.636ZM231.398 586.636C231.398 585.881 231.271 585.243 231.018 584.723C230.768 584.203 230.429 583.81 230 583.543C229.574 583.276 229.097 583.142 228.568 583.142C228.04 583.142 227.561 583.276 227.132 583.543C226.706 583.81 226.366 584.203 226.114 584.723C225.864 585.243 225.739 585.881 225.739 586.636C225.739 587.392 225.864 588.03 226.114 588.55C226.366 589.07 226.706 589.463 227.132 589.73C227.561 589.997 228.04 590.131 228.568 590.131C229.097 590.131 229.574 589.997 230 589.73C230.429 589.463 230.768 589.07 231.018 588.55C231.271 588.03 231.398 587.392 231.398 586.636ZM234.197 591V582.273H237.146C237.831 582.273 238.391 582.396 238.825 582.643C239.263 582.888 239.587 583.219 239.797 583.636C240.007 584.054 240.112 584.52 240.112 585.034C240.112 585.548 240.007 586.016 239.797 586.436C239.589 586.857 239.268 587.192 238.834 587.442C238.399 587.689 237.842 587.812 237.163 587.812H235.05V586.875H237.129C237.598 586.875 237.974 586.794 238.259 586.632C238.543 586.47 238.749 586.251 238.876 585.976C239.007 585.697 239.072 585.384 239.072 585.034C239.072 584.685 239.007 584.372 238.876 584.097C238.749 583.821 238.541 583.605 238.254 583.449C237.967 583.29 237.587 583.21 237.112 583.21H235.254V591H234.197ZM248.837 585H247.781C247.718 584.696 247.609 584.429 247.452 584.199C247.299 583.969 247.112 583.776 246.89 583.619C246.671 583.46 246.428 583.341 246.161 583.261C245.894 583.182 245.616 583.142 245.326 583.142C244.798 583.142 244.319 583.276 243.89 583.543C243.464 583.81 243.124 584.203 242.871 584.723C242.621 585.243 242.496 585.881 242.496 586.636C242.496 587.392 242.621 588.03 242.871 588.55C243.124 589.07 243.464 589.463 243.89 589.73C244.319 589.997 244.798 590.131 245.326 590.131C245.616 590.131 245.894 590.091 246.161 590.011C246.428 589.932 246.671 589.814 246.89 589.658C247.112 589.499 247.299 589.304 247.452 589.074C247.609 588.841 247.718 588.574 247.781 588.273H248.837C248.758 588.719 248.613 589.118 248.403 589.47C248.192 589.822 247.931 590.122 247.619 590.369C247.306 590.614 246.955 590.8 246.566 590.928C246.18 591.055 245.766 591.119 245.326 591.119C244.582 591.119 243.92 590.938 243.34 590.574C242.761 590.21 242.305 589.693 241.972 589.023C241.64 588.352 241.474 587.557 241.474 586.636C241.474 585.716 241.64 584.92 241.972 584.25C242.305 583.58 242.761 583.062 243.34 582.699C243.92 582.335 244.582 582.153 245.326 582.153C245.766 582.153 246.18 582.217 246.566 582.345C246.955 582.473 247.306 582.661 247.619 582.908C247.931 583.152 248.192 583.45 248.403 583.803C248.613 584.152 248.758 584.551 248.837 585Z"
            fill="black" />
    </g>
    <g id="H">
        <rect id="Rectangle 17" x="180" y="640" width="106" height="36" fill="#D9D9D9" stroke="black"
            stroke-width="2" />
        <path id="H_2"
            d="M225.057 664V655.273H226.114V659.159H230.767V655.273H231.824V664H230.767V660.097H226.114V664H225.057Z"
            fill="black" />
    </g>
    <g id="write C Arrow">
        <path id="wrCtoMAR" d="M203 38L197.226 48H208.774L203 38ZM204 58V47H202V58H204Z" fill="black" />
        <path id="wrCtoMDR" d="M203 109L197.226 119H208.774L203 109ZM204 129V118H202V129H204Z" fill="black" />
        <path id="wrCtoPC" d="M203 180L197.226 190H208.774L203 180ZM204 200V189H202V200H204Z" fill="black" />
        <path id="wrCtoSP" d="M203 322L197.226 332H208.774L203 322ZM204 342V331H202V342H204Z" fill="black" />
        <path id="wrCtoLV" d="M203 393L197.226 403H208.774L203 393ZM204 413V402H202V413H204Z" fill="black" />
        <path id="wrCtoCPP" d="M203 464L197.226 474H208.774L203 464ZM204 484V473H202V484H204Z" fill="black" />
        <path id="wrCtoTOS" d="M203 535L197.226 545H208.774L203 535ZM204 555V544H202V555H204Z" fill="black" />
        <path id="wrCtoOPC" d="M203 606L197.226 616H208.774L203 606ZM204 626V615H202V626H204Z" fill="black" />
        <path id="wrCtoH" d="M202 687L196.226 697H207.774L202 687ZM203 707V696H201V707H203Z" fill="black" />
    </g>
    <g id="enable on B Arrow">
        <path id="enMDRonB" d="M256 107L250.226 117H261.774L256 107ZM257 127V116H255V127H257Z" fill="#E9E11A" />
        <path id="enPConB" d="M256 180L250.226 190H261.774L256 180ZM257 200V189H255V200H257Z" fill="#E9E11A" />
        <path id="enSPonB" d="M256 322L250.226 332H261.774L256 322ZM257 342V331H255V342H257Z" fill="#E9E11A" />
        <path id="enLVonB" d="M256 393L250.226 403H261.774L256 393ZM257 413V402H255V413H257Z" fill="#E9E11A" />
        <path id="enCPPonB" d="M256 464L250.226 474H261.774L256 464ZM257 484V473H255V484H257Z" fill="#E9E11A" />
        <path id="enTOSonB" d="M256 535L250.226 545H261.774L256 535ZM257 555V544H255V555H257Z" fill="#E9E11A" />
        <path id="enOPConB" d="M256 606L250.226 616H261.774L256 606ZM257 626V615H255V626H257Z" fill="#E9E11A" />
        <path id="enMBRonB" d="M257 251L251.226 261H262.774L257 251ZM258 271V260H256V271H258Z" fill="#E9E11A" />
        <path id="enMBRonB_2" d="M272 251L266.226 261H277.774L272 251ZM273 271V260H271V271H273Z" fill="#E9E11A" />
    </g>
    <g id="ALU">
        <path id="Line 1" d="M224 735L275.5 734" stroke="black" stroke-width="2" />
        <line id="Line 4" x1="275" y1="795" x2="349" y2="795" stroke="black" stroke-width="2" />
        <path id="Line 3" d="M347.951 735.989L399 735.967" stroke="black" stroke-width="2" />
        <line id="Line 2" x1="296" y1="758" x2="327" y2="758" stroke="black" stroke-width="2" />
        <line id="Line 5" y1="-1" x2="80.054" y2="-1"
            transform="matrix(0.637551 0.770408 -0.734037 0.679109 224 734.888)" stroke="black" stroke-width="2" />
        <line id="Line 6" x1="274.731" y1="734.318" x2="296.605" y2="757.743" stroke="black" stroke-width="2" />
        <line id="Line 7" y1="-1" x2="31.0503" y2="-1"
            transform="matrix(0.700179 -0.713968 0.673889 0.738833 327.333 758.765)" stroke="black" stroke-width="2" />
        <path id="Line 8" d="M398.469 735.989L347.43 796.011" stroke="black" stroke-width="2" />
        <path id="ALU_2"
            d="M304.415 780H303.307L306.511 771.273H307.602L310.807 780H309.699L307.091 772.653H307.023L304.415 780ZM304.824 776.591H309.29V777.528H304.824V776.591ZM312.166 780V771.273H313.223V779.062H317.28V780H312.166ZM324.643 771.273H325.7V777.051C325.7 777.648 325.56 778.18 325.278 778.649C325 779.115 324.607 779.483 324.098 779.753C323.589 780.02 322.993 780.153 322.308 780.153C321.624 780.153 321.027 780.02 320.518 779.753C320.01 779.483 319.615 779.115 319.334 778.649C319.055 778.18 318.916 777.648 318.916 777.051V771.273H319.973V776.966C319.973 777.392 320.067 777.771 320.254 778.104C320.442 778.433 320.709 778.693 321.055 778.884C321.405 779.071 321.822 779.165 322.308 779.165C322.794 779.165 323.212 779.071 323.561 778.884C323.911 778.693 324.178 778.433 324.362 778.104C324.55 777.771 324.643 777.392 324.643 776.966V771.273Z"
            fill="black" />
    </g>
    <g id="A-Bus">
        <g id="Arrow 20" filter="url(#filter0_b_0_1)">
            <path
                d="M251.556 725.72C251.556 724.615 250.66 723.72 249.556 723.72C248.451 723.72 247.556 724.615 247.556 725.72L251.556 725.72ZM249.556 735L261.103 715L238.009 715L249.556 735Z"
                fill="#E81E7F" />
        </g>
        <rect id="Rectangle 18" x="244.5" y="677.5" width="9" height="45.4" fill="#E81E7F" stroke="#E81E7F" />
        <path id="A"
            d="M266.415 712H265.307L268.511 703.273H269.602L272.807 712H271.699L269.091 704.653H269.023L266.415 712ZM266.824 708.591H271.29V709.528H266.824V708.591Z"
            fill="black" />
    </g>
    <g id="Gray arrow">
        <g id="Gray arrow MDR">
            <g id="Arrow 20_2" filter="url(#filter1_b_0_1)">
                <path
                    d="M350.508 83.2222C349.403 83.2222 348.508 84.1177 348.508 85.2222C348.508 86.3268 349.403 87.2222 350.508 87.2222L350.508 83.2222ZM362.309 85.2222L342.309 73.6752L342.309 96.7692L362.309 85.2222Z"
                    fill="#6D6569" />
            </g>
            <rect id="Rectangle 18_2" x="289.053" y="87.5" width="4" height="58.0049"
                transform="rotate(-90 289.053 87.5)" fill="#6D6569" stroke="#6D6569" />
        </g>
        <g id="Gray arrow PC">
            <g id="Arrow 20_3" filter="url(#filter2_b_0_1)">
                <path
                    d="M350.508 153.222C349.403 153.222 348.508 154.118 348.508 155.222C348.508 156.327 349.403 157.222 350.508 157.222L350.508 153.222ZM362.309 155.222L342.309 143.675L342.309 166.769L362.309 155.222Z"
                    fill="#6D6569" />
            </g>
            <rect id="Rectangle 18_3" x="289.053" y="157.5" width="4" height="58.0049"
                transform="rotate(-90 289.053 157.5)" fill="#6D6569" stroke="#6D6569" />
        </g>
        <g id="Gray arrow MBR">
            <g id="Arrow 20_4" filter="url(#filter3_b_0_1)">
                <path
                    d="M349.78 225.222C348.675 225.222 347.78 226.118 347.78 227.222C347.78 228.327 348.675 229.222 349.78 229.222L349.78 225.222ZM362.309 227.222L342.309 215.675L342.309 238.769L362.309 227.222Z"
                    fill="#6D6569" />
            </g>
            <rect id="Rectangle 18_4" x="284.5" y="229.5" width="4" height="61.6472" transform="rotate(-90 284.5 229.5)"
                fill="#6D6569" stroke="#6D6569" />
        </g>
        <g id="Gray arrow MBR_2">
            <g id="Arrow 20_5" filter="url(#filter4_b_0_1)">
                <path
                    d="M349.78 236.222C348.675 236.222 347.78 237.118 347.78 238.222C347.78 239.327 348.675 240.222 349.78 240.222L349.78 236.222ZM362.309 238.222L342.309 226.675L342.309 249.769L362.309 238.222Z"
                    fill="#6D6569" />
            </g>
            <rect id="Rectangle 18_5" x="284.5" y="240.5" width="4" height="61.6472" transform="rotate(-90 284.5 240.5)"
                fill="#6D6569" stroke="#6D6569" />
        </g>
        <g id="Gray arrow SP">
            <g id="Arrow 20_6" filter="url(#filter5_b_0_1)">
                <path
                    d="M350.508 297.595C349.403 297.595 348.508 298.49 348.508 299.595C348.508 300.699 349.403 301.595 350.508 301.595V297.595ZM362.309 299.595L342.309 288.048V311.142L362.309 299.595Z"
                    fill="#6D6569" />
            </g>
            <rect id="Rectangle 18_6" x="289.053" y="301.873" width="4" height="58.0049"
                transform="rotate(-90 289.053 301.873)" fill="#6D6569" stroke="#6D6569" />
        </g>
        <g id="Gray arrow LV">
            <g id="Arrow 20_7" filter="url(#filter6_b_0_1)">
                <path
                    d="M351.419 367.222C350.314 367.222 349.419 368.118 349.419 369.222C349.419 370.327 350.314 371.222 351.419 371.222V367.222ZM363.22 369.222L343.22 357.675V380.769L363.22 369.222Z"
                    fill="#6D6569" />
            </g>
            <rect id="Rectangle 18_7" x="289.964" y="371.5" width="4" height="58.0049"
                transform="rotate(-90 289.964 371.5)" fill="#6D6569" stroke="#6D6569" />
        </g>
        <g id="Gray arrow CPP">
            <g id="Arrow 20_8" filter="url(#filter7_b_0_1)">
                <path
                    d="M350.508 439.222C349.403 439.222 348.508 440.118 348.508 441.222C348.508 442.327 349.403 443.222 350.508 443.222V439.222ZM362.309 441.222L342.309 429.675V452.769L362.309 441.222Z"
                    fill="#6D6569" />
            </g>
            <rect id="Rectangle 18_8" x="289.053" y="443.5" width="4" height="58.0049"
                transform="rotate(-90 289.053 443.5)" fill="#6D6569" stroke="#6D6569" />
        </g>
        <g id="Gray arrow TOS">
            <g id="Arrow 20_9" filter="url(#filter8_b_0_1)">
                <path
                    d="M351.419 509.222C350.314 509.222 349.419 510.118 349.419 511.222C349.419 512.327 350.314 513.222 351.419 513.222V509.222ZM363.22 511.222L343.22 499.675V522.769L363.22 511.222Z"
                    fill="#6D6569" />
            </g>
            <rect id="Rectangle 18_9" x="289.964" y="513.5" width="4" height="58.0049"
                transform="rotate(-90 289.964 513.5)" fill="#6D6569" stroke="#6D6569" />
        </g>
        <g id="Gray arrow OPC">
            <g id="Arrow 20_10" filter="url(#filter9_b_0_1)">
                <path
                    d="M352.329 580.222C351.225 580.222 350.329 581.118 350.329 582.222C350.329 583.327 351.225 584.222 352.329 584.222V580.222ZM364.13 582.222L344.13 570.675V593.769L364.13 582.222Z"
                    fill="#6D6569" />
            </g>
            <rect id="Rectangle 18_10" x="290.874" y="584.5" width="4" height="58.0049"
                transform="rotate(-90 290.874 584.5)" fill="#6D6569" stroke="#6D6569" />
        </g>
    </g>
    <g id="Orange arrow">
        <g id="Orange arrow MAR">
            <g id="Arrow 20_11" filter="url(#filter10_b_0_1)">
                <path
                    d="M92.441 23.4444C93.5455 23.4444 94.441 24.3398 94.441 25.4444C94.441 26.549 93.5455 27.4444 92.441 27.4444V23.4444ZM76 25.4444L96 13.8974V36.9914L76 25.4444Z"
                    fill="#E97F1C" />
            </g>
            <rect id="Rectangle 18_11" x="-0.5" y="-0.5" width="9" height="81.2049"
                transform="matrix(0 -1 -1 0 177.756 30)" fill="#E97F1C" stroke="#E97F1C" />
        </g>
        <g id="Orange arrow PC">
            <g id="Arrow 20_12" filter="url(#filter11_b_0_1)">
                <path
                    d="M92.6849 164.444C93.7894 164.444 94.6849 165.34 94.6849 166.444C94.6849 167.549 93.7894 168.444 92.6849 168.444V164.444ZM76.2439 166.444L96.2439 154.897V177.991L76.2439 166.444Z"
                    fill="#E97F1C" />
            </g>
            <rect id="Rectangle 18_12" x="-0.5" y="-0.5" width="9" height="81.2049"
                transform="matrix(0 -1 -1 0 178 171)" fill="#E97F1C" stroke="#E97F1C" />
        </g>
        <g id="Orange arrow MBR">
            <g id="Arrow 20_13" filter="url(#filter12_b_0_1)">
                <path
                    d="M162.315 237.556C161.211 237.556 160.315 236.66 160.315 235.556C160.315 234.451 161.211 233.556 162.315 233.556V237.556ZM178.756 235.556L158.756 247.103V224.009L178.756 235.556Z"
                    fill="#E97F1C" />
            </g>
            <rect id="Rectangle 18_13" x="0.5" y="0.5" width="9" height="81.2049" transform="matrix(0 1 1 0 76 230)"
                fill="#E97F1C" stroke="#E97F1C" />
        </g>
        <g id="Orange arrow MDR">
            <g id="Arrow 20_14" filter="url(#filter13_b_0_1)">
                <path
                    d="M166.425 102C165.321 102 164.425 101.105 164.425 100C164.425 98.8954 165.321 98 166.425 98V102ZM182.866 100L162.866 111.547V88.453L182.866 100Z"
                    fill="#E97F1C" />
            </g>
            <g id="Mask group">
                <g id="Arrow 21" filter="url(#filter14_b_0_1)">
                    <path
                        d="M92.441 98C93.5455 98 94.441 98.8954 94.441 100C94.441 101.105 93.5455 102 92.441 102V98ZM76 100L96 88.453V111.547L76 100Z"
                        fill="#E97F1C" />
                </g>
            </g>
            <rect id="Rectangle 18_14" x="0.5" y="0.5" width="9" height="81.2049" transform="matrix(0 1 1 0 84.2205 95)"
                fill="#E97F1C" stroke="#E97F1C" />
        </g>
    </g>
    <g id="Green arrow">
        <g id="Green arrow MDR">
            <g id="Arrow 20_15" filter="url(#filter15_b_0_1)">
                <path
                    d="M171.298 78.2222C170.194 78.2222 169.298 79.1177 169.298 80.2222C169.298 81.3268 170.194 82.2222 171.298 82.2222L171.298 78.2222ZM179.546 80.2222L159.546 68.6752L159.546 91.7692L179.546 80.2222Z"
                    fill="#27E32E" />
            </g>
            <rect id="Rectangle 18_15" x="128.5" y="82.5" width="4" height="40.2364" transform="rotate(-90 128.5 82.5)"
                fill="#27E32E" stroke="#27E32E" />
        </g>
        <g id="Green arrow MAR">
            <g id="Arrow 20_16" filter="url(#filter16_b_0_1)">
                <path
                    d="M171.117 13.2222C170.012 13.2222 169.117 14.1177 169.117 15.2222C169.117 16.3268 170.012 17.2222 171.117 17.2222L171.117 13.2222ZM179.364 15.2222L159.364 3.67522L159.364 26.7692L179.364 15.2222Z"
                    fill="#27E32E" />
            </g>
            <rect id="Rectangle 18_16" x="128.318" y="17.5" width="4" height="40.2364"
                transform="rotate(-90 128.318 17.5)" fill="#27E32E" stroke="#27E32E" />
        </g>
        <g id="Green arrow PC">
            <g id="Arrow 20_17" filter="url(#filter17_b_0_1)">
                <path
                    d="M171.298 153.222C170.194 153.222 169.298 154.118 169.298 155.222C169.298 156.327 170.194 157.222 171.298 157.222L171.298 153.222ZM179.546 155.222L159.546 143.675L159.546 166.769L179.546 155.222Z"
                    fill="#27E32E" />
            </g>
            <rect id="Rectangle 18_17" x="128.5" y="157.5" width="4" height="40.2364"
                transform="rotate(-90 128.5 157.5)" fill="#27E32E" stroke="#27E32E" />
        </g>
        <g id="Green arrow SP">
            <g id="Arrow 20_18" filter="url(#filter18_b_0_1)">
                <path
                    d="M171.298 299.222C170.194 299.222 169.298 300.118 169.298 301.222C169.298 302.327 170.194 303.222 171.298 303.222V299.222ZM179.546 301.222L159.546 289.675V312.769L179.546 301.222Z"
                    fill="#27E32E" />
            </g>
            <rect id="Rectangle 18_18" x="128.5" y="303.5" width="4" height="40.2364"
                transform="rotate(-90 128.5 303.5)" fill="#27E32E" stroke="#27E32E" />
        </g>
        <g id="Green arrow LV">
            <g id="Arrow 20_19" filter="url(#filter19_b_0_1)">
                <path
                    d="M170.298 374.222C169.194 374.222 168.298 375.118 168.298 376.222C168.298 377.327 169.194 378.222 170.298 378.222V374.222ZM178.545 376.222L158.545 364.675V387.769L178.545 376.222Z"
                    fill="#27E32E" />
            </g>
            <rect id="Rectangle 18_19" x="127.5" y="378.5" width="4" height="40.2364"
                transform="rotate(-90 127.5 378.5)" fill="#27E32E" stroke="#27E32E" />
        </g>
        <g id="Green arrow TOS">
            <g id="Arrow 20_20" filter="url(#filter20_b_0_1)">
                <path
                    d="M171.298 511.222C170.194 511.222 169.298 512.118 169.298 513.222C169.298 514.327 170.194 515.222 171.298 515.222V511.222ZM179.545 513.222L159.545 501.675V524.769L179.545 513.222Z"
                    fill="#27E32E" />
            </g>
            <rect id="Rectangle 18_20" x="128.5" y="515.5" width="4" height="40.2364"
                transform="rotate(-90 128.5 515.5)" fill="#27E32E" stroke="#27E32E" />
        </g>
        <g id="Green arrow CPP">
            <g id="Arrow 20_21" filter="url(#filter21_b_0_1)">
                <path
                    d="M170.298 439.222C169.194 439.222 168.298 440.118 168.298 441.222C168.298 442.327 169.194 443.222 170.298 443.222V439.222ZM178.546 441.222L158.546 429.675V452.769L178.546 441.222Z"
                    fill="#27E32E" />
            </g>
            <rect id="Rectangle 18_21" x="127.5" y="443.5" width="4" height="40.2364"
                transform="rotate(-90 127.5 443.5)" fill="#27E32E" stroke="#27E32E" />
        </g>
        <g id="Green arrow OPC">
            <g id="Arrow 20_22" filter="url(#filter22_b_0_1)">
                <path
                    d="M171.298 579.222C170.194 579.222 169.298 580.118 169.298 581.222C169.298 582.327 170.194 583.222 171.298 583.222V579.222ZM179.545 581.222L159.545 569.675V592.769L179.545 581.222Z"
                    fill="#27E32E" />
            </g>
            <rect id="Rectangle 18_22" x="128.5" y="583.5" width="4" height="40.2364"
                transform="rotate(-90 128.5 583.5)" fill="#27E32E" stroke="#27E32E" />
        </g>
        <g id="Green arrow H">
            <g id="Arrow 20_23" filter="url(#filter23_b_0_1)">
                <path
                    d="M171.298 655.222C170.194 655.222 169.298 656.118 169.298 657.222C169.298 658.327 170.194 659.222 171.298 659.222V655.222ZM179.545 657.222L159.545 645.675V668.769L179.545 657.222Z"
                    fill="#27E32E" />
            </g>
            <rect id="Rectangle 18_23" x="128.5" y="659.5" width="4" height="40.2364"
                transform="rotate(-90 128.5 659.5)" fill="#27E32E" stroke="#27E32E" />
        </g>
    </g>
    <g id="Gray arrow Shifter">
        <g id="Arrow 20_24" filter="url(#filter24_b_0_1)">
            <path
                d="M315.778 839.84C315.778 838.735 314.882 837.84 313.778 837.84C312.673 837.84 311.778 838.735 311.778 839.84H315.778ZM313.778 848L325.325 828H302.231L313.778 848Z"
                fill="#6D6569" />
        </g>
        <rect id="Rectangle 18_24" x="311.5" y="797.5" width="4" height="39.8" fill="#6D6569" stroke="#6D6569" />
    </g>
    <g id="B-Bus" (click)="activateBBus()">
        <path id="B"
            d="M380.667 712V703.273H383.718C384.326 703.273 384.827 703.378 385.222 703.588C385.617 703.795 385.911 704.075 386.104 704.428C386.297 704.777 386.394 705.165 386.394 705.591C386.394 705.966 386.327 706.276 386.194 706.52C386.063 706.764 385.89 706.957 385.674 707.099C385.461 707.241 385.229 707.347 384.979 707.415V707.5C385.246 707.517 385.515 707.611 385.784 707.781C386.054 707.952 386.28 708.196 386.462 708.514C386.644 708.832 386.735 709.222 386.735 709.682C386.735 710.119 386.635 710.513 386.436 710.862C386.238 711.212 385.924 711.489 385.495 711.693C385.066 711.898 384.507 712 383.82 712H380.667ZM381.723 711.062H383.82C384.51 711.062 385 710.929 385.29 710.662C385.583 710.392 385.729 710.065 385.729 709.682C385.729 709.386 385.654 709.114 385.503 708.864C385.353 708.611 385.138 708.409 384.86 708.259C384.581 708.105 384.252 708.028 383.871 708.028H381.723V711.062ZM381.723 707.108H383.684C384.002 707.108 384.289 707.045 384.544 706.92C384.803 706.795 385.007 706.619 385.158 706.392C385.311 706.165 385.388 705.898 385.388 705.591C385.388 705.207 385.255 704.882 384.988 704.615C384.721 704.345 384.297 704.21 383.718 704.21H381.723V707.108Z"
            fill="black" />
        <g id="Arrow 20_25" filter="url(#filter25_b_0_1)">
            <path
                d="M364.585 596.986C364.577 595.881 363.676 594.992 362.571 595C361.467 595.008 360.578 595.91 360.585 597.014L364.585 596.986ZM363.585 739L374.991 718.919L351.898 719.082L363.585 739ZM360.585 597.014L361.459 721.015L365.459 720.986L364.585 596.986L360.585 597.014Z"
                fill="#E81E7F" />
        </g>
        <rect id="Rectangle 18_25" x="-0.5" y="0.5" width="8.10569" height="723.974"
            transform="matrix(-1 0 0 1 368.594 4)" fill="#E81E7F" stroke="#E81E7F" />
    </g>

    <!-- Animation Test -->
    <circle r="10" fill="Black" [ngClass]="{ disable_bBus: !bBus}">
        <animateMotion #anim id="anim" [attr.path]="path"
        (beginEvent)="begin($event)"
        (endEvent)="end($event)"
        dur="5s"
        repeatCount="1"
        restart="always"
        />
    </circle>

    <g id="Shifter">
        <g id="H_3">
            <rect id="Rectangle 17_2" x="265" y="850" width="106" height="36" fill="#D9D9D9" stroke="black"
                stroke-width="2" />
        </g>
        <path id="Shifter_2"
            d="M305.83 865.455C305.778 865.023 305.571 864.688 305.207 864.449C304.844 864.21 304.398 864.091 303.869 864.091C303.483 864.091 303.145 864.153 302.855 864.278C302.568 864.403 302.344 864.575 302.182 864.794C302.023 865.013 301.943 865.261 301.943 865.54C301.943 865.773 301.999 865.973 302.109 866.141C302.223 866.305 302.368 866.443 302.544 866.554C302.72 866.662 302.905 866.751 303.098 866.822C303.291 866.891 303.469 866.946 303.631 866.989L304.517 867.227C304.744 867.287 304.997 867.369 305.276 867.474C305.557 867.58 305.825 867.723 306.081 867.905C306.339 868.084 306.553 868.314 306.72 868.595C306.888 868.876 306.972 869.222 306.972 869.631C306.972 870.102 306.848 870.528 306.601 870.909C306.357 871.29 305.999 871.592 305.527 871.817C305.058 872.041 304.489 872.153 303.818 872.153C303.193 872.153 302.652 872.053 302.195 871.851C301.74 871.649 301.382 871.368 301.121 871.007C300.862 870.646 300.716 870.227 300.682 869.75H301.773C301.801 870.08 301.912 870.352 302.105 870.568C302.301 870.781 302.548 870.94 302.847 871.045C303.148 871.148 303.472 871.199 303.818 871.199C304.222 871.199 304.584 871.134 304.905 871.003C305.226 870.869 305.48 870.685 305.668 870.449C305.855 870.21 305.949 869.932 305.949 869.614C305.949 869.324 305.868 869.088 305.706 868.906C305.544 868.724 305.331 868.577 305.067 868.463C304.803 868.349 304.517 868.25 304.21 868.165L303.136 867.858C302.455 867.662 301.915 867.382 301.517 867.018C301.119 866.655 300.92 866.179 300.92 865.591C300.92 865.102 301.053 864.676 301.317 864.312C301.584 863.946 301.942 863.662 302.391 863.46C302.842 863.256 303.347 863.153 303.903 863.153C304.466 863.153 304.966 863.254 305.403 863.456C305.841 863.655 306.188 863.928 306.443 864.274C306.702 864.621 306.838 865.014 306.852 865.455H305.83ZM309.578 868.062V872H308.573V863.273H309.578V866.477H309.664C309.817 866.139 310.047 865.871 310.354 865.672C310.664 865.47 311.076 865.369 311.59 865.369C312.036 865.369 312.426 865.459 312.762 865.638C313.097 865.814 313.357 866.085 313.542 866.452C313.729 866.815 313.823 867.278 313.823 867.841V872H312.817V867.909C312.817 867.389 312.682 866.987 312.412 866.703C312.145 866.416 311.775 866.273 311.3 866.273C310.971 866.273 310.675 866.342 310.414 866.482C310.155 866.621 309.951 866.824 309.8 867.091C309.652 867.358 309.578 867.682 309.578 868.062ZM315.663 872V865.455H316.668V872H315.663ZM316.174 864.364C315.978 864.364 315.809 864.297 315.667 864.163C315.528 864.03 315.458 863.869 315.458 863.682C315.458 863.494 315.528 863.334 315.667 863.2C315.809 863.067 315.978 863 316.174 863C316.37 863 316.538 863.067 316.677 863.2C316.819 863.334 316.89 863.494 316.89 863.682C316.89 863.869 316.819 864.03 316.677 864.163C316.538 864.297 316.37 864.364 316.174 864.364ZM321.425 865.455V866.307H317.897V865.455H321.425ZM318.953 872V864.551C318.953 864.176 319.042 863.864 319.218 863.614C319.394 863.364 319.623 863.176 319.904 863.051C320.185 862.926 320.482 862.864 320.794 862.864C321.042 862.864 321.243 862.884 321.4 862.923C321.556 862.963 321.672 863 321.749 863.034L321.459 863.903C321.408 863.886 321.337 863.865 321.246 863.839C321.158 863.814 321.042 863.801 320.897 863.801C320.564 863.801 320.324 863.885 320.176 864.053C320.032 864.22 319.959 864.466 319.959 864.79V872H318.953ZM325.681 865.455V866.307H322.289V865.455H325.681ZM323.278 863.886H324.283V870.125C324.283 870.409 324.325 870.622 324.407 870.764C324.492 870.903 324.6 870.997 324.731 871.045C324.864 871.091 325.005 871.114 325.153 871.114C325.263 871.114 325.354 871.108 325.425 871.097C325.496 871.082 325.553 871.071 325.596 871.062L325.8 871.966C325.732 871.991 325.637 872.017 325.515 872.043C325.393 872.071 325.238 872.085 325.05 872.085C324.766 872.085 324.488 872.024 324.215 871.902C323.945 871.78 323.721 871.594 323.542 871.344C323.366 871.094 323.278 870.778 323.278 870.398V863.886ZM329.868 872.136C329.237 872.136 328.693 871.997 328.236 871.719C327.781 871.438 327.43 871.045 327.183 870.543C326.939 870.037 326.817 869.449 326.817 868.778C326.817 868.108 326.939 867.517 327.183 867.006C327.43 866.491 327.774 866.091 328.214 865.804C328.658 865.514 329.175 865.369 329.766 865.369C330.107 865.369 330.443 865.426 330.776 865.54C331.108 865.653 331.411 865.838 331.683 866.094C331.956 866.347 332.173 866.682 332.335 867.099C332.497 867.517 332.578 868.031 332.578 868.642V869.068H327.533V868.199H331.555C331.555 867.83 331.482 867.5 331.334 867.21C331.189 866.92 330.982 866.692 330.712 866.524C330.445 866.357 330.129 866.273 329.766 866.273C329.365 866.273 329.018 866.372 328.726 866.571C328.436 866.767 328.213 867.023 328.057 867.338C327.901 867.653 327.822 867.991 327.822 868.352V868.932C327.822 869.426 327.908 869.845 328.078 870.189C328.251 870.53 328.491 870.79 328.798 870.969C329.105 871.145 329.462 871.233 329.868 871.233C330.132 871.233 330.371 871.196 330.584 871.122C330.8 871.045 330.986 870.932 331.142 870.781C331.298 870.628 331.419 870.437 331.504 870.21L332.476 870.483C332.374 870.812 332.202 871.102 331.96 871.352C331.719 871.599 331.42 871.793 331.065 871.932C330.71 872.068 330.311 872.136 329.868 872.136ZM334.108 872V865.455H335.08V866.443H335.148C335.267 866.119 335.483 865.857 335.795 865.655C336.108 865.453 336.46 865.352 336.852 865.352C336.926 865.352 337.018 865.354 337.129 865.357C337.24 865.359 337.324 865.364 337.381 865.369V866.392C337.347 866.384 337.268 866.371 337.146 866.354C337.027 866.334 336.901 866.324 336.767 866.324C336.449 866.324 336.165 866.391 335.915 866.524C335.668 866.655 335.472 866.837 335.327 867.07C335.185 867.3 335.114 867.562 335.114 867.858V872H334.108Z"
            fill="black" />
    </g>
    <g id="C Bus Arrow">
        <path id="Arrow 23"
            d="M116.354 687.354C116.549 687.158 116.549 686.842 116.354 686.646L113.172 683.464C112.976 683.269 112.66 683.269 112.464 683.464C112.269 683.66 112.269 683.976 112.464 684.172L115.293 687L112.464 689.828C112.269 690.024 112.269 690.34 112.464 690.536C112.66 690.731 112.976 690.731 113.172 690.536L116.354 687.354ZM36 687.5H116V686.5H36V687.5Z"
            fill="black" />
        <path id="C Bus"
            d="M7.58495 683H6.52813C6.46563 682.696 6.35625 682.429 6.2 682.199C6.04659 681.969 5.85909 681.776 5.6375 681.619C5.41875 681.46 5.17586 681.341 4.90881 681.261C4.64177 681.182 4.36336 681.142 4.07358 681.142C3.54517 681.142 3.06648 681.276 2.6375 681.543C2.21137 681.81 1.87188 682.203 1.61904 682.723C1.36904 683.243 1.24404 683.881 1.24404 684.636C1.24404 685.392 1.36904 686.03 1.61904 686.55C1.87188 687.07 2.21137 687.463 2.6375 687.73C3.06648 687.997 3.54517 688.131 4.07358 688.131C4.36336 688.131 4.64177 688.091 4.90881 688.011C5.17586 687.932 5.41875 687.814 5.6375 687.658C5.85909 687.499 6.04659 687.304 6.2 687.074C6.35625 686.841 6.46563 686.574 6.52813 686.273H7.58495C7.5054 686.719 7.36052 687.118 7.15029 687.47C6.94006 687.822 6.6787 688.122 6.3662 688.369C6.0537 688.614 5.70285 688.8 5.31364 688.928C4.92728 689.055 4.51392 689.119 4.07358 689.119C3.32927 689.119 2.66733 688.938 2.08779 688.574C1.50824 688.21 1.05228 687.693 0.71989 687.023C0.387504 686.352 0.221311 685.557 0.221311 684.636C0.221311 683.716 0.387504 682.92 0.71989 682.25C1.05228 681.58 1.50824 681.062 2.08779 680.699C2.66733 680.335 3.32927 680.153 4.07358 680.153C4.51392 680.153 4.92728 680.217 5.31364 680.345C5.70285 680.473 6.0537 680.661 6.3662 680.908C6.6787 681.152 6.94006 681.45 7.15029 681.803C7.36052 682.152 7.5054 682.551 7.58495 683ZM12.6677 689V680.273H15.7188C16.3268 680.273 16.8282 680.378 17.2231 680.588C17.618 680.795 17.912 681.075 18.1052 681.428C18.2984 681.777 18.395 682.165 18.395 682.591C18.395 682.966 18.3282 683.276 18.1947 683.52C18.064 683.764 17.8907 683.957 17.6748 684.099C17.4617 684.241 17.2302 684.347 16.9802 684.415V684.5C17.2472 684.517 17.5157 684.611 17.7856 684.781C18.0555 684.952 18.2813 685.196 18.4631 685.514C18.645 685.832 18.7359 686.222 18.7359 686.682C18.7359 687.119 18.6364 687.513 18.4376 687.862C18.2387 688.212 17.9248 688.489 17.4958 688.693C17.0668 688.898 16.5086 689 15.8211 689H12.6677ZM13.7245 688.062H15.8211C16.5114 688.062 17.0015 687.929 17.2913 687.662C17.5839 687.392 17.7302 687.065 17.7302 686.682C17.7302 686.386 17.6549 686.114 17.5043 685.864C17.3538 685.611 17.1393 685.409 16.8609 685.259C16.5825 685.105 16.2529 685.028 15.8722 685.028H13.7245V688.062ZM13.7245 684.108H15.6847C16.0029 684.108 16.2898 684.045 16.5455 683.92C16.8041 683.795 17.0086 683.619 17.1592 683.392C17.3126 683.165 17.3893 682.898 17.3893 682.591C17.3893 682.207 17.2558 681.882 16.9887 681.615C16.7217 681.345 16.2984 681.21 15.7188 681.21H13.7245V684.108ZM24.461 686.324V682.455H25.4667V689H24.461V687.892H24.3928C24.2394 688.224 24.0008 688.507 23.6769 688.74C23.3531 688.97 22.944 689.085 22.4496 689.085C22.0406 689.085 21.6769 688.996 21.3587 688.817C21.0406 688.635 20.7906 688.362 20.6087 687.999C20.4269 687.632 20.336 687.17 20.336 686.614V682.455H21.3417V686.545C21.3417 687.023 21.4752 687.403 21.7423 687.688C22.0121 687.972 22.3559 688.114 22.7735 688.114C23.0235 688.114 23.2778 688.05 23.5363 687.922C23.7977 687.794 24.0164 687.598 24.1925 687.334C24.3715 687.07 24.461 686.733 24.461 686.324ZM31.945 683.92L31.0416 684.176C30.9848 684.026 30.901 683.879 30.7902 683.737C30.6822 683.592 30.5345 683.473 30.347 683.379C30.1595 683.286 29.9195 683.239 29.6269 683.239C29.2263 683.239 28.8925 683.331 28.6254 683.516C28.3612 683.697 28.2291 683.929 28.2291 684.21C28.2291 684.46 28.32 684.658 28.5019 684.803C28.6837 684.947 28.9678 685.068 29.3541 685.165L30.3257 685.403C30.9109 685.545 31.347 685.763 31.634 686.055C31.9209 686.345 32.0644 686.719 32.0644 687.176C32.0644 687.551 31.9564 687.886 31.7405 688.182C31.5274 688.477 31.2291 688.71 30.8456 688.881C30.4621 689.051 30.0161 689.136 29.5075 689.136C28.8399 689.136 28.2874 688.991 27.8499 688.702C27.4124 688.412 27.1354 687.989 27.0189 687.432L27.9734 687.193C28.0644 687.545 28.2362 687.81 28.4891 687.986C28.7447 688.162 29.0786 688.25 29.4905 688.25C29.9592 688.25 30.3314 688.151 30.607 687.952C30.8854 687.75 31.0246 687.509 31.0246 687.227C31.0246 687 30.945 686.81 30.7859 686.656C30.6269 686.5 30.3825 686.384 30.053 686.307L28.9621 686.051C28.3626 685.909 27.9223 685.689 27.6411 685.391C27.3626 685.089 27.2234 684.713 27.2234 684.261C27.2234 683.892 27.3271 683.565 27.5345 683.281C27.7447 682.997 28.0303 682.774 28.3911 682.612C28.7547 682.45 29.1666 682.369 29.6269 682.369C30.2746 682.369 30.7831 682.511 31.1524 682.795C31.5246 683.08 31.7888 683.455 31.945 683.92Z"
            fill="black" />
    </g>
    <g id="C-Bus">
        <rect id="Rectangle 19" x="118" y="12" width="10" height="865" fill="#27E32E" />
        <rect id="Rectangle 20" x="123" y="867" width="141" height="10" fill="#27E32E" />
    </g>
    <g id="B Bus Arrow">
        <path id="Arrow 22"
            d="M371.646 676.646C371.451 676.842 371.451 677.158 371.646 677.354L374.828 680.536C375.024 680.731 375.34 680.731 375.536 680.536C375.731 680.34 375.731 680.024 375.536 679.828L372.707 677L375.536 674.172C375.731 673.976 375.731 673.66 375.536 673.464C375.34 673.269 375.024 673.269 374.828 673.464L371.646 676.646ZM452 676.5H372V677.5H452V676.5Z"
            fill="black" />
        <path id="B Bus"
            d="M455.057 680V671.273H458.108C458.716 671.273 459.217 671.378 459.612 671.588C460.007 671.795 460.301 672.075 460.494 672.428C460.688 672.777 460.784 673.165 460.784 673.591C460.784 673.966 460.717 674.276 460.584 674.52C460.453 674.764 460.28 674.957 460.064 675.099C459.851 675.241 459.619 675.347 459.369 675.415V675.5C459.636 675.517 459.905 675.611 460.175 675.781C460.445 675.952 460.67 676.196 460.852 676.514C461.034 676.832 461.125 677.222 461.125 677.682C461.125 678.119 461.026 678.513 460.827 678.862C460.628 679.212 460.314 679.489 459.885 679.693C459.456 679.898 458.898 680 458.21 680H455.057ZM456.114 679.062H458.21C458.901 679.062 459.391 678.929 459.68 678.662C459.973 678.392 460.119 678.065 460.119 677.682C460.119 677.386 460.044 677.114 459.893 676.864C459.743 676.611 459.528 676.409 459.25 676.259C458.972 676.105 458.642 676.028 458.261 676.028H456.114V679.062ZM456.114 675.108H458.074C458.392 675.108 458.679 675.045 458.935 674.92C459.193 674.795 459.398 674.619 459.548 674.392C459.702 674.165 459.778 673.898 459.778 673.591C459.778 673.207 459.645 672.882 459.378 672.615C459.111 672.345 458.688 672.21 458.108 672.21H456.114V675.108ZM466.237 680V671.273H469.288C469.896 671.273 470.397 671.378 470.792 671.588C471.187 671.795 471.481 672.075 471.674 672.428C471.867 672.777 471.964 673.165 471.964 673.591C471.964 673.966 471.897 674.276 471.763 674.52C471.633 674.764 471.46 674.957 471.244 675.099C471.031 675.241 470.799 675.347 470.549 675.415V675.5C470.816 675.517 471.085 675.611 471.354 675.781C471.624 675.952 471.85 676.196 472.032 676.514C472.214 676.832 472.305 677.222 472.305 677.682C472.305 678.119 472.205 678.513 472.006 678.862C471.808 679.212 471.494 679.489 471.065 679.693C470.636 679.898 470.077 680 469.39 680H466.237ZM467.293 679.062H469.39C470.08 679.062 470.57 678.929 470.86 678.662C471.153 678.392 471.299 678.065 471.299 677.682C471.299 677.386 471.224 677.114 471.073 676.864C470.923 676.611 470.708 676.409 470.43 676.259C470.151 676.105 469.822 676.028 469.441 676.028H467.293V679.062ZM467.293 675.108H469.254C469.572 675.108 469.859 675.045 470.114 674.92C470.373 674.795 470.577 674.619 470.728 674.392C470.881 674.165 470.958 673.898 470.958 673.591C470.958 673.207 470.825 672.882 470.558 672.615C470.29 672.345 469.867 672.21 469.288 672.21H467.293V675.108ZM478.03 677.324V673.455H479.036V680H478.03V678.892H477.962C477.808 679.224 477.57 679.507 477.246 679.74C476.922 679.97 476.513 680.085 476.018 680.085C475.609 680.085 475.246 679.996 474.928 679.817C474.609 679.635 474.359 679.362 474.178 678.999C473.996 678.632 473.905 678.17 473.905 677.614V673.455H474.911V677.545C474.911 678.023 475.044 678.403 475.311 678.688C475.581 678.972 475.925 679.114 476.342 679.114C476.592 679.114 476.847 679.05 477.105 678.922C477.366 678.794 477.585 678.598 477.761 678.334C477.94 678.07 478.03 677.733 478.03 677.324ZM485.514 674.92L484.61 675.176C484.554 675.026 484.47 674.879 484.359 674.737C484.251 674.592 484.103 674.473 483.916 674.379C483.728 674.286 483.488 674.239 483.196 674.239C482.795 674.239 482.461 674.331 482.194 674.516C481.93 674.697 481.798 674.929 481.798 675.21C481.798 675.46 481.889 675.658 482.071 675.803C482.252 675.947 482.537 676.068 482.923 676.165L483.895 676.403C484.48 676.545 484.916 676.763 485.203 677.055C485.49 677.345 485.633 677.719 485.633 678.176C485.633 678.551 485.525 678.886 485.309 679.182C485.096 679.477 484.798 679.71 484.414 679.881C484.031 680.051 483.585 680.136 483.076 680.136C482.409 680.136 481.856 679.991 481.419 679.702C480.981 679.412 480.704 678.989 480.588 678.432L481.542 678.193C481.633 678.545 481.805 678.81 482.058 678.986C482.314 679.162 482.647 679.25 483.059 679.25C483.528 679.25 483.9 679.151 484.176 678.952C484.454 678.75 484.593 678.509 484.593 678.227C484.593 678 484.514 677.81 484.355 677.656C484.196 677.5 483.951 677.384 483.622 677.307L482.531 677.051C481.931 676.909 481.491 676.689 481.21 676.391C480.931 676.089 480.792 675.713 480.792 675.261C480.792 674.892 480.896 674.565 481.103 674.281C481.314 673.997 481.599 673.774 481.96 673.612C482.324 673.45 482.735 673.369 483.196 673.369C483.843 673.369 484.352 673.511 484.721 673.795C485.093 674.08 485.358 674.455 485.514 674.92Z"
            fill="black" />
    </g>
    <g id="ALU 6 Arrow">
        <path id="Arrow 24" d="M252 768L242 762.226V773.774L252 768ZM202 769H243V767H202V769Z" fill="black" />
        <line id="Line 9" x1="230.318" y1="761.323" x2="218.445" y2="775.323" stroke="black" />
        <path id="6"
            d="M221.865 761.119C221.507 761.114 221.149 761.045 220.791 760.915C220.433 760.784 220.106 760.564 219.811 760.254C219.515 759.942 219.278 759.52 219.099 758.989C218.92 758.455 218.83 757.784 218.83 756.977C218.83 756.205 218.903 755.52 219.048 754.923C219.193 754.324 219.403 753.82 219.679 753.411C219.954 752.999 220.286 752.686 220.676 752.473C221.068 752.26 221.509 752.153 222.001 752.153C222.49 752.153 222.924 752.251 223.305 752.447C223.688 752.641 224.001 752.911 224.242 753.257C224.484 753.604 224.64 754.003 224.711 754.455H223.671C223.575 754.063 223.387 753.737 223.109 753.479C222.83 753.22 222.461 753.091 222.001 753.091C221.325 753.091 220.792 753.385 220.403 753.973C220.017 754.561 219.822 755.386 219.819 756.449H219.887C220.046 756.207 220.235 756.001 220.454 755.831C220.676 755.658 220.92 755.524 221.187 755.43C221.454 755.337 221.737 755.29 222.035 755.29C222.535 755.29 222.992 755.415 223.407 755.665C223.822 755.912 224.154 756.254 224.404 756.692C224.654 757.126 224.779 757.625 224.779 758.188C224.779 758.727 224.659 759.222 224.417 759.67C224.176 760.116 223.836 760.472 223.399 760.736C222.964 760.997 222.453 761.125 221.865 761.119ZM221.865 760.182C222.223 760.182 222.544 760.092 222.828 759.913C223.115 759.734 223.34 759.494 223.505 759.193C223.673 758.892 223.757 758.557 223.757 758.188C223.757 757.827 223.676 757.499 223.514 757.203C223.355 756.905 223.134 756.668 222.853 756.491C222.575 756.315 222.257 756.227 221.899 756.227C221.629 756.227 221.377 756.281 221.144 756.389C220.911 756.494 220.707 756.639 220.531 756.824C220.357 757.009 220.221 757.22 220.122 757.459C220.022 757.695 219.973 757.943 219.973 758.205C219.973 758.551 220.054 758.875 220.215 759.176C220.38 759.477 220.605 759.72 220.889 759.905C221.176 760.089 221.501 760.182 221.865 760.182Z"
            fill="black" />
    </g>
    <g id="ALU N Arrow">
        <path id="Arrow 19" d="M424 763.287L414 757.514V769.061L424 763.287ZM374 764.287H415V762.287H374V764.287Z"
            fill="black" />
        <path id="N"
            d="M431.977 757.273V766H430.955L426.199 759.148H426.114V766H425.057V757.273H426.08L430.852 764.142H430.938V757.273H431.977Z"
            fill="black" />
    </g>
    <g id="ALU Z Arrow">
        <path id="Arrow 20_26" d="M424 780L414 774.226V785.774L424 780ZM362 781H415V779H362V781Z" fill="black" />
        <path id="Z"
            d="M424.767 784.787V784.02L429.472 776.997H424.716V776.06H430.733V776.827L426.028 783.85H430.784V784.787H424.767Z"
            fill="black" />
    </g>
    <g id="Shifter Control Arrow">
        <g id="ALU 6 Arrow_2">
            <path id="Arrow 24_2" d="M371 868L381 873.774V862.226L371 868ZM421 867H380V869H421V867Z" fill="black" />
            <line id="Line 9_2" x1="392.682" y1="874.677" x2="404.555" y2="860.677" stroke="black" />
        </g>
        <path id="2"
            d="M398.574 884V883.233L401.455 880.08C401.793 879.71 402.072 879.389 402.29 879.116C402.509 878.841 402.671 878.582 402.776 878.341C402.884 878.097 402.938 877.841 402.938 877.574C402.938 877.267 402.864 877.001 402.716 876.777C402.572 876.553 402.373 876.379 402.12 876.257C401.867 876.135 401.583 876.074 401.268 876.074C400.932 876.074 400.64 876.143 400.39 876.283C400.143 876.419 399.951 876.611 399.814 876.858C399.681 877.105 399.614 877.395 399.614 877.727H398.608C398.608 877.216 398.726 876.767 398.962 876.381C399.198 875.994 399.519 875.693 399.925 875.477C400.334 875.261 400.793 875.153 401.302 875.153C401.813 875.153 402.266 875.261 402.661 875.477C403.056 875.693 403.366 875.984 403.59 876.351C403.814 876.717 403.927 877.125 403.927 877.574C403.927 877.895 403.868 878.209 403.752 878.516C403.638 878.82 403.439 879.159 403.155 879.534C402.874 879.906 402.483 880.361 401.983 880.898L400.023 882.994V883.062H404.08V884H398.574Z"
            fill="black" />
        <path id="Shifter control"
            d="M429.887 865.393C429.831 864.962 429.62 864.629 429.254 864.394C428.888 864.159 428.441 864.044 427.912 864.05C427.526 864.054 427.188 864.12 426.9 864.248C426.614 864.376 426.392 864.55 426.232 864.771C426.075 864.991 425.998 865.241 426.001 865.519C426.004 865.752 426.061 865.952 426.174 866.118C426.289 866.282 426.436 866.418 426.613 866.527C426.79 866.633 426.976 866.72 427.17 866.789C427.364 866.856 427.542 866.909 427.704 866.95L428.593 867.179C428.821 867.237 429.074 867.316 429.354 867.418C429.636 867.521 429.906 867.661 430.164 867.84C430.424 868.017 430.64 868.244 430.81 868.524C430.981 868.803 431.068 869.148 431.073 869.557C431.078 870.028 430.958 870.456 430.715 870.839C430.475 871.222 430.12 871.529 429.651 871.758C429.185 871.987 428.616 872.105 427.946 872.113C427.321 872.119 426.779 872.024 426.319 871.827C425.863 871.63 425.502 871.353 425.237 870.995C424.974 870.637 424.824 870.219 424.784 869.742L425.875 869.731C425.907 870.06 426.021 870.332 426.216 870.545C426.415 870.756 426.663 870.913 426.963 871.015C427.265 871.114 427.589 871.162 427.936 871.158C428.339 871.154 428.701 871.085 429.02 870.951C429.34 870.814 429.592 870.626 429.777 870.389C429.962 870.148 430.053 869.869 430.05 869.55C430.047 869.261 429.963 869.026 429.799 868.846C429.636 868.666 429.421 868.52 429.156 868.409C428.89 868.298 428.604 868.202 428.296 868.12L427.219 867.824C426.535 867.636 425.992 867.362 425.591 867.002C425.189 866.643 424.985 866.169 424.979 865.581C424.974 865.092 425.102 864.665 425.362 864.298C425.625 863.929 425.98 863.641 426.427 863.435C426.876 863.226 427.38 863.118 427.936 863.112C428.499 863.106 429 863.202 429.439 863.399C429.879 863.593 430.229 863.862 430.488 864.206C430.75 864.55 430.89 864.942 430.909 865.382L429.887 865.393ZM433.663 867.961L433.704 871.898L432.699 871.909L432.607 863.182L433.612 863.172L433.646 866.376L433.731 866.375C433.881 866.036 434.108 865.765 434.413 865.563C434.721 865.358 435.132 865.252 435.646 865.247C436.092 865.242 436.483 865.328 436.82 865.503C437.157 865.676 437.42 865.944 437.609 866.309C437.8 866.67 437.899 867.132 437.905 867.695L437.948 871.854L436.943 871.864L436.9 867.774C436.894 867.254 436.755 866.853 436.482 866.572C436.212 866.288 435.84 866.148 435.365 866.153C435.036 866.157 434.741 866.23 434.481 866.372C434.224 866.513 434.022 866.719 433.874 866.987C433.729 867.256 433.659 867.581 433.663 867.961ZM439.788 871.834L439.719 865.289L440.725 865.279L440.794 871.824L439.788 871.834ZM440.219 864.193C440.023 864.195 439.853 864.13 439.71 863.998C439.569 863.866 439.498 863.706 439.496 863.519C439.494 863.331 439.562 863.17 439.7 863.035C439.84 862.9 440.009 862.832 440.205 862.83C440.401 862.827 440.569 862.892 440.71 863.025C440.853 863.157 440.926 863.316 440.928 863.504C440.93 863.691 440.86 863.853 440.72 863.988C440.582 864.123 440.415 864.191 440.219 864.193ZM445.481 865.229L445.49 866.081L441.962 866.118L441.953 865.266L445.481 865.229ZM443.079 871.8L443 864.351C442.996 863.976 443.081 863.663 443.255 863.411C443.428 863.159 443.655 862.969 443.935 862.841C444.215 862.713 444.511 862.648 444.823 862.645C445.071 862.642 445.272 862.66 445.429 862.698C445.586 862.736 445.703 862.772 445.78 862.805L445.499 863.677C445.448 863.661 445.377 863.64 445.285 863.616C445.197 863.591 445.08 863.579 444.936 863.581C444.603 863.584 444.364 863.671 444.218 863.84C444.075 864.009 444.005 864.256 444.008 864.579L444.084 871.789L443.079 871.8ZM449.737 865.184L449.746 866.036L446.354 866.072L446.345 865.22L449.737 865.184ZM447.317 863.641L448.323 863.63L448.389 869.869C448.392 870.153 448.435 870.365 448.519 870.507C448.606 870.645 448.715 870.738 448.846 870.784C448.98 870.829 449.121 870.85 449.268 870.848C449.379 870.847 449.47 870.84 449.541 870.828C449.612 870.813 449.668 870.801 449.711 870.792L449.925 871.694C449.857 871.72 449.762 871.746 449.64 871.773C449.518 871.803 449.364 871.819 449.176 871.821C448.892 871.824 448.613 871.766 448.339 871.646C448.068 871.527 447.842 871.343 447.66 871.095C447.481 870.847 447.39 870.533 447.386 870.152L447.317 863.641ZM453.994 871.821C453.363 871.828 452.818 871.694 452.358 871.421C451.9 871.144 451.545 870.756 451.293 870.256C451.043 869.753 450.915 869.166 450.908 868.496C450.901 867.825 451.017 867.233 451.255 866.719C451.497 866.202 451.837 865.798 452.274 865.507C452.714 865.212 453.23 865.062 453.821 865.056C454.161 865.052 454.499 865.105 454.832 865.215C455.166 865.326 455.47 865.507 455.746 865.76C456.021 866.01 456.242 866.343 456.408 866.759C456.575 867.174 456.661 867.688 456.667 868.299L456.672 868.725L451.627 868.778L451.617 867.909L455.64 867.866C455.636 867.497 455.559 867.168 455.408 866.88C455.26 866.592 455.05 866.365 454.779 866.2C454.51 866.036 454.194 865.955 453.83 865.959C453.429 865.963 453.084 866.066 452.793 866.268C452.506 866.467 452.285 866.725 452.133 867.042C451.98 867.359 451.905 867.698 451.909 868.059L451.915 868.638C451.92 869.133 452.01 869.551 452.184 869.893C452.361 870.232 452.603 870.489 452.912 870.665C453.221 870.838 453.578 870.922 453.985 870.918C454.249 870.915 454.487 870.876 454.699 870.8C454.914 870.721 455.099 870.605 455.254 870.453C455.408 870.298 455.527 870.106 455.61 869.878L456.584 870.14C456.486 870.471 456.317 870.763 456.078 871.015C455.839 871.265 455.543 871.461 455.189 871.604C454.836 871.744 454.437 871.817 453.994 871.821ZM458.232 871.64L458.163 865.095L459.135 865.085L459.145 866.073L459.214 866.073C459.33 865.748 459.543 865.483 459.853 865.278C460.163 865.073 460.515 864.968 460.907 864.964C460.98 864.963 461.073 864.964 461.184 864.965C461.294 864.967 461.378 864.97 461.435 864.975L461.446 865.998C461.412 865.99 461.333 865.978 461.211 865.962C461.092 865.944 460.965 865.935 460.832 865.936C460.513 865.94 460.23 866.01 459.981 866.146C459.736 866.279 459.542 866.463 459.399 866.697C459.26 866.929 459.191 867.192 459.194 867.488L459.238 871.63L458.232 871.64ZM468.732 871.666C468.119 871.673 467.589 871.533 467.142 871.248C466.696 870.963 466.351 870.567 466.107 870.061C465.863 869.556 465.738 868.976 465.731 868.322C465.724 867.658 465.84 867.07 466.079 866.559C466.321 866.045 466.66 865.642 467.097 865.351C467.538 865.056 468.053 864.906 468.644 864.9C469.104 864.895 469.52 864.976 469.891 865.142C470.262 865.309 470.567 865.544 470.806 865.848C471.045 866.153 471.195 866.509 471.256 866.918L470.251 866.928C470.171 866.631 469.998 866.368 469.731 866.141C469.467 865.911 469.114 865.798 468.67 865.803C468.278 865.807 467.936 865.913 467.642 866.12C467.352 866.325 467.126 866.613 466.965 866.984C466.807 867.352 466.731 867.783 466.736 868.278C466.742 868.783 466.826 869.223 466.989 869.596C467.155 869.969 467.385 870.258 467.68 870.463C467.977 870.667 468.325 870.767 468.723 870.763C468.984 870.76 469.221 870.712 469.433 870.619C469.645 870.526 469.824 870.393 469.97 870.221C470.116 870.049 470.219 869.843 470.279 869.604L471.284 869.594C471.232 869.981 471.095 870.33 470.874 870.642C470.655 870.951 470.364 871.199 469.999 871.384C469.637 871.567 469.215 871.661 468.732 871.666ZM475.435 871.595C474.844 871.602 474.324 871.467 473.875 871.19C473.429 870.913 473.078 870.524 472.823 870.021C472.571 869.518 472.441 868.928 472.434 868.252C472.426 867.57 472.544 866.974 472.786 866.463C473.03 865.951 473.373 865.553 473.813 865.267C474.256 864.981 474.773 864.835 475.364 864.829C475.955 864.823 476.473 864.958 476.919 865.234C477.368 865.511 477.719 865.902 477.971 866.408C478.227 866.914 478.358 867.508 478.365 868.189C478.372 868.866 478.254 869.458 478.009 869.966C477.767 870.474 477.425 870.871 476.982 871.157C476.541 871.443 476.026 871.589 475.435 871.595ZM475.425 870.692C475.874 870.687 476.242 870.568 476.53 870.335C476.817 870.102 477.028 869.797 477.164 869.421C477.299 869.044 477.364 868.637 477.36 868.2C477.355 867.763 477.281 867.356 477.138 866.979C476.995 866.603 476.777 866.3 476.485 866.07C476.193 865.84 475.822 865.727 475.373 865.732C474.924 865.737 474.556 865.857 474.269 866.093C473.982 866.329 473.77 866.637 473.635 867.016C473.5 867.395 473.435 867.804 473.439 868.241C473.444 868.679 473.518 869.084 473.661 869.458C473.804 869.831 474.022 870.132 474.314 870.359C474.606 870.586 474.977 870.697 475.425 870.692ZM480.898 867.464L480.94 871.401L479.934 871.412L479.865 864.867L480.837 864.856L480.848 865.879L480.933 865.878C481.083 865.544 481.313 865.275 481.623 865.07C481.934 864.862 482.336 864.755 482.83 864.75C483.273 864.746 483.662 864.832 483.996 865.011C484.331 865.186 484.592 865.456 484.781 865.821C484.969 866.182 485.066 866.642 485.072 867.198L485.116 871.357L484.11 871.368L484.067 867.277C484.062 866.763 483.924 866.364 483.654 866.08C483.384 865.793 483.016 865.652 482.55 865.657C482.229 865.66 481.943 865.733 481.691 865.874C481.443 866.016 481.248 866.221 481.106 866.49C480.964 866.759 480.894 867.083 480.898 867.464ZM489.731 864.763L489.74 865.615L486.348 865.651L486.339 864.798L489.731 864.763ZM487.311 863.22L488.317 863.209L488.383 869.448C488.386 869.732 488.429 869.944 488.513 870.086C488.6 870.224 488.708 870.316 488.84 870.363C488.974 870.407 489.114 870.429 489.262 870.427C489.373 870.426 489.464 870.419 489.535 870.407C489.606 870.392 489.662 870.38 489.705 870.371L489.919 871.273C489.851 871.299 489.756 871.325 489.634 871.352C489.512 871.382 489.358 871.398 489.17 871.4C488.886 871.403 488.607 871.345 488.333 871.225C488.062 871.106 487.836 870.922 487.654 870.674C487.475 870.426 487.384 870.112 487.38 869.731L487.311 863.22ZM491.313 871.292L491.244 864.747L492.215 864.737L492.226 865.725L492.294 865.724C492.41 865.399 492.623 865.134 492.933 864.929C493.244 864.724 493.595 864.62 493.987 864.616C494.061 864.615 494.153 864.615 494.264 864.617C494.375 864.619 494.458 864.622 494.515 864.627L494.526 865.65C494.492 865.642 494.414 865.63 494.291 865.614C494.172 865.595 494.045 865.587 493.912 865.588C493.594 865.591 493.31 865.661 493.062 865.797C492.816 865.931 492.622 866.114 492.479 866.349C492.34 866.581 492.272 866.844 492.275 867.14L492.318 871.281L491.313 871.292ZM498.238 871.355C497.647 871.362 497.128 871.226 496.679 870.95C496.232 870.673 495.882 870.284 495.626 869.781C495.374 869.277 495.244 868.688 495.237 868.012C495.23 867.33 495.347 866.734 495.589 866.222C495.834 865.711 496.176 865.313 496.616 865.027C497.059 864.741 497.576 864.595 498.167 864.589C498.758 864.582 499.276 864.718 499.723 864.994C500.172 865.271 500.522 865.662 500.775 866.168C501.03 866.674 501.161 867.268 501.169 867.949C501.176 868.625 501.057 869.218 500.812 869.726C500.57 870.234 500.228 870.631 499.785 870.917C499.345 871.203 498.829 871.349 498.238 871.355ZM498.229 870.452C498.678 870.447 499.046 870.328 499.333 870.095C499.62 869.862 499.832 869.557 499.967 869.181C500.102 868.804 500.168 868.397 500.163 867.96C500.158 867.522 500.084 867.116 499.941 866.739C499.798 866.363 499.58 866.06 499.288 865.83C498.996 865.6 498.625 865.487 498.177 865.492C497.728 865.497 497.36 865.617 497.072 865.853C496.785 866.089 496.574 866.397 496.439 866.776C496.303 867.155 496.238 867.564 496.243 868.001C496.247 868.439 496.321 868.844 496.464 869.218C496.607 869.591 496.825 869.891 497.117 870.119C497.41 870.346 497.78 870.457 498.229 870.452ZM503.651 862.434L503.743 871.161L502.738 871.172L502.646 862.445L503.651 862.434Z"
            fill="black" />
    </g>
    <defs>
        <filter id="filter0_b_0_1" x="234.009" y="711" width="31.094" height="28" filterUnits="userSpaceOnUse"
            color-interpolation-filters="sRGB">
            <feFlood flood-opacity="0" result="BackgroundImageFix" />
            <feGaussianBlur in="BackgroundImageFix" stdDeviation="2" />
            <feComposite in2="SourceAlpha" operator="in" result="effect1_backgroundBlur_0_1" />
            <feBlend mode="normal" in="SourceGraphic" in2="effect1_backgroundBlur_0_1" result="shape" />
        </filter>
        <filter id="filter1_b_0_1" x="338.309" y="69.6752" width="28" height="31.094" filterUnits="userSpaceOnUse"
            color-interpolation-filters="sRGB">
            <feFlood flood-opacity="0" result="BackgroundImageFix" />
            <feGaussianBlur in="BackgroundImageFix" stdDeviation="2" />
            <feComposite in2="SourceAlpha" operator="in" result="effect1_backgroundBlur_0_1" />
            <feBlend mode="normal" in="SourceGraphic" in2="effect1_backgroundBlur_0_1" result="shape" />
        </filter>
        <filter id="filter2_b_0_1" x="338.309" y="139.675" width="28" height="31.094" filterUnits="userSpaceOnUse"
            color-interpolation-filters="sRGB">
            <feFlood flood-opacity="0" result="BackgroundImageFix" />
            <feGaussianBlur in="BackgroundImageFix" stdDeviation="2" />
            <feComposite in2="SourceAlpha" operator="in" result="effect1_backgroundBlur_0_1" />
            <feBlend mode="normal" in="SourceGraphic" in2="effect1_backgroundBlur_0_1" result="shape" />
        </filter>
        <filter id="filter3_b_0_1" x="338.309" y="211.675" width="28" height="31.094" filterUnits="userSpaceOnUse"
            color-interpolation-filters="sRGB">
            <feFlood flood-opacity="0" result="BackgroundImageFix" />
            <feGaussianBlur in="BackgroundImageFix" stdDeviation="2" />
            <feComposite in2="SourceAlpha" operator="in" result="effect1_backgroundBlur_0_1" />
            <feBlend mode="normal" in="SourceGraphic" in2="effect1_backgroundBlur_0_1" result="shape" />
        </filter>
        <filter id="filter4_b_0_1" x="338.309" y="222.675" width="28" height="31.094" filterUnits="userSpaceOnUse"
            color-interpolation-filters="sRGB">
            <feFlood flood-opacity="0" result="BackgroundImageFix" />
            <feGaussianBlur in="BackgroundImageFix" stdDeviation="2" />
            <feComposite in2="SourceAlpha" operator="in" result="effect1_backgroundBlur_0_1" />
            <feBlend mode="normal" in="SourceGraphic" in2="effect1_backgroundBlur_0_1" result="shape" />
        </filter>
        <filter id="filter5_b_0_1" x="338.309" y="284.048" width="28" height="31.094" filterUnits="userSpaceOnUse"
            color-interpolation-filters="sRGB">
            <feFlood flood-opacity="0" result="BackgroundImageFix" />
            <feGaussianBlur in="BackgroundImageFix" stdDeviation="2" />
            <feComposite in2="SourceAlpha" operator="in" result="effect1_backgroundBlur_0_1" />
            <feBlend mode="normal" in="SourceGraphic" in2="effect1_backgroundBlur_0_1" result="shape" />
        </filter>
        <filter id="filter6_b_0_1" x="339.22" y="353.675" width="28" height="31.094" filterUnits="userSpaceOnUse"
            color-interpolation-filters="sRGB">
            <feFlood flood-opacity="0" result="BackgroundImageFix" />
            <feGaussianBlur in="BackgroundImageFix" stdDeviation="2" />
            <feComposite in2="SourceAlpha" operator="in" result="effect1_backgroundBlur_0_1" />
            <feBlend mode="normal" in="SourceGraphic" in2="effect1_backgroundBlur_0_1" result="shape" />
        </filter>
        <filter id="filter7_b_0_1" x="338.309" y="425.675" width="28" height="31.094" filterUnits="userSpaceOnUse"
            color-interpolation-filters="sRGB">
            <feFlood flood-opacity="0" result="BackgroundImageFix" />
            <feGaussianBlur in="BackgroundImageFix" stdDeviation="2" />
            <feComposite in2="SourceAlpha" operator="in" result="effect1_backgroundBlur_0_1" />
            <feBlend mode="normal" in="SourceGraphic" in2="effect1_backgroundBlur_0_1" result="shape" />
        </filter>
        <filter id="filter8_b_0_1" x="339.22" y="495.675" width="28" height="31.094" filterUnits="userSpaceOnUse"
            color-interpolation-filters="sRGB">
            <feFlood flood-opacity="0" result="BackgroundImageFix" />
            <feGaussianBlur in="BackgroundImageFix" stdDeviation="2" />
            <feComposite in2="SourceAlpha" operator="in" result="effect1_backgroundBlur_0_1" />
            <feBlend mode="normal" in="SourceGraphic" in2="effect1_backgroundBlur_0_1" result="shape" />
        </filter>
        <filter id="filter9_b_0_1" x="340.13" y="566.675" width="28" height="31.094" filterUnits="userSpaceOnUse"
            color-interpolation-filters="sRGB">
            <feFlood flood-opacity="0" result="BackgroundImageFix" />
            <feGaussianBlur in="BackgroundImageFix" stdDeviation="2" />
            <feComposite in2="SourceAlpha" operator="in" result="effect1_backgroundBlur_0_1" />
            <feBlend mode="normal" in="SourceGraphic" in2="effect1_backgroundBlur_0_1" result="shape" />
        </filter>
        <filter id="filter10_b_0_1" x="72" y="9.8974" width="28" height="31.094" filterUnits="userSpaceOnUse"
            color-interpolation-filters="sRGB">
            <feFlood flood-opacity="0" result="BackgroundImageFix" />
            <feGaussianBlur in="BackgroundImageFix" stdDeviation="2" />
            <feComposite in2="SourceAlpha" operator="in" result="effect1_backgroundBlur_0_1" />
            <feBlend mode="normal" in="SourceGraphic" in2="effect1_backgroundBlur_0_1" result="shape" />
        </filter>
        <filter id="filter11_b_0_1" x="72.2439" y="150.897" width="28" height="31.094" filterUnits="userSpaceOnUse"
            color-interpolation-filters="sRGB">
            <feFlood flood-opacity="0" result="BackgroundImageFix" />
            <feGaussianBlur in="BackgroundImageFix" stdDeviation="2" />
            <feComposite in2="SourceAlpha" operator="in" result="effect1_backgroundBlur_0_1" />
            <feBlend mode="normal" in="SourceGraphic" in2="effect1_backgroundBlur_0_1" result="shape" />
        </filter>
        <filter id="filter12_b_0_1" x="154.756" y="220.009" width="28" height="31.094" filterUnits="userSpaceOnUse"
            color-interpolation-filters="sRGB">
            <feFlood flood-opacity="0" result="BackgroundImageFix" />
            <feGaussianBlur in="BackgroundImageFix" stdDeviation="2" />
            <feComposite in2="SourceAlpha" operator="in" result="effect1_backgroundBlur_0_1" />
            <feBlend mode="normal" in="SourceGraphic" in2="effect1_backgroundBlur_0_1" result="shape" />
        </filter>
        <filter id="filter13_b_0_1" x="158.866" y="84.453" width="28" height="31.094" filterUnits="userSpaceOnUse"
            color-interpolation-filters="sRGB">
            <feFlood flood-opacity="0" result="BackgroundImageFix" />
            <feGaussianBlur in="BackgroundImageFix" stdDeviation="2" />
            <feComposite in2="SourceAlpha" operator="in" result="effect1_backgroundBlur_0_1" />
            <feBlend mode="normal" in="SourceGraphic" in2="effect1_backgroundBlur_0_1" result="shape" />
        </filter>
        <filter id="filter14_b_0_1" x="72" y="84.453" width="28" height="31.094" filterUnits="userSpaceOnUse"
            color-interpolation-filters="sRGB">
            <feFlood flood-opacity="0" result="BackgroundImageFix" />
            <feGaussianBlur in="BackgroundImageFix" stdDeviation="2" />
            <feComposite in2="SourceAlpha" operator="in" result="effect1_backgroundBlur_0_1" />
            <feBlend mode="normal" in="SourceGraphic" in2="effect1_backgroundBlur_0_1" result="shape" />
        </filter>
        <filter id="filter15_b_0_1" x="155.546" y="64.6752" width="28" height="31.094" filterUnits="userSpaceOnUse"
            color-interpolation-filters="sRGB">
            <feFlood flood-opacity="0" result="BackgroundImageFix" />
            <feGaussianBlur in="BackgroundImageFix" stdDeviation="2" />
            <feComposite in2="SourceAlpha" operator="in" result="effect1_backgroundBlur_0_1" />
            <feBlend mode="normal" in="SourceGraphic" in2="effect1_backgroundBlur_0_1" result="shape" />
        </filter>
        <filter id="filter16_b_0_1" x="155.364" y="-0.324768" width="28" height="31.094" filterUnits="userSpaceOnUse"
            color-interpolation-filters="sRGB">
            <feFlood flood-opacity="0" result="BackgroundImageFix" />
            <feGaussianBlur in="BackgroundImageFix" stdDeviation="2" />
            <feComposite in2="SourceAlpha" operator="in" result="effect1_backgroundBlur_0_1" />
            <feBlend mode="normal" in="SourceGraphic" in2="effect1_backgroundBlur_0_1" result="shape" />
        </filter>
        <filter id="filter17_b_0_1" x="155.546" y="139.675" width="28" height="31.094" filterUnits="userSpaceOnUse"
            color-interpolation-filters="sRGB">
            <feFlood flood-opacity="0" result="BackgroundImageFix" />
            <feGaussianBlur in="BackgroundImageFix" stdDeviation="2" />
            <feComposite in2="SourceAlpha" operator="in" result="effect1_backgroundBlur_0_1" />
            <feBlend mode="normal" in="SourceGraphic" in2="effect1_backgroundBlur_0_1" result="shape" />
        </filter>
        <filter id="filter18_b_0_1" x="155.546" y="285.675" width="28" height="31.094" filterUnits="userSpaceOnUse"
            color-interpolation-filters="sRGB">
            <feFlood flood-opacity="0" result="BackgroundImageFix" />
            <feGaussianBlur in="BackgroundImageFix" stdDeviation="2" />
            <feComposite in2="SourceAlpha" operator="in" result="effect1_backgroundBlur_0_1" />
            <feBlend mode="normal" in="SourceGraphic" in2="effect1_backgroundBlur_0_1" result="shape" />
        </filter>
        <filter id="filter19_b_0_1" x="154.545" y="360.675" width="28" height="31.094" filterUnits="userSpaceOnUse"
            color-interpolation-filters="sRGB">
            <feFlood flood-opacity="0" result="BackgroundImageFix" />
            <feGaussianBlur in="BackgroundImageFix" stdDeviation="2" />
            <feComposite in2="SourceAlpha" operator="in" result="effect1_backgroundBlur_0_1" />
            <feBlend mode="normal" in="SourceGraphic" in2="effect1_backgroundBlur_0_1" result="shape" />
        </filter>
        <filter id="filter20_b_0_1" x="155.545" y="497.675" width="28" height="31.094" filterUnits="userSpaceOnUse"
            color-interpolation-filters="sRGB">
            <feFlood flood-opacity="0" result="BackgroundImageFix" />
            <feGaussianBlur in="BackgroundImageFix" stdDeviation="2" />
            <feComposite in2="SourceAlpha" operator="in" result="effect1_backgroundBlur_0_1" />
            <feBlend mode="normal" in="SourceGraphic" in2="effect1_backgroundBlur_0_1" result="shape" />
        </filter>
        <filter id="filter21_b_0_1" x="154.546" y="425.675" width="28" height="31.094" filterUnits="userSpaceOnUse"
            color-interpolation-filters="sRGB">
            <feFlood flood-opacity="0" result="BackgroundImageFix" />
            <feGaussianBlur in="BackgroundImageFix" stdDeviation="2" />
            <feComposite in2="SourceAlpha" operator="in" result="effect1_backgroundBlur_0_1" />
            <feBlend mode="normal" in="SourceGraphic" in2="effect1_backgroundBlur_0_1" result="shape" />
        </filter>
        <filter id="filter22_b_0_1" x="155.545" y="565.675" width="28" height="31.094" filterUnits="userSpaceOnUse"
            color-interpolation-filters="sRGB">
            <feFlood flood-opacity="0" result="BackgroundImageFix" />
            <feGaussianBlur in="BackgroundImageFix" stdDeviation="2" />
            <feComposite in2="SourceAlpha" operator="in" result="effect1_backgroundBlur_0_1" />
            <feBlend mode="normal" in="SourceGraphic" in2="effect1_backgroundBlur_0_1" result="shape" />
        </filter>
        <filter id="filter23_b_0_1" x="155.545" y="641.675" width="28" height="31.094" filterUnits="userSpaceOnUse"
            color-interpolation-filters="sRGB">
            <feFlood flood-opacity="0" result="BackgroundImageFix" />
            <feGaussianBlur in="BackgroundImageFix" stdDeviation="2" />
            <feComposite in2="SourceAlpha" operator="in" result="effect1_backgroundBlur_0_1" />
            <feBlend mode="normal" in="SourceGraphic" in2="effect1_backgroundBlur_0_1" result="shape" />
        </filter>
        <filter id="filter24_b_0_1" x="298.231" y="824" width="31.094" height="28" filterUnits="userSpaceOnUse"
            color-interpolation-filters="sRGB">
            <feFlood flood-opacity="0" result="BackgroundImageFix" />
            <feGaussianBlur in="BackgroundImageFix" stdDeviation="2" />
            <feComposite in2="SourceAlpha" operator="in" result="effect1_backgroundBlur_0_1" />
            <feBlend mode="normal" in="SourceGraphic" in2="effect1_backgroundBlur_0_1" result="shape" />
        </filter>
        <filter id="filter25_b_0_1" x="347.898" y="591" width="31.0934" height="152" filterUnits="userSpaceOnUse"
            color-interpolation-filters="sRGB">
            <feFlood flood-opacity="0" result="BackgroundImageFix" />
            <feGaussianBlur in="BackgroundImageFix" stdDeviation="2" />
            <feComposite in2="SourceAlpha" operator="in" result="effect1_backgroundBlur_0_1" />
            <feBlend mode="normal" in="SourceGraphic" in2="effect1_backgroundBlur_0_1" result="shape" />
        </filter>
    </defs>
</svg>