<svg viewBox="0 0 504 887" fill="none" xmlns="http://www.w3.org/2000/svg" class="svg">

    <g id="ALU" transform="translate(0 -150)">
        <path id="Line 1" d="M224 735L275.5 734" stroke="black" stroke-width="2" />
        <line id="Line 4" x1="275" y1="795" x2="349" y2="795" stroke="black" stroke-width="2" />
        <path id="Line 3" d="M347.951 735.989L399 735.967" stroke="black" stroke-width="2" />
        <line id="Line 2" x1="296" y1="758" x2="327" y2="758" stroke="black" stroke-width="2" />
        <line id="Line 5" y1="-1" x2="80.054" y2="-1"
            transform="matrix(0.637551 0.770408 -0.734037 0.679109 224 734.888)" stroke="black"
            stroke-width="2" />
        <line id="Line 6" x1="274.731" y1="734.318" x2="296.605" y2="757.743" stroke="black"
            stroke-width="2" />
        <line id="Line 7" y1="-1" x2="31.0503" y2="-1"
            transform="matrix(0.700179 -0.713968 0.673889 0.738833 327.333 758.765)" stroke="black"
            stroke-width="2" />
        <path id="Line 8" d="M398.469 735.989L347.43 796.011" stroke="black" stroke-width="2" />
        <path id="ALU_2"
            d="M304.415 780H303.307L306.511 771.273H307.602L310.807 780H309.699L307.091 772.653H307.023L304.415 780ZM304.824 776.591H309.29V777.528H304.824V776.591ZM312.166 780V771.273H313.223V779.062H317.28V780H312.166ZM324.643 771.273H325.7V777.051C325.7 777.648 325.56 778.18 325.278 778.649C325 779.115 324.607 779.483 324.098 779.753C323.589 780.02 322.993 780.153 322.308 780.153C321.624 780.153 321.027 780.02 320.518 779.753C320.01 779.483 319.615 779.115 319.334 778.649C319.055 778.18 318.916 777.648 318.916 777.051V771.273H319.973V776.966C319.973 777.392 320.067 777.771 320.254 778.104C320.442 778.433 320.709 778.693 321.055 778.884C321.405 779.071 321.822 779.165 322.308 779.165C322.794 779.165 323.212 779.071 323.561 778.884C323.911 778.693 324.178 778.433 324.362 778.104C324.55 777.771 324.643 777.392 324.643 776.966V771.273Z"
            fill="black" />
    </g>


    <!-- shifter-Bus Component -->
    <g app-shifter #shifter [speed]="animationSpeed * 0.5" (endEvent)="endAnimation($event)" />

    <!-- C-Bus Component -->
    <g app-c-bus #cBus [speed]="animationSpeed" />

    <!-- B-Bus Component -->
    <g app-b-bus #bBus [speed]="animationSpeed" (endEvent)="endAnimation($event)" />

    <!-- A-Bus Component -->
    <g app-a-bus #aBus [speed]="animationSpeed * 0.5" (endEvent)="endAnimation($event)" />

    <!-- N and Z Arrows -->
    <g app-alu-flag-arrows />

    <g id="Shifter" transform="translate(0 -175)">
        <g id="H_3">
            <rect id="Rectangle 17_2" x="265" y="850" width="106" height="36" fill="#D9D9D9"
                stroke="black"
                stroke-width="2" />
        </g>
        <path id="Shifter_2"
            d="M305.83 865.455C305.778 865.023 305.571 864.688 305.207 864.449C304.844 864.21 304.398 864.091 303.869 864.091C303.483 864.091 303.145 864.153 302.855 864.278C302.568 864.403 302.344 864.575 302.182 864.794C302.023 865.013 301.943 865.261 301.943 865.54C301.943 865.773 301.999 865.973 302.109 866.141C302.223 866.305 302.368 866.443 302.544 866.554C302.72 866.662 302.905 866.751 303.098 866.822C303.291 866.891 303.469 866.946 303.631 866.989L304.517 867.227C304.744 867.287 304.997 867.369 305.276 867.474C305.557 867.58 305.825 867.723 306.081 867.905C306.339 868.084 306.553 868.314 306.72 868.595C306.888 868.876 306.972 869.222 306.972 869.631C306.972 870.102 306.848 870.528 306.601 870.909C306.357 871.29 305.999 871.592 305.527 871.817C305.058 872.041 304.489 872.153 303.818 872.153C303.193 872.153 302.652 872.053 302.195 871.851C301.74 871.649 301.382 871.368 301.121 871.007C300.862 870.646 300.716 870.227 300.682 869.75H301.773C301.801 870.08 301.912 870.352 302.105 870.568C302.301 870.781 302.548 870.94 302.847 871.045C303.148 871.148 303.472 871.199 303.818 871.199C304.222 871.199 304.584 871.134 304.905 871.003C305.226 870.869 305.48 870.685 305.668 870.449C305.855 870.21 305.949 869.932 305.949 869.614C305.949 869.324 305.868 869.088 305.706 868.906C305.544 868.724 305.331 868.577 305.067 868.463C304.803 868.349 304.517 868.25 304.21 868.165L303.136 867.858C302.455 867.662 301.915 867.382 301.517 867.018C301.119 866.655 300.92 866.179 300.92 865.591C300.92 865.102 301.053 864.676 301.317 864.312C301.584 863.946 301.942 863.662 302.391 863.46C302.842 863.256 303.347 863.153 303.903 863.153C304.466 863.153 304.966 863.254 305.403 863.456C305.841 863.655 306.188 863.928 306.443 864.274C306.702 864.621 306.838 865.014 306.852 865.455H305.83ZM309.578 868.062V872H308.573V863.273H309.578V866.477H309.664C309.817 866.139 310.047 865.871 310.354 865.672C310.664 865.47 311.076 865.369 311.59 865.369C312.036 865.369 312.426 865.459 312.762 865.638C313.097 865.814 313.357 866.085 313.542 866.452C313.729 866.815 313.823 867.278 313.823 867.841V872H312.817V867.909C312.817 867.389 312.682 866.987 312.412 866.703C312.145 866.416 311.775 866.273 311.3 866.273C310.971 866.273 310.675 866.342 310.414 866.482C310.155 866.621 309.951 866.824 309.8 867.091C309.652 867.358 309.578 867.682 309.578 868.062ZM315.663 872V865.455H316.668V872H315.663ZM316.174 864.364C315.978 864.364 315.809 864.297 315.667 864.163C315.528 864.03 315.458 863.869 315.458 863.682C315.458 863.494 315.528 863.334 315.667 863.2C315.809 863.067 315.978 863 316.174 863C316.37 863 316.538 863.067 316.677 863.2C316.819 863.334 316.89 863.494 316.89 863.682C316.89 863.869 316.819 864.03 316.677 864.163C316.538 864.297 316.37 864.364 316.174 864.364ZM321.425 865.455V866.307H317.897V865.455H321.425ZM318.953 872V864.551C318.953 864.176 319.042 863.864 319.218 863.614C319.394 863.364 319.623 863.176 319.904 863.051C320.185 862.926 320.482 862.864 320.794 862.864C321.042 862.864 321.243 862.884 321.4 862.923C321.556 862.963 321.672 863 321.749 863.034L321.459 863.903C321.408 863.886 321.337 863.865 321.246 863.839C321.158 863.814 321.042 863.801 320.897 863.801C320.564 863.801 320.324 863.885 320.176 864.053C320.032 864.22 319.959 864.466 319.959 864.79V872H318.953ZM325.681 865.455V866.307H322.289V865.455H325.681ZM323.278 863.886H324.283V870.125C324.283 870.409 324.325 870.622 324.407 870.764C324.492 870.903 324.6 870.997 324.731 871.045C324.864 871.091 325.005 871.114 325.153 871.114C325.263 871.114 325.354 871.108 325.425 871.097C325.496 871.082 325.553 871.071 325.596 871.062L325.8 871.966C325.732 871.991 325.637 872.017 325.515 872.043C325.393 872.071 325.238 872.085 325.05 872.085C324.766 872.085 324.488 872.024 324.215 871.902C323.945 871.78 323.721 871.594 323.542 871.344C323.366 871.094 323.278 870.778 323.278 870.398V863.886ZM329.868 872.136C329.237 872.136 328.693 871.997 328.236 871.719C327.781 871.438 327.43 871.045 327.183 870.543C326.939 870.037 326.817 869.449 326.817 868.778C326.817 868.108 326.939 867.517 327.183 867.006C327.43 866.491 327.774 866.091 328.214 865.804C328.658 865.514 329.175 865.369 329.766 865.369C330.107 865.369 330.443 865.426 330.776 865.54C331.108 865.653 331.411 865.838 331.683 866.094C331.956 866.347 332.173 866.682 332.335 867.099C332.497 867.517 332.578 868.031 332.578 868.642V869.068H327.533V868.199H331.555C331.555 867.83 331.482 867.5 331.334 867.21C331.189 866.92 330.982 866.692 330.712 866.524C330.445 866.357 330.129 866.273 329.766 866.273C329.365 866.273 329.018 866.372 328.726 866.571C328.436 866.767 328.213 867.023 328.057 867.338C327.901 867.653 327.822 867.991 327.822 868.352V868.932C327.822 869.426 327.908 869.845 328.078 870.189C328.251 870.53 328.491 870.79 328.798 870.969C329.105 871.145 329.462 871.233 329.868 871.233C330.132 871.233 330.371 871.196 330.584 871.122C330.8 871.045 330.986 870.932 331.142 870.781C331.298 870.628 331.419 870.437 331.504 870.21L332.476 870.483C332.374 870.812 332.202 871.102 331.96 871.352C331.719 871.599 331.42 871.793 331.065 871.932C330.71 872.068 330.311 872.136 329.868 872.136ZM334.108 872V865.455H335.08V866.443H335.148C335.267 866.119 335.483 865.857 335.795 865.655C336.108 865.453 336.46 865.352 336.852 865.352C336.926 865.352 337.018 865.354 337.129 865.357C337.24 865.359 337.324 865.364 337.381 865.369V866.392C337.347 866.384 337.268 866.371 337.146 866.354C337.027 866.334 336.901 866.324 336.767 866.324C336.449 866.324 336.165 866.391 335.915 866.524C335.668 866.655 335.472 866.837 335.327 867.07C335.185 867.3 335.114 867.562 335.114 867.858V872H334.108Z"
            fill="black" />
    </g>

    <!-- !!! Controll Arrows here !!!
    <g id="C Bus Arrow" transform="translate(0,-135)">
        <path id="Arrow 23"
            d="M116.354 687.354C116.549 687.158 116.549 686.842 116.354 686.646L113.172 683.464C112.976 683.269 112.66 683.269 112.464 683.464C112.269 683.66 112.269 683.976 112.464 684.172L115.293 687L112.464 689.828C112.269 690.024 112.269 690.34 112.464 690.536C112.66 690.731 112.976 690.731 113.172 690.536L116.354 687.354ZM36 687.5H116V686.5H36V687.5Z"
            fill="black" />
        <path id="C Bus"
            d="M7.58495 683H6.52813C6.46563 682.696 6.35625 682.429 6.2 682.199C6.04659 681.969 5.85909 681.776 5.6375 681.619C5.41875 681.46 5.17586 681.341 4.90881 681.261C4.64177 681.182 4.36336 681.142 4.07358 681.142C3.54517 681.142 3.06648 681.276 2.6375 681.543C2.21137 681.81 1.87188 682.203 1.61904 682.723C1.36904 683.243 1.24404 683.881 1.24404 684.636C1.24404 685.392 1.36904 686.03 1.61904 686.55C1.87188 687.07 2.21137 687.463 2.6375 687.73C3.06648 687.997 3.54517 688.131 4.07358 688.131C4.36336 688.131 4.64177 688.091 4.90881 688.011C5.17586 687.932 5.41875 687.814 5.6375 687.658C5.85909 687.499 6.04659 687.304 6.2 687.074C6.35625 686.841 6.46563 686.574 6.52813 686.273H7.58495C7.5054 686.719 7.36052 687.118 7.15029 687.47C6.94006 687.822 6.6787 688.122 6.3662 688.369C6.0537 688.614 5.70285 688.8 5.31364 688.928C4.92728 689.055 4.51392 689.119 4.07358 689.119C3.32927 689.119 2.66733 688.938 2.08779 688.574C1.50824 688.21 1.05228 687.693 0.71989 687.023C0.387504 686.352 0.221311 685.557 0.221311 684.636C0.221311 683.716 0.387504 682.92 0.71989 682.25C1.05228 681.58 1.50824 681.062 2.08779 680.699C2.66733 680.335 3.32927 680.153 4.07358 680.153C4.51392 680.153 4.92728 680.217 5.31364 680.345C5.70285 680.473 6.0537 680.661 6.3662 680.908C6.6787 681.152 6.94006 681.45 7.15029 681.803C7.36052 682.152 7.5054 682.551 7.58495 683ZM12.6677 689V680.273H15.7188C16.3268 680.273 16.8282 680.378 17.2231 680.588C17.618 680.795 17.912 681.075 18.1052 681.428C18.2984 681.777 18.395 682.165 18.395 682.591C18.395 682.966 18.3282 683.276 18.1947 683.52C18.064 683.764 17.8907 683.957 17.6748 684.099C17.4617 684.241 17.2302 684.347 16.9802 684.415V684.5C17.2472 684.517 17.5157 684.611 17.7856 684.781C18.0555 684.952 18.2813 685.196 18.4631 685.514C18.645 685.832 18.7359 686.222 18.7359 686.682C18.7359 687.119 18.6364 687.513 18.4376 687.862C18.2387 688.212 17.9248 688.489 17.4958 688.693C17.0668 688.898 16.5086 689 15.8211 689H12.6677ZM13.7245 688.062H15.8211C16.5114 688.062 17.0015 687.929 17.2913 687.662C17.5839 687.392 17.7302 687.065 17.7302 686.682C17.7302 686.386 17.6549 686.114 17.5043 685.864C17.3538 685.611 17.1393 685.409 16.8609 685.259C16.5825 685.105 16.2529 685.028 15.8722 685.028H13.7245V688.062ZM13.7245 684.108H15.6847C16.0029 684.108 16.2898 684.045 16.5455 683.92C16.8041 683.795 17.0086 683.619 17.1592 683.392C17.3126 683.165 17.3893 682.898 17.3893 682.591C17.3893 682.207 17.2558 681.882 16.9887 681.615C16.7217 681.345 16.2984 681.21 15.7188 681.21H13.7245V684.108ZM24.461 686.324V682.455H25.4667V689H24.461V687.892H24.3928C24.2394 688.224 24.0008 688.507 23.6769 688.74C23.3531 688.97 22.944 689.085 22.4496 689.085C22.0406 689.085 21.6769 688.996 21.3587 688.817C21.0406 688.635 20.7906 688.362 20.6087 687.999C20.4269 687.632 20.336 687.17 20.336 686.614V682.455H21.3417V686.545C21.3417 687.023 21.4752 687.403 21.7423 687.688C22.0121 687.972 22.3559 688.114 22.7735 688.114C23.0235 688.114 23.2778 688.05 23.5363 687.922C23.7977 687.794 24.0164 687.598 24.1925 687.334C24.3715 687.07 24.461 686.733 24.461 686.324ZM31.945 683.92L31.0416 684.176C30.9848 684.026 30.901 683.879 30.7902 683.737C30.6822 683.592 30.5345 683.473 30.347 683.379C30.1595 683.286 29.9195 683.239 29.6269 683.239C29.2263 683.239 28.8925 683.331 28.6254 683.516C28.3612 683.697 28.2291 683.929 28.2291 684.21C28.2291 684.46 28.32 684.658 28.5019 684.803C28.6837 684.947 28.9678 685.068 29.3541 685.165L30.3257 685.403C30.9109 685.545 31.347 685.763 31.634 686.055C31.9209 686.345 32.0644 686.719 32.0644 687.176C32.0644 687.551 31.9564 687.886 31.7405 688.182C31.5274 688.477 31.2291 688.71 30.8456 688.881C30.4621 689.051 30.0161 689.136 29.5075 689.136C28.8399 689.136 28.2874 688.991 27.8499 688.702C27.4124 688.412 27.1354 687.989 27.0189 687.432L27.9734 687.193C28.0644 687.545 28.2362 687.81 28.4891 687.986C28.7447 688.162 29.0786 688.25 29.4905 688.25C29.9592 688.25 30.3314 688.151 30.607 687.952C30.8854 687.75 31.0246 687.509 31.0246 687.227C31.0246 687 30.945 686.81 30.7859 686.656C30.6269 686.5 30.3825 686.384 30.053 686.307L28.9621 686.051C28.3626 685.909 27.9223 685.689 27.6411 685.391C27.3626 685.089 27.2234 684.713 27.2234 684.261C27.2234 683.892 27.3271 683.565 27.5345 683.281C27.7447 682.997 28.0303 682.774 28.3911 682.612C28.7547 682.45 29.1666 682.369 29.6269 682.369C30.2746 682.369 30.7831 682.511 31.1524 682.795C31.5246 683.08 31.7888 683.455 31.945 683.92Z"
            fill="black" />
    </g>


    <g id="B Bus Arrow" transform="translate(0,-135)">
        <path id="Arrow 22"
            d="M371.646 676.646C371.451 676.842 371.451 677.158 371.646 677.354L374.828 680.536C375.024 680.731 375.34 680.731 375.536 680.536C375.731 680.34 375.731 680.024 375.536 679.828L372.707 677L375.536 674.172C375.731 673.976 375.731 673.66 375.536 673.464C375.34 673.269 375.024 673.269 374.828 673.464L371.646 676.646ZM452 676.5H372V677.5H452V676.5Z"
            fill="black" />
        <path id="B Bus"
            d="M455.057 680V671.273H458.108C458.716 671.273 459.217 671.378 459.612 671.588C460.007 671.795 460.301 672.075 460.494 672.428C460.688 672.777 460.784 673.165 460.784 673.591C460.784 673.966 460.717 674.276 460.584 674.52C460.453 674.764 460.28 674.957 460.064 675.099C459.851 675.241 459.619 675.347 459.369 675.415V675.5C459.636 675.517 459.905 675.611 460.175 675.781C460.445 675.952 460.67 676.196 460.852 676.514C461.034 676.832 461.125 677.222 461.125 677.682C461.125 678.119 461.026 678.513 460.827 678.862C460.628 679.212 460.314 679.489 459.885 679.693C459.456 679.898 458.898 680 458.21 680H455.057ZM456.114 679.062H458.21C458.901 679.062 459.391 678.929 459.68 678.662C459.973 678.392 460.119 678.065 460.119 677.682C460.119 677.386 460.044 677.114 459.893 676.864C459.743 676.611 459.528 676.409 459.25 676.259C458.972 676.105 458.642 676.028 458.261 676.028H456.114V679.062ZM456.114 675.108H458.074C458.392 675.108 458.679 675.045 458.935 674.92C459.193 674.795 459.398 674.619 459.548 674.392C459.702 674.165 459.778 673.898 459.778 673.591C459.778 673.207 459.645 672.882 459.378 672.615C459.111 672.345 458.688 672.21 458.108 672.21H456.114V675.108ZM466.237 680V671.273H469.288C469.896 671.273 470.397 671.378 470.792 671.588C471.187 671.795 471.481 672.075 471.674 672.428C471.867 672.777 471.964 673.165 471.964 673.591C471.964 673.966 471.897 674.276 471.763 674.52C471.633 674.764 471.46 674.957 471.244 675.099C471.031 675.241 470.799 675.347 470.549 675.415V675.5C470.816 675.517 471.085 675.611 471.354 675.781C471.624 675.952 471.85 676.196 472.032 676.514C472.214 676.832 472.305 677.222 472.305 677.682C472.305 678.119 472.205 678.513 472.006 678.862C471.808 679.212 471.494 679.489 471.065 679.693C470.636 679.898 470.077 680 469.39 680H466.237ZM467.293 679.062H469.39C470.08 679.062 470.57 678.929 470.86 678.662C471.153 678.392 471.299 678.065 471.299 677.682C471.299 677.386 471.224 677.114 471.073 676.864C470.923 676.611 470.708 676.409 470.43 676.259C470.151 676.105 469.822 676.028 469.441 676.028H467.293V679.062ZM467.293 675.108H469.254C469.572 675.108 469.859 675.045 470.114 674.92C470.373 674.795 470.577 674.619 470.728 674.392C470.881 674.165 470.958 673.898 470.958 673.591C470.958 673.207 470.825 672.882 470.558 672.615C470.29 672.345 469.867 672.21 469.288 672.21H467.293V675.108ZM478.03 677.324V673.455H479.036V680H478.03V678.892H477.962C477.808 679.224 477.57 679.507 477.246 679.74C476.922 679.97 476.513 680.085 476.018 680.085C475.609 680.085 475.246 679.996 474.928 679.817C474.609 679.635 474.359 679.362 474.178 678.999C473.996 678.632 473.905 678.17 473.905 677.614V673.455H474.911V677.545C474.911 678.023 475.044 678.403 475.311 678.688C475.581 678.972 475.925 679.114 476.342 679.114C476.592 679.114 476.847 679.05 477.105 678.922C477.366 678.794 477.585 678.598 477.761 678.334C477.94 678.07 478.03 677.733 478.03 677.324ZM485.514 674.92L484.61 675.176C484.554 675.026 484.47 674.879 484.359 674.737C484.251 674.592 484.103 674.473 483.916 674.379C483.728 674.286 483.488 674.239 483.196 674.239C482.795 674.239 482.461 674.331 482.194 674.516C481.93 674.697 481.798 674.929 481.798 675.21C481.798 675.46 481.889 675.658 482.071 675.803C482.252 675.947 482.537 676.068 482.923 676.165L483.895 676.403C484.48 676.545 484.916 676.763 485.203 677.055C485.49 677.345 485.633 677.719 485.633 678.176C485.633 678.551 485.525 678.886 485.309 679.182C485.096 679.477 484.798 679.71 484.414 679.881C484.031 680.051 483.585 680.136 483.076 680.136C482.409 680.136 481.856 679.991 481.419 679.702C480.981 679.412 480.704 678.989 480.588 678.432L481.542 678.193C481.633 678.545 481.805 678.81 482.058 678.986C482.314 679.162 482.647 679.25 483.059 679.25C483.528 679.25 483.9 679.151 484.176 678.952C484.454 678.75 484.593 678.509 484.593 678.227C484.593 678 484.514 677.81 484.355 677.656C484.196 677.5 483.951 677.384 483.622 677.307L482.531 677.051C481.931 676.909 481.491 676.689 481.21 676.391C480.931 676.089 480.792 675.713 480.792 675.261C480.792 674.892 480.896 674.565 481.103 674.281C481.314 673.997 481.599 673.774 481.96 673.612C482.324 673.45 482.735 673.369 483.196 673.369C483.843 673.369 484.352 673.511 484.721 673.795C485.093 674.08 485.358 674.455 485.514 674.92Z"
            fill="black" />
    </g>

    
    <g id="ALU 6 Arrow" transform="translate(0 -15)">
        <path id="Arrow 24" d="M252 768L242 762.226V773.774L252 768ZM202 769H243V767H202V769Z"
            fill="black" />
        <line id="Line 9" x1="230.318" y1="761.323" x2="218.445" y2="775.323" stroke="black" />
        <path id="6"
            d="M221.865 761.119C221.507 761.114 221.149 761.045 220.791 760.915C220.433 760.784 220.106 760.564 219.811 760.254C219.515 759.942 219.278 759.52 219.099 758.989C218.92 758.455 218.83 757.784 218.83 756.977C218.83 756.205 218.903 755.52 219.048 754.923C219.193 754.324 219.403 753.82 219.679 753.411C219.954 752.999 220.286 752.686 220.676 752.473C221.068 752.26 221.509 752.153 222.001 752.153C222.49 752.153 222.924 752.251 223.305 752.447C223.688 752.641 224.001 752.911 224.242 753.257C224.484 753.604 224.64 754.003 224.711 754.455H223.671C223.575 754.063 223.387 753.737 223.109 753.479C222.83 753.22 222.461 753.091 222.001 753.091C221.325 753.091 220.792 753.385 220.403 753.973C220.017 754.561 219.822 755.386 219.819 756.449H219.887C220.046 756.207 220.235 756.001 220.454 755.831C220.676 755.658 220.92 755.524 221.187 755.43C221.454 755.337 221.737 755.29 222.035 755.29C222.535 755.29 222.992 755.415 223.407 755.665C223.822 755.912 224.154 756.254 224.404 756.692C224.654 757.126 224.779 757.625 224.779 758.188C224.779 758.727 224.659 759.222 224.417 759.67C224.176 760.116 223.836 760.472 223.399 760.736C222.964 760.997 222.453 761.125 221.865 761.119ZM221.865 760.182C222.223 760.182 222.544 760.092 222.828 759.913C223.115 759.734 223.34 759.494 223.505 759.193C223.673 758.892 223.757 758.557 223.757 758.188C223.757 757.827 223.676 757.499 223.514 757.203C223.355 756.905 223.134 756.668 222.853 756.491C222.575 756.315 222.257 756.227 221.899 756.227C221.629 756.227 221.377 756.281 221.144 756.389C220.911 756.494 220.707 756.639 220.531 756.824C220.357 757.009 220.221 757.22 220.122 757.459C220.022 757.695 219.973 757.943 219.973 758.205C219.973 758.551 220.054 758.875 220.215 759.176C220.38 759.477 220.605 759.72 220.889 759.905C221.176 760.089 221.501 760.182 221.865 760.182Z"
            fill="black" />
    </g>
    <g id="ALU N Arrow" transform="translate(0 -15)">
        <path id="Arrow 19"
            d="M424 763.287L414 757.514V769.061L424 763.287ZM374 764.287H415V762.287H374V764.287Z"
            fill="black" />
        <path id="N"
            d="M431.977 757.273V766H430.955L426.199 759.148H426.114V766H425.057V757.273H426.08L430.852 764.142H430.938V757.273H431.977Z"
            fill="black" />
    </g>
    <g id="ALU Z Arrow" transform="translate(0 -15)">
        <path id="Arrow 20_26" d="M424 780L414 774.226V785.774L424 780ZM362 781H415V779H362V781Z"
            fill="black" />
        <path id="Z"
            d="M424.767 784.787V784.02L429.472 776.997H424.716V776.06H430.733V776.827L426.028 783.85H430.784V784.787H424.767Z"
            fill="black" />
    </g>
    <g id="Shifter Control Arrow" transform="translate(0 -40)">
        <g id="ALU 6 Arrow_2">
            <path id="Arrow 24_2" d="M371 868L381 873.774V862.226L371 868ZM421 867H380V869H421V867Z"
                fill="black" />
            <line id="Line 9_2" x1="392.682" y1="874.677" x2="404.555" y2="860.677" stroke="black" />
        </g>
        <path id="2"
            d="M398.574 884V883.233L401.455 880.08C401.793 879.71 402.072 879.389 402.29 879.116C402.509 878.841 402.671 878.582 402.776 878.341C402.884 878.097 402.938 877.841 402.938 877.574C402.938 877.267 402.864 877.001 402.716 876.777C402.572 876.553 402.373 876.379 402.12 876.257C401.867 876.135 401.583 876.074 401.268 876.074C400.932 876.074 400.64 876.143 400.39 876.283C400.143 876.419 399.951 876.611 399.814 876.858C399.681 877.105 399.614 877.395 399.614 877.727H398.608C398.608 877.216 398.726 876.767 398.962 876.381C399.198 875.994 399.519 875.693 399.925 875.477C400.334 875.261 400.793 875.153 401.302 875.153C401.813 875.153 402.266 875.261 402.661 875.477C403.056 875.693 403.366 875.984 403.59 876.351C403.814 876.717 403.927 877.125 403.927 877.574C403.927 877.895 403.868 878.209 403.752 878.516C403.638 878.82 403.439 879.159 403.155 879.534C402.874 879.906 402.483 880.361 401.983 880.898L400.023 882.994V883.062H404.08V884H398.574Z"
            fill="black" />
        <path id="Shifter control"
            d="M429.887 865.393C429.831 864.962 429.62 864.629 429.254 864.394C428.888 864.159 428.441 864.044 427.912 864.05C427.526 864.054 427.188 864.12 426.9 864.248C426.614 864.376 426.392 864.55 426.232 864.771C426.075 864.991 425.998 865.241 426.001 865.519C426.004 865.752 426.061 865.952 426.174 866.118C426.289 866.282 426.436 866.418 426.613 866.527C426.79 866.633 426.976 866.72 427.17 866.789C427.364 866.856 427.542 866.909 427.704 866.95L428.593 867.179C428.821 867.237 429.074 867.316 429.354 867.418C429.636 867.521 429.906 867.661 430.164 867.84C430.424 868.017 430.64 868.244 430.81 868.524C430.981 868.803 431.068 869.148 431.073 869.557C431.078 870.028 430.958 870.456 430.715 870.839C430.475 871.222 430.12 871.529 429.651 871.758C429.185 871.987 428.616 872.105 427.946 872.113C427.321 872.119 426.779 872.024 426.319 871.827C425.863 871.63 425.502 871.353 425.237 870.995C424.974 870.637 424.824 870.219 424.784 869.742L425.875 869.731C425.907 870.06 426.021 870.332 426.216 870.545C426.415 870.756 426.663 870.913 426.963 871.015C427.265 871.114 427.589 871.162 427.936 871.158C428.339 871.154 428.701 871.085 429.02 870.951C429.34 870.814 429.592 870.626 429.777 870.389C429.962 870.148 430.053 869.869 430.05 869.55C430.047 869.261 429.963 869.026 429.799 868.846C429.636 868.666 429.421 868.52 429.156 868.409C428.89 868.298 428.604 868.202 428.296 868.12L427.219 867.824C426.535 867.636 425.992 867.362 425.591 867.002C425.189 866.643 424.985 866.169 424.979 865.581C424.974 865.092 425.102 864.665 425.362 864.298C425.625 863.929 425.98 863.641 426.427 863.435C426.876 863.226 427.38 863.118 427.936 863.112C428.499 863.106 429 863.202 429.439 863.399C429.879 863.593 430.229 863.862 430.488 864.206C430.75 864.55 430.89 864.942 430.909 865.382L429.887 865.393ZM433.663 867.961L433.704 871.898L432.699 871.909L432.607 863.182L433.612 863.172L433.646 866.376L433.731 866.375C433.881 866.036 434.108 865.765 434.413 865.563C434.721 865.358 435.132 865.252 435.646 865.247C436.092 865.242 436.483 865.328 436.82 865.503C437.157 865.676 437.42 865.944 437.609 866.309C437.8 866.67 437.899 867.132 437.905 867.695L437.948 871.854L436.943 871.864L436.9 867.774C436.894 867.254 436.755 866.853 436.482 866.572C436.212 866.288 435.84 866.148 435.365 866.153C435.036 866.157 434.741 866.23 434.481 866.372C434.224 866.513 434.022 866.719 433.874 866.987C433.729 867.256 433.659 867.581 433.663 867.961ZM439.788 871.834L439.719 865.289L440.725 865.279L440.794 871.824L439.788 871.834ZM440.219 864.193C440.023 864.195 439.853 864.13 439.71 863.998C439.569 863.866 439.498 863.706 439.496 863.519C439.494 863.331 439.562 863.17 439.7 863.035C439.84 862.9 440.009 862.832 440.205 862.83C440.401 862.827 440.569 862.892 440.71 863.025C440.853 863.157 440.926 863.316 440.928 863.504C440.93 863.691 440.86 863.853 440.72 863.988C440.582 864.123 440.415 864.191 440.219 864.193ZM445.481 865.229L445.49 866.081L441.962 866.118L441.953 865.266L445.481 865.229ZM443.079 871.8L443 864.351C442.996 863.976 443.081 863.663 443.255 863.411C443.428 863.159 443.655 862.969 443.935 862.841C444.215 862.713 444.511 862.648 444.823 862.645C445.071 862.642 445.272 862.66 445.429 862.698C445.586 862.736 445.703 862.772 445.78 862.805L445.499 863.677C445.448 863.661 445.377 863.64 445.285 863.616C445.197 863.591 445.08 863.579 444.936 863.581C444.603 863.584 444.364 863.671 444.218 863.84C444.075 864.009 444.005 864.256 444.008 864.579L444.084 871.789L443.079 871.8ZM449.737 865.184L449.746 866.036L446.354 866.072L446.345 865.22L449.737 865.184ZM447.317 863.641L448.323 863.63L448.389 869.869C448.392 870.153 448.435 870.365 448.519 870.507C448.606 870.645 448.715 870.738 448.846 870.784C448.98 870.829 449.121 870.85 449.268 870.848C449.379 870.847 449.47 870.84 449.541 870.828C449.612 870.813 449.668 870.801 449.711 870.792L449.925 871.694C449.857 871.72 449.762 871.746 449.64 871.773C449.518 871.803 449.364 871.819 449.176 871.821C448.892 871.824 448.613 871.766 448.339 871.646C448.068 871.527 447.842 871.343 447.66 871.095C447.481 870.847 447.39 870.533 447.386 870.152L447.317 863.641ZM453.994 871.821C453.363 871.828 452.818 871.694 452.358 871.421C451.9 871.144 451.545 870.756 451.293 870.256C451.043 869.753 450.915 869.166 450.908 868.496C450.901 867.825 451.017 867.233 451.255 866.719C451.497 866.202 451.837 865.798 452.274 865.507C452.714 865.212 453.23 865.062 453.821 865.056C454.161 865.052 454.499 865.105 454.832 865.215C455.166 865.326 455.47 865.507 455.746 865.76C456.021 866.01 456.242 866.343 456.408 866.759C456.575 867.174 456.661 867.688 456.667 868.299L456.672 868.725L451.627 868.778L451.617 867.909L455.64 867.866C455.636 867.497 455.559 867.168 455.408 866.88C455.26 866.592 455.05 866.365 454.779 866.2C454.51 866.036 454.194 865.955 453.83 865.959C453.429 865.963 453.084 866.066 452.793 866.268C452.506 866.467 452.285 866.725 452.133 867.042C451.98 867.359 451.905 867.698 451.909 868.059L451.915 868.638C451.92 869.133 452.01 869.551 452.184 869.893C452.361 870.232 452.603 870.489 452.912 870.665C453.221 870.838 453.578 870.922 453.985 870.918C454.249 870.915 454.487 870.876 454.699 870.8C454.914 870.721 455.099 870.605 455.254 870.453C455.408 870.298 455.527 870.106 455.61 869.878L456.584 870.14C456.486 870.471 456.317 870.763 456.078 871.015C455.839 871.265 455.543 871.461 455.189 871.604C454.836 871.744 454.437 871.817 453.994 871.821ZM458.232 871.64L458.163 865.095L459.135 865.085L459.145 866.073L459.214 866.073C459.33 865.748 459.543 865.483 459.853 865.278C460.163 865.073 460.515 864.968 460.907 864.964C460.98 864.963 461.073 864.964 461.184 864.965C461.294 864.967 461.378 864.97 461.435 864.975L461.446 865.998C461.412 865.99 461.333 865.978 461.211 865.962C461.092 865.944 460.965 865.935 460.832 865.936C460.513 865.94 460.23 866.01 459.981 866.146C459.736 866.279 459.542 866.463 459.399 866.697C459.26 866.929 459.191 867.192 459.194 867.488L459.238 871.63L458.232 871.64ZM468.732 871.666C468.119 871.673 467.589 871.533 467.142 871.248C466.696 870.963 466.351 870.567 466.107 870.061C465.863 869.556 465.738 868.976 465.731 868.322C465.724 867.658 465.84 867.07 466.079 866.559C466.321 866.045 466.66 865.642 467.097 865.351C467.538 865.056 468.053 864.906 468.644 864.9C469.104 864.895 469.52 864.976 469.891 865.142C470.262 865.309 470.567 865.544 470.806 865.848C471.045 866.153 471.195 866.509 471.256 866.918L470.251 866.928C470.171 866.631 469.998 866.368 469.731 866.141C469.467 865.911 469.114 865.798 468.67 865.803C468.278 865.807 467.936 865.913 467.642 866.12C467.352 866.325 467.126 866.613 466.965 866.984C466.807 867.352 466.731 867.783 466.736 868.278C466.742 868.783 466.826 869.223 466.989 869.596C467.155 869.969 467.385 870.258 467.68 870.463C467.977 870.667 468.325 870.767 468.723 870.763C468.984 870.76 469.221 870.712 469.433 870.619C469.645 870.526 469.824 870.393 469.97 870.221C470.116 870.049 470.219 869.843 470.279 869.604L471.284 869.594C471.232 869.981 471.095 870.33 470.874 870.642C470.655 870.951 470.364 871.199 469.999 871.384C469.637 871.567 469.215 871.661 468.732 871.666ZM475.435 871.595C474.844 871.602 474.324 871.467 473.875 871.19C473.429 870.913 473.078 870.524 472.823 870.021C472.571 869.518 472.441 868.928 472.434 868.252C472.426 867.57 472.544 866.974 472.786 866.463C473.03 865.951 473.373 865.553 473.813 865.267C474.256 864.981 474.773 864.835 475.364 864.829C475.955 864.823 476.473 864.958 476.919 865.234C477.368 865.511 477.719 865.902 477.971 866.408C478.227 866.914 478.358 867.508 478.365 868.189C478.372 868.866 478.254 869.458 478.009 869.966C477.767 870.474 477.425 870.871 476.982 871.157C476.541 871.443 476.026 871.589 475.435 871.595ZM475.425 870.692C475.874 870.687 476.242 870.568 476.53 870.335C476.817 870.102 477.028 869.797 477.164 869.421C477.299 869.044 477.364 868.637 477.36 868.2C477.355 867.763 477.281 867.356 477.138 866.979C476.995 866.603 476.777 866.3 476.485 866.07C476.193 865.84 475.822 865.727 475.373 865.732C474.924 865.737 474.556 865.857 474.269 866.093C473.982 866.329 473.77 866.637 473.635 867.016C473.5 867.395 473.435 867.804 473.439 868.241C473.444 868.679 473.518 869.084 473.661 869.458C473.804 869.831 474.022 870.132 474.314 870.359C474.606 870.586 474.977 870.697 475.425 870.692ZM480.898 867.464L480.94 871.401L479.934 871.412L479.865 864.867L480.837 864.856L480.848 865.879L480.933 865.878C481.083 865.544 481.313 865.275 481.623 865.07C481.934 864.862 482.336 864.755 482.83 864.75C483.273 864.746 483.662 864.832 483.996 865.011C484.331 865.186 484.592 865.456 484.781 865.821C484.969 866.182 485.066 866.642 485.072 867.198L485.116 871.357L484.11 871.368L484.067 867.277C484.062 866.763 483.924 866.364 483.654 866.08C483.384 865.793 483.016 865.652 482.55 865.657C482.229 865.66 481.943 865.733 481.691 865.874C481.443 866.016 481.248 866.221 481.106 866.49C480.964 866.759 480.894 867.083 480.898 867.464ZM489.731 864.763L489.74 865.615L486.348 865.651L486.339 864.798L489.731 864.763ZM487.311 863.22L488.317 863.209L488.383 869.448C488.386 869.732 488.429 869.944 488.513 870.086C488.6 870.224 488.708 870.316 488.84 870.363C488.974 870.407 489.114 870.429 489.262 870.427C489.373 870.426 489.464 870.419 489.535 870.407C489.606 870.392 489.662 870.38 489.705 870.371L489.919 871.273C489.851 871.299 489.756 871.325 489.634 871.352C489.512 871.382 489.358 871.398 489.17 871.4C488.886 871.403 488.607 871.345 488.333 871.225C488.062 871.106 487.836 870.922 487.654 870.674C487.475 870.426 487.384 870.112 487.38 869.731L487.311 863.22ZM491.313 871.292L491.244 864.747L492.215 864.737L492.226 865.725L492.294 865.724C492.41 865.399 492.623 865.134 492.933 864.929C493.244 864.724 493.595 864.62 493.987 864.616C494.061 864.615 494.153 864.615 494.264 864.617C494.375 864.619 494.458 864.622 494.515 864.627L494.526 865.65C494.492 865.642 494.414 865.63 494.291 865.614C494.172 865.595 494.045 865.587 493.912 865.588C493.594 865.591 493.31 865.661 493.062 865.797C492.816 865.931 492.622 866.114 492.479 866.349C492.34 866.581 492.272 866.844 492.275 867.14L492.318 871.281L491.313 871.292ZM498.238 871.355C497.647 871.362 497.128 871.226 496.679 870.95C496.232 870.673 495.882 870.284 495.626 869.781C495.374 869.277 495.244 868.688 495.237 868.012C495.23 867.33 495.347 866.734 495.589 866.222C495.834 865.711 496.176 865.313 496.616 865.027C497.059 864.741 497.576 864.595 498.167 864.589C498.758 864.582 499.276 864.718 499.723 864.994C500.172 865.271 500.522 865.662 500.775 866.168C501.03 866.674 501.161 867.268 501.169 867.949C501.176 868.625 501.057 869.218 500.812 869.726C500.57 870.234 500.228 870.631 499.785 870.917C499.345 871.203 498.829 871.349 498.238 871.355ZM498.229 870.452C498.678 870.447 499.046 870.328 499.333 870.095C499.62 869.862 499.832 869.557 499.967 869.181C500.102 868.804 500.168 868.397 500.163 867.96C500.158 867.522 500.084 867.116 499.941 866.739C499.798 866.363 499.58 866.06 499.288 865.83C498.996 865.6 498.625 865.487 498.177 865.492C497.728 865.497 497.36 865.617 497.072 865.853C496.785 866.089 496.574 866.397 496.439 866.776C496.303 867.155 496.238 867.564 496.243 868.001C496.247 868.439 496.321 868.844 496.464 869.218C496.607 869.591 496.825 869.891 497.117 870.119C497.41 870.346 497.78 870.457 498.229 870.452ZM503.651 862.434L503.743 871.161L502.738 871.172L502.646 862.445L503.651 862.434Z"
            fill="black" />
    </g>
    -->





    <defs>
        <filter id="filter0_b_0_1" x="234.009" y="711" width="31.094" height="28"
            filterUnits="userSpaceOnUse"
            color-interpolation-filters="sRGB">
            <feFlood flood-opacity="0" result="BackgroundImageFix" />
            <feGaussianBlur in="BackgroundImageFix" stdDeviation="2" />
            <feComposite in2="SourceAlpha" operator="in" result="effect1_backgroundBlur_0_1" />
            <feBlend mode="normal" in="SourceGraphic" in2="effect1_backgroundBlur_0_1"
                result="shape" />
        </filter>
        <filter id="filter1_b_0_1" x="338.309" y="69.6752" width="28" height="31.094"
            filterUnits="userSpaceOnUse"
            color-interpolation-filters="sRGB">
            <feFlood flood-opacity="0" result="BackgroundImageFix" />
            <feGaussianBlur in="BackgroundImageFix" stdDeviation="2" />
            <feComposite in2="SourceAlpha" operator="in" result="effect1_backgroundBlur_0_1" />
            <feBlend mode="normal" in="SourceGraphic" in2="effect1_backgroundBlur_0_1"
                result="shape" />
        </filter>
        <filter id="filter2_b_0_1" x="338.309" y="139.675" width="28" height="31.094"
            filterUnits="userSpaceOnUse"
            color-interpolation-filters="sRGB">
            <feFlood flood-opacity="0" result="BackgroundImageFix" />
            <feGaussianBlur in="BackgroundImageFix" stdDeviation="2" />
            <feComposite in2="SourceAlpha" operator="in" result="effect1_backgroundBlur_0_1" />
            <feBlend mode="normal" in="SourceGraphic" in2="effect1_backgroundBlur_0_1"
                result="shape" />
        </filter>
        <filter id="filter3_b_0_1" x="338.309" y="211.675" width="28" height="31.094"
            filterUnits="userSpaceOnUse"
            color-interpolation-filters="sRGB">
            <feFlood flood-opacity="0" result="BackgroundImageFix" />
            <feGaussianBlur in="BackgroundImageFix" stdDeviation="2" />
            <feComposite in2="SourceAlpha" operator="in" result="effect1_backgroundBlur_0_1" />
            <feBlend mode="normal" in="SourceGraphic" in2="effect1_backgroundBlur_0_1"
                result="shape" />
        </filter>
        <filter id="filter4_b_0_1" x="338.309" y="222.675" width="28" height="31.094"
            filterUnits="userSpaceOnUse"
            color-interpolation-filters="sRGB">
            <feFlood flood-opacity="0" result="BackgroundImageFix" />
            <feGaussianBlur in="BackgroundImageFix" stdDeviation="2" />
            <feComposite in2="SourceAlpha" operator="in" result="effect1_backgroundBlur_0_1" />
            <feBlend mode="normal" in="SourceGraphic" in2="effect1_backgroundBlur_0_1"
                result="shape" />
        </filter>
        <filter id="filter5_b_0_1" x="338.309" y="284.048" width="28" height="31.094"
            filterUnits="userSpaceOnUse"
            color-interpolation-filters="sRGB">
            <feFlood flood-opacity="0" result="BackgroundImageFix" />
            <feGaussianBlur in="BackgroundImageFix" stdDeviation="2" />
            <feComposite in2="SourceAlpha" operator="in" result="effect1_backgroundBlur_0_1" />
            <feBlend mode="normal" in="SourceGraphic" in2="effect1_backgroundBlur_0_1"
                result="shape" />
        </filter>
        <filter id="filter6_b_0_1" x="339.22" y="353.675" width="28" height="31.094"
            filterUnits="userSpaceOnUse"
            color-interpolation-filters="sRGB">
            <feFlood flood-opacity="0" result="BackgroundImageFix" />
            <feGaussianBlur in="BackgroundImageFix" stdDeviation="2" />
            <feComposite in2="SourceAlpha" operator="in" result="effect1_backgroundBlur_0_1" />
            <feBlend mode="normal" in="SourceGraphic" in2="effect1_backgroundBlur_0_1"
                result="shape" />
        </filter>
        <filter id="filter7_b_0_1" x="338.309" y="425.675" width="28" height="31.094"
            filterUnits="userSpaceOnUse"
            color-interpolation-filters="sRGB">
            <feFlood flood-opacity="0" result="BackgroundImageFix" />
            <feGaussianBlur in="BackgroundImageFix" stdDeviation="2" />
            <feComposite in2="SourceAlpha" operator="in" result="effect1_backgroundBlur_0_1" />
            <feBlend mode="normal" in="SourceGraphic" in2="effect1_backgroundBlur_0_1"
                result="shape" />
        </filter>
        <filter id="filter8_b_0_1" x="339.22" y="495.675" width="28" height="31.094"
            filterUnits="userSpaceOnUse"
            color-interpolation-filters="sRGB">
            <feFlood flood-opacity="0" result="BackgroundImageFix" />
            <feGaussianBlur in="BackgroundImageFix" stdDeviation="2" />
            <feComposite in2="SourceAlpha" operator="in" result="effect1_backgroundBlur_0_1" />
            <feBlend mode="normal" in="SourceGraphic" in2="effect1_backgroundBlur_0_1"
                result="shape" />
        </filter>
        <filter id="filter9_b_0_1" x="340.13" y="566.675" width="28" height="31.094"
            filterUnits="userSpaceOnUse"
            color-interpolation-filters="sRGB">
            <feFlood flood-opacity="0" result="BackgroundImageFix" />
            <feGaussianBlur in="BackgroundImageFix" stdDeviation="2" />
            <feComposite in2="SourceAlpha" operator="in" result="effect1_backgroundBlur_0_1" />
            <feBlend mode="normal" in="SourceGraphic" in2="effect1_backgroundBlur_0_1"
                result="shape" />
        </filter>
        <filter id="filter10_b_0_1" x="72" y="9.8974" width="28" height="31.094"
            filterUnits="userSpaceOnUse"
            color-interpolation-filters="sRGB">
            <feFlood flood-opacity="0" result="BackgroundImageFix" />
            <feGaussianBlur in="BackgroundImageFix" stdDeviation="2" />
            <feComposite in2="SourceAlpha" operator="in" result="effect1_backgroundBlur_0_1" />
            <feBlend mode="normal" in="SourceGraphic" in2="effect1_backgroundBlur_0_1"
                result="shape" />
        </filter>
        <filter id="filter11_b_0_1" x="72.2439" y="150.897" width="28" height="31.094"
            filterUnits="userSpaceOnUse"
            color-interpolation-filters="sRGB">
            <feFlood flood-opacity="0" result="BackgroundImageFix" />
            <feGaussianBlur in="BackgroundImageFix" stdDeviation="2" />
            <feComposite in2="SourceAlpha" operator="in" result="effect1_backgroundBlur_0_1" />
            <feBlend mode="normal" in="SourceGraphic" in2="effect1_backgroundBlur_0_1"
                result="shape" />
        </filter>
        <filter id="filter12_b_0_1" x="154.756" y="220.009" width="28" height="31.094"
            filterUnits="userSpaceOnUse"
            color-interpolation-filters="sRGB">
            <feFlood flood-opacity="0" result="BackgroundImageFix" />
            <feGaussianBlur in="BackgroundImageFix" stdDeviation="2" />
            <feComposite in2="SourceAlpha" operator="in" result="effect1_backgroundBlur_0_1" />
            <feBlend mode="normal" in="SourceGraphic" in2="effect1_backgroundBlur_0_1"
                result="shape" />
        </filter>
        <filter id="filter13_b_0_1" x="158.866" y="84.453" width="28" height="31.094"
            filterUnits="userSpaceOnUse"
            color-interpolation-filters="sRGB">
            <feFlood flood-opacity="0" result="BackgroundImageFix" />
            <feGaussianBlur in="BackgroundImageFix" stdDeviation="2" />
            <feComposite in2="SourceAlpha" operator="in" result="effect1_backgroundBlur_0_1" />
            <feBlend mode="normal" in="SourceGraphic" in2="effect1_backgroundBlur_0_1"
                result="shape" />
        </filter>
        <filter id="filter14_b_0_1" x="72" y="84.453" width="28" height="31.094"
            filterUnits="userSpaceOnUse"
            color-interpolation-filters="sRGB">
            <feFlood flood-opacity="0" result="BackgroundImageFix" />
            <feGaussianBlur in="BackgroundImageFix" stdDeviation="2" />
            <feComposite in2="SourceAlpha" operator="in" result="effect1_backgroundBlur_0_1" />
            <feBlend mode="normal" in="SourceGraphic" in2="effect1_backgroundBlur_0_1"
                result="shape" />
        </filter>
        <filter id="filter15_b_0_1" x="155.546" y="64.6752" width="28" height="31.094"
            filterUnits="userSpaceOnUse"
            color-interpolation-filters="sRGB">
            <feFlood flood-opacity="0" result="BackgroundImageFix" />
            <feGaussianBlur in="BackgroundImageFix" stdDeviation="2" />
            <feComposite in2="SourceAlpha" operator="in" result="effect1_backgroundBlur_0_1" />
            <feBlend mode="normal" in="SourceGraphic" in2="effect1_backgroundBlur_0_1"
                result="shape" />
        </filter>
        <filter id="filter16_b_0_1" x="155.364" y="-0.324768" width="28" height="31.094"
            filterUnits="userSpaceOnUse"
            color-interpolation-filters="sRGB">
            <feFlood flood-opacity="0" result="BackgroundImageFix" />
            <feGaussianBlur in="BackgroundImageFix" stdDeviation="2" />
            <feComposite in2="SourceAlpha" operator="in" result="effect1_backgroundBlur_0_1" />
            <feBlend mode="normal" in="SourceGraphic" in2="effect1_backgroundBlur_0_1"
                result="shape" />
        </filter>
        <filter id="filter17_b_0_1" x="155.546" y="139.675" width="28" height="31.094"
            filterUnits="userSpaceOnUse"
            color-interpolation-filters="sRGB">
            <feFlood flood-opacity="0" result="BackgroundImageFix" />
            <feGaussianBlur in="BackgroundImageFix" stdDeviation="2" />
            <feComposite in2="SourceAlpha" operator="in" result="effect1_backgroundBlur_0_1" />
            <feBlend mode="normal" in="SourceGraphic" in2="effect1_backgroundBlur_0_1"
                result="shape" />
        </filter>
        <filter id="filter18_b_0_1" x="155.546" y="285.675" width="28" height="31.094"
            filterUnits="userSpaceOnUse"
            color-interpolation-filters="sRGB">
            <feFlood flood-opacity="0" result="BackgroundImageFix" />
            <feGaussianBlur in="BackgroundImageFix" stdDeviation="2" />
            <feComposite in2="SourceAlpha" operator="in" result="effect1_backgroundBlur_0_1" />
            <feBlend mode="normal" in="SourceGraphic" in2="effect1_backgroundBlur_0_1"
                result="shape" />
        </filter>
        <filter id="filter19_b_0_1" x="154.545" y="360.675" width="28" height="31.094"
            filterUnits="userSpaceOnUse"
            color-interpolation-filters="sRGB">
            <feFlood flood-opacity="0" result="BackgroundImageFix" />
            <feGaussianBlur in="BackgroundImageFix" stdDeviation="2" />
            <feComposite in2="SourceAlpha" operator="in" result="effect1_backgroundBlur_0_1" />
            <feBlend mode="normal" in="SourceGraphic" in2="effect1_backgroundBlur_0_1"
                result="shape" />
        </filter>
        <filter id="filter20_b_0_1" x="155.545" y="497.675" width="28" height="31.094"
            filterUnits="userSpaceOnUse"
            color-interpolation-filters="sRGB">
            <feFlood flood-opacity="0" result="BackgroundImageFix" />
            <feGaussianBlur in="BackgroundImageFix" stdDeviation="2" />
            <feComposite in2="SourceAlpha" operator="in" result="effect1_backgroundBlur_0_1" />
            <feBlend mode="normal" in="SourceGraphic" in2="effect1_backgroundBlur_0_1"
                result="shape" />
        </filter>
        <filter id="filter21_b_0_1" x="154.546" y="425.675" width="28" height="31.094"
            filterUnits="userSpaceOnUse"
            color-interpolation-filters="sRGB">
            <feFlood flood-opacity="0" result="BackgroundImageFix" />
            <feGaussianBlur in="BackgroundImageFix" stdDeviation="2" />
            <feComposite in2="SourceAlpha" operator="in" result="effect1_backgroundBlur_0_1" />
            <feBlend mode="normal" in="SourceGraphic" in2="effect1_backgroundBlur_0_1"
                result="shape" />
        </filter>
        <filter id="filter22_b_0_1" x="155.545" y="565.675" width="28" height="31.094"
            filterUnits="userSpaceOnUse"
            color-interpolation-filters="sRGB">
            <feFlood flood-opacity="0" result="BackgroundImageFix" />
            <feGaussianBlur in="BackgroundImageFix" stdDeviation="2" />
            <feComposite in2="SourceAlpha" operator="in" result="effect1_backgroundBlur_0_1" />
            <feBlend mode="normal" in="SourceGraphic" in2="effect1_backgroundBlur_0_1"
                result="shape" />
        </filter>
        <filter id="filter23_b_0_1" x="155.545" y="641.675" width="28" height="31.094"
            filterUnits="userSpaceOnUse"
            color-interpolation-filters="sRGB">
            <feFlood flood-opacity="0" result="BackgroundImageFix" />
            <feGaussianBlur in="BackgroundImageFix" stdDeviation="2" />
            <feComposite in2="SourceAlpha" operator="in" result="effect1_backgroundBlur_0_1" />
            <feBlend mode="normal" in="SourceGraphic" in2="effect1_backgroundBlur_0_1"
                result="shape" />
        </filter>
        <filter id="filter24_b_0_1" x="298.231" y="824" width="31.094" height="28"
            filterUnits="userSpaceOnUse"
            color-interpolation-filters="sRGB">
            <feFlood flood-opacity="0" result="BackgroundImageFix" />
            <feGaussianBlur in="BackgroundImageFix" stdDeviation="2" />
            <feComposite in2="SourceAlpha" operator="in" result="effect1_backgroundBlur_0_1" />
            <feBlend mode="normal" in="SourceGraphic" in2="effect1_backgroundBlur_0_1"
                result="shape" />
        </filter>
        <filter id="filter25_b_0_1" x="347.898" y="591" width="31.0934" height="152"
            filterUnits="userSpaceOnUse"
            color-interpolation-filters="sRGB">
            <feFlood flood-opacity="0" result="BackgroundImageFix" />
            <feGaussianBlur in="BackgroundImageFix" stdDeviation="2" />
            <feComposite in2="SourceAlpha" operator="in" result="effect1_backgroundBlur_0_1" />
            <feBlend mode="normal" in="SourceGraphic" in2="effect1_backgroundBlur_0_1"
                result="shape" />
        </filter>
    </defs>
</svg>